<?xml version="1.0" standalone="yes"?>

<svg version="1.1" viewBox="0.0 0.0 960.0 720.0" fill="none" stroke="none" stroke-linecap="square" stroke-miterlimit="10" xmlns="http://www.w3.org/2000/svg" xmlns:xlink="http://www.w3.org/1999/xlink"><clipPath id="p.0"><path d="m0 0l960.0 0l0 720.0l-960.0 0l0 -720.0z" clip-rule="nonzero"></path></clipPath><g clip-path="url(#p.0)"><path fill="#000000" fill-opacity="0.0" d="m0 0l960.0 0l0 720.0l-960.0 0z" fill-rule="nonzero"></path><path fill="#999999" d="m253.04028 306.08136l706.96063 0l0 387.49603l-706.96063 0z" fill-rule="nonzero"></path><path stroke="#f3f3f3" stroke-width="1.0" stroke-linejoin="round" stroke-linecap="butt" d="m253.04028 306.08136l706.96063 0l0 387.49603l-706.96063 0z" fill-rule="nonzero"></path><path fill="#000000" d="m480.05576 528.6294l0 -36.6875l-11.640625 0l0 -5.578125l11.640625 0l0 -2.96875q0 -4.0625 1.1875 -7.125q1.203125 -3.078125 3.359375 -5.140625q2.171875 -2.078125 5.21875 -3.125q3.046875 -1.0625 6.796875 -1.0625q2.578125 0 5.015625 0.4375q2.453125 0.421875 5.03125 1.09375l-0.859375 5.96875q-1.609375 -0.546875 -3.734375 -0.953125q-2.125 -0.40625 -4.546875 -0.40625q-5.078125 0.03125 -7.640625 2.578125q-2.5625 2.53125 -2.5625 7.734375l0 2.96875l16.296875 0l0 5.578125l-16.296875 0l0 36.6875l-7.265625 0zm38.40628 -42.265625l21.59375 0l0 36.015625l13.796875 0l0 6.25l-35.390625 0l0 -6.25l14.375 0l0 -29.734375l-14.375 0l0 -6.28125zm13.4375 -11.09375q0 -1.796875 1.0625 -3.03125q1.078125 -1.234375 3.265625 -1.234375q2.15625 0 3.25 1.234375q1.09375 1.234375 1.09375 3.03125q0 1.75 -1.09375 2.921875q-1.09375 1.171875 -3.25 1.171875q-2.1875 0 -3.265625 -1.171875q-1.0625 -1.171875 -1.0625 -2.921875zm52.101562 54.140625q-4.453125 0 -8.1875 -1.515625q-3.71875 -1.53125 -6.375 -4.265625q-2.65625 -2.734375 -4.140625 -6.484375q-1.484375 -3.75 -1.484375 -8.171875l0 -1.640625q0 -5.109375 1.640625 -9.15625q1.640625 -4.046875 4.34375 -6.828125q2.71875 -2.796875 6.171875 -4.28125q3.46875 -1.484375 7.09375 -1.484375q4.578125 0 7.984375 1.578125q3.421875 1.578125 5.6875 4.375q2.265625 2.796875 3.375 6.59375q1.125 3.78125 1.125 8.1875l0 3.25l-30.203125 0q0.125 2.890625 1.109375 5.4375q1.0 2.53125 2.734375 4.421875q1.75 1.890625 4.171875 2.984375q2.421875 1.09375 5.34375 1.09375q3.875 0 6.875 -1.5625q3.015625 -1.5625 5.0 -4.140625l4.421875 3.4375q-1.0625 1.609375 -2.640625 3.078125q-1.578125 1.453125 -3.65625 2.59375q-2.0625 1.125 -4.6875 1.8125q-2.609375 0.6875 -5.703125 0.6875zm-0.9375 -37.890625q-2.1875 0 -4.140625 0.796875q-1.953125 0.796875 -3.515625 2.34375q-1.5625 1.546875 -2.640625 3.796875q-1.0625 2.234375 -1.5 5.171875l22.734375 0l0 -0.546875q-0.109375 -2.109375 -0.796875 -4.171875q-0.6875 -2.078125 -2.015625 -3.71875q-1.328125 -1.640625 -3.34375 -2.65625q-2.0 -1.015625 -4.78125 -1.015625zm31.414062 -22.890625l21.59375 0l0 53.75l13.796875 0l0 6.25l-35.390625 0l0 -6.25l14.375 0l0 -47.46875l-14.375 0l0 -6.28125zm45.507812 38.515625q0 -4.734375 1.1875 -8.6875q1.1875 -3.96875 3.390625 -6.8125q2.21875 -2.859375 5.34375 -4.453125q3.125 -1.609375 6.984375 -1.609375q3.796875 0 6.625 1.265625q2.828125 1.265625 4.90625 3.6875l0 -21.90625l7.21875 0l0 60.0l-6.640625 0l-0.3125 -4.453125q-2.109375 2.578125 -5.046875 3.90625q-2.921875 1.328125 -6.828125 1.328125q-3.828125 0 -6.9375 -1.640625q-3.09375 -1.640625 -5.28125 -4.53125q-2.1875 -2.890625 -3.40625 -6.8125q-1.203125 -3.9375 -1.203125 -8.46875l0 -0.8125zm7.21875 0.8125q0 3.09375 0.65625 5.875q0.671875 2.765625 2.0625 4.875q1.390625 2.109375 3.53125 3.34375q2.15625 1.21875 5.15625 1.21875q1.84375 0 3.328125 -0.421875q1.484375 -0.4375 2.6875 -1.234375q1.21875 -0.796875 2.15625 -1.90625q0.9375 -1.125 1.640625 -2.484375l0 -19.609375q-1.40625 -2.578125 -3.796875 -4.234375q-2.375 -1.671875 -5.9375 -1.671875q-3.046875 0 -5.21875 1.25q-2.15625 1.25 -3.546875 3.390625q-1.390625 2.125 -2.0625 4.921875q-0.65625 2.78125 -0.65625 5.875l0 0.8125zm77.22656 26.578125l-35.8125 0l0 -5.90625l35.8125 0l0 5.90625z" fill-rule="nonzero"></path><path fill="#000000" fill-opacity="0.0" d="m253.04028 209.96118l706.96063 0l0 96.12598l-706.96063 0z" fill-rule="nonzero"></path><path fill="#6fa8dc" d="m485.81747 271.05792l5.5625 -0.875q0.46875 3.34375 2.609375 5.125q2.140625 1.78125 5.984375 1.78125q3.875 0 5.75 -1.578125q1.875 -1.578125 1.875 -3.703125q0 -1.90625 -1.65625 -3.0q-1.15625 -0.75 -5.75 -1.90625q-6.1875 -1.5625 -8.578125 -2.703125q-2.390625 -1.140625 -3.625 -3.15625q-1.234375 -2.015625 -1.234375 -4.453125q0 -2.21875 1.015625 -4.109375q1.015625 -1.890625 2.765625 -3.140625q1.3125 -0.96875 3.578125 -1.640625q2.265625 -0.671875 4.859375 -0.671875q3.90625 0 6.859375 1.125q2.953125 1.125 4.359375 3.046875q1.40625 1.921875 1.9375305 5.140625l-5.5000305 0.75q-0.375 -2.5625 -2.171875 -4.0q-1.796875 -1.4375 -5.078125 -1.4375q-3.875 0 -5.53125 1.28125q-1.65625 1.28125 -1.65625 3.0q0 1.09375 0.6875 1.96875q0.6875 0.90625 2.15625 1.5q0.84375 0.3125 4.96875 1.4375q5.96875 1.59375 8.328125 2.609375q2.359375 1.015625 3.7031555 2.953125q1.34375 1.9375 1.34375 4.8125q0 2.8125 -1.6406555 5.296875q-1.640625 2.484375 -4.734375 3.84375q-3.09375 1.359375 -7.0 1.359375q-6.46875 0 -9.859375 -2.6875q-3.390625 -2.6875 -4.328125 -7.96875zm46.53128 4.875l0.8125 4.96875q-2.375 0.5 -4.25 0.5q-3.0625 0 -4.75 -0.96875q-1.6875 -0.96875 -2.375 -2.546875q-0.6875 -1.578125 -0.6875 -6.640625l0 -19.09375l-4.125 0l0 -4.375l4.125 0l0 -8.21875l5.59375 -3.375l0 11.59375l5.65625 0l0 4.375l-5.65625 0l0 19.40625q0 2.40625 0.296875 3.09375q0.296875 0.6875 0.96875 1.09375q0.671875 0.40625 1.921875 0.40625q0.9375 0 2.46875 -0.21875zm5.4375 5.03125l0 -33.1875l5.0625 0l0 5.03125q1.9375 -3.53125 3.578125 -4.65625q1.640625 -1.125 3.609375 -1.125q2.84375 0 5.78125 1.8125l-1.9375 5.21875q-2.0625 -1.21875 -4.125 -1.21875q-1.84375 0 -3.3125 1.109375q-1.46875 1.109375 -2.09375 3.078125q-0.9375 3.0 -0.9375 6.5625l0 17.375l-5.625 0zm43.125 0l0 -4.875q-3.875 5.625 -10.53125 5.625q-2.9375 0 -5.484375 -1.125q-2.546875 -1.125 -3.78125 -2.828125q-1.234375 -1.703125 -1.734375 -4.171875q-0.34375 -1.65625 -0.34375 -5.25l0 -20.5625l5.625 0l0 18.40625q0 4.40625 0.34375 5.9375q0.53125 2.21875 2.25 3.484375q1.71875 1.265625 4.25 1.265625q2.53125 0 4.75 -1.296875q2.21875 -1.296875 3.140625 -3.53125q0.921875 -2.234375 0.921875 -6.484375l0 -17.78125l5.625 0l0 33.1875l-5.03125 0zm35.5 -12.15625l5.53125 0.71875q-0.90625 5.71875 -4.640625 8.953125q-3.734375 3.234375 -9.171875 3.234375q-6.8125 0 -10.953125 -4.453125q-4.140625 -4.453125 -4.140625 -12.765625q0 -5.375 1.78125 -9.40625q1.78125 -4.03125 5.421875 -6.046875q3.640625 -2.015625 7.921875 -2.015625q5.40625 0 8.84375 2.734375q3.4375 2.734375 4.40625 7.765625l-5.46875 0.84375q-0.78125 -3.34375 -2.765625 -5.03125q-1.984375 -1.6875 -4.796875 -1.6875q-4.25 0 -6.90625 3.046875q-2.65625 3.046875 -2.65625 9.640625q0 6.6875 2.5625 9.71875q2.5625 3.03125 6.6875 3.03125q3.3125 0 5.53125 -2.03125q2.21875 -2.03125 2.8125 -6.25zm22.625 7.125l0.8125 4.96875q-2.375 0.5 -4.25 0.5q-3.0625 0 -4.75 -0.96875q-1.6875 -0.96875 -2.375 -2.546875q-0.6875 -1.578125 -0.6875 -6.640625l0 -19.09375l-4.125 0l0 -4.375l4.125 0l0 -8.21875l5.59375 -3.375l0 11.59375l5.65625 0l0 4.375l-5.65625 0l0 19.40625q0 2.40625 0.296875 3.09375q0.296875 0.6875 0.96875 1.09375q0.671875 0.40625 1.921875 0.40625q0.9375 0 2.46875 -0.21875z" fill-rule="nonzero"></path><path fill="#f3f3f3" d="m660.0675 271.05792l5.5625 -0.875q0.46875 3.34375 2.609375 5.125q2.140625 1.78125 5.984375 1.78125q3.875 0 5.75 -1.578125q1.875 -1.578125 1.875 -3.703125q0 -1.90625 -1.65625 -3.0q-1.15625 -0.75 -5.75 -1.90625q-6.1875 -1.5625 -8.578125 -2.703125q-2.390625 -1.140625 -3.625 -3.15625q-1.234375 -2.015625 -1.234375 -4.453125q0 -2.21875 1.015625 -4.109375q1.015625 -1.890625 2.765625 -3.140625q1.3125 -0.96875 3.578125 -1.640625q2.265625 -0.671875 4.859375 -0.671875q3.90625 0 6.859375 1.125q2.953125 1.125 4.359375 3.046875q1.40625 1.921875 1.9375 5.140625l-5.5 0.75q-0.375 -2.5625 -2.171875 -4.0q-1.796875 -1.4375 -5.078125 -1.4375q-3.875 0 -5.53125 1.28125q-1.65625 1.28125 -1.65625 3.0q0 1.09375 0.6875 1.96875q0.6875 0.90625 2.15625 1.5q0.84375 0.3125 4.96875 1.4375q5.96875 1.59375 8.328125 2.609375q2.359375 1.015625 3.703125 2.953125q1.34375 1.9375 1.34375 4.8125q0 2.8125 -1.640625 5.296875q-1.640625 2.484375 -4.734375 3.84375q-3.09375 1.359375 -7.0 1.359375q-6.46875 0 -9.859375 -2.6875q-3.390625 -2.6875 -4.328125 -7.96875zm46.53125 4.875l0.8125 4.96875q-2.375 0.5 -4.25 0.5q-3.0625 0 -4.75 -0.96875q-1.6875 -0.96875 -2.375 -2.546875q-0.6875 -1.578125 -0.6875 -6.640625l0 -19.09375l-4.125 0l0 -4.375l4.125 0l0 -8.21875l5.59375 -3.375l0 11.59375l5.65625 0l0 4.375l-5.65625 0l0 19.40625q0 2.40625 0.296875 3.09375q0.296875 0.6875 0.96875 1.09375q0.671875 0.40625 1.921875 0.40625q0.9375 0 2.46875 -0.21875zm5.4375 5.03125l0 -33.1875l5.0625 0l0 5.03125q1.9375 -3.53125 3.578125 -4.65625q1.640625 -1.125 3.609375 -1.125q2.84375 0 5.78125 1.8125l-1.9375 5.21875q-2.0625 -1.21875 -4.125 -1.21875q-1.84375 0 -3.3125 1.109375q-1.46875 1.109375 -2.09375 3.078125q-0.9375 3.0 -0.9375 6.5625l0 17.375l-5.625 0z" fill-rule="nonzero"></path><path fill="#000000" fill-opacity="0.0" d="m-0.001312336 26.422573l150.67717 0l0 96.12598l-150.67717 0z" fill-rule="nonzero"></path><path fill="#6fa8dc" d="m42.040398 92.39431l0.8125 4.96875q-2.375 0.5 -4.25 0.5q-3.0625 0 -4.75 -0.96875q-1.6875 -0.96875 -2.375 -2.546875q-0.6875 -1.578125 -0.6875 -6.640625l0 -19.09375l-4.125 0l0 -4.375l4.125 0l0 -8.218746l5.59375 -3.375l0 11.593746l5.65625 0l0 4.375l-5.65625 0l0 19.40625q0 2.40625 0.296875 3.09375q0.296875 0.6875 0.96875 1.09375q0.671875 0.40625 1.921875 0.40625q0.9375 0 2.46875 -0.21875zm5.5 5.03125l0 -45.812496l5.625 0l0 16.437496q3.9375 -4.562496 9.9375 -4.562496q3.6875 0 6.40625 1.4531212q2.71875 1.453125 3.890625 4.015625q1.171875 2.5625 1.171875 7.4375l0 21.03125l-5.625 0l0 -21.03125q0 -4.21875 -1.828125 -6.140625q-1.828125 -1.921875 -5.171875 -1.921875q-2.5 0 -4.703125 1.296875q-2.203125 1.296875 -3.140625 3.515625q-0.9375 2.21875 -0.9375 6.125l0 18.15625l-5.625 0zm35.625 -39.343746l0 -6.46875l5.625 0l0 6.46875l-5.625 0zm0 39.343746l0 -33.1875l5.625 0l0 33.1875l-5.625 0zm11.9375 -9.90625l5.5625 -0.875q0.46875 3.34375 2.609375 5.125q2.140625 1.78125 5.984375 1.78125q3.875 0 5.75 -1.578125q1.875 -1.578125 1.875 -3.703125q0 -1.90625 -1.65625 -3.0q-1.15625 -0.75 -5.75 -1.90625q-6.1875 -1.5625 -8.578125 -2.703125q-2.390625 -1.140625 -3.625 -3.15625q-1.234375 -2.015625 -1.234375 -4.453125q0 -2.21875 1.015625 -4.109375q1.015625 -1.890625 2.765625 -3.140625q1.3125 -0.96875 3.578125 -1.640625q2.265625 -0.6718712 4.859375 -0.6718712q3.90625 0 6.859375 1.1249962q2.953125 1.125 4.359375 3.046875q1.40625 1.921875 1.9375 5.140625l-5.5 0.75q-0.375 -2.5625 -2.171875 -4.0q-1.796875 -1.4375 -5.078125 -1.4375q-3.875 0 -5.53125 1.28125q-1.65625 1.28125 -1.65625 3.0q0 1.09375 0.6875 1.96875q0.6875 0.90625 2.15625 1.5q0.84375 0.3125 4.96875 1.4375q5.96875 1.59375 8.328125 2.609375q2.359375 1.015625 3.703125 2.953125q1.34375 1.9375 1.34375 4.8125q0 2.8125 -1.640625 5.296875q-1.640625 2.484375 -4.734375 3.84375q-3.09375 1.359375 -7.0 1.359375q-6.46875 0 -9.859375 -2.6875q-3.390625 -2.6875 -4.328125 -7.96875z" fill-rule="nonzero"></path><path fill="#000000" fill-opacity="0.0" d="m150.67586 74.485565c51.165344 0 102.3307 115.79527 102.3307 231.59055" fill-rule="nonzero"></path><path stroke="#d9d9d9" stroke-width="12.0" stroke-linejoin="round" stroke-linecap="butt" d="m150.67586 74.485565c25.582672 0 51.165344 28.948814 70.352356 72.37204c9.593506 21.711624 17.588089 47.04184 23.184296 74.18135c2.798111 13.569763 4.996628 27.591843 6.4956207 41.840103c0.046829224 0.44525146 0.09298706 0.89071655 0.13847351 1.3363953l0.0791626 0.78829956" fill-rule="evenodd"></path><path fill="#d9d9d9" stroke="#d9d9d9" stroke-width="12.0" stroke-linecap="butt" d="m250.92577 265.00375l-14.160522 -12.794922l15.353714 36.346924l11.601715 -37.712524z" fill-rule="evenodd"></path></g></svg>

