<?xml version="1.0" standalone="yes"?>

<svg version="1.1" viewBox="0.0 0.0 961.3753280839895 964.7900262467192" fill="none" stroke="none" stroke-linecap="square" stroke-miterlimit="10" xmlns="http://www.w3.org/2000/svg" xmlns:xlink="http://www.w3.org/1999/xlink"><clipPath id="p.0"><path d="m0 0l961.3753 0l0 964.79004l-961.3753 0l0 -964.79004z" clip-rule="nonzero"></path></clipPath><g clip-path="url(#p.0)"><path fill="#000000" fill-opacity="0.0" d="m0 0l961.3753 0l0 964.79004l-961.3753 0z" fill-rule="nonzero"></path><path fill="#000000" fill-opacity="0.0" d="m253.04028 201.96118l706.96063 0l0 96.12598l-706.96063 0z" fill-rule="nonzero"></path><path fill="#6fa8dc" d="m451.97372 263.05792l5.5625 -0.875q0.46875 3.34375 2.609375 5.125q2.140625 1.78125 5.984375 1.78125q3.875 0 5.75 -1.578125q1.875 -1.578125 1.875 -3.703125q0 -1.90625 -1.65625 -3.0q-1.15625 -0.75 -5.75 -1.90625q-6.1875 -1.5625 -8.578125 -2.703125q-2.390625 -1.140625 -3.625 -3.15625q-1.234375 -2.015625 -1.234375 -4.453125q0 -2.21875 1.015625 -4.109375q1.015625 -1.890625 2.765625 -3.140625q1.3125 -0.96875 3.578125 -1.640625q2.265625 -0.671875 4.859375 -0.671875q3.90625 0 6.859375 1.125q2.953125 1.125 4.359375 3.046875q1.40625 1.921875 1.9375 5.140625l-5.5 0.75q-0.375 -2.5625 -2.171875 -4.0q-1.796875 -1.4375 -5.078125 -1.4375q-3.875 0 -5.53125 1.28125q-1.65625 1.28125 -1.65625 3.0q0 1.09375 0.6875 1.96875q0.6875 0.90625 2.15625 1.5q0.84375 0.3125 4.96875 1.4375q5.96875 1.59375 8.328125 2.609375q2.359375 1.015625 3.703125 2.953125q1.34375 1.9375 1.34375 4.8125q0 2.8125 -1.640625 5.296875q-1.640625 2.484375 -4.734375 3.84375q-3.09375 1.359375 -7.0 1.359375q-6.46875 0 -9.859375 -2.6875q-3.390625 -2.6875 -4.328125 -7.96875zm46.53125 4.875l0.8125 4.96875q-2.375 0.5 -4.25 0.5q-3.0625 0 -4.75 -0.96875q-1.6875 -0.96875 -2.375 -2.546875q-0.6875 -1.578125 -0.6875 -6.640625l0 -19.09375l-4.125 0l0 -4.375l4.125 0l0 -8.21875l5.59375 -3.375l0 11.59375l5.65625 0l0 4.375l-5.65625 0l0 19.40625q0 2.40625 0.296875 3.09375q0.296875 0.6875 0.96875 1.09375q0.671875 0.40625 1.921875 0.40625q0.9375 0 2.46875 -0.21875zm5.4375 5.03125l0 -33.1875l5.0625 0l0 5.03125q1.9375 -3.53125 3.5781555 -4.65625q1.640625 -1.125 3.609375 -1.125q2.84375 0 5.78125 1.8125l-1.9375 5.21875q-2.0625 -1.21875 -4.125 -1.21875q-1.84375 0 -3.3125 1.109375q-1.4687805 1.109375 -2.0937805 3.078125q-0.9375 3.0 -0.9375 6.5625l0 17.375l-5.625 0zm43.12503 0l0 -4.875q-3.875 5.625 -10.53125 5.625q-2.9375 0 -5.484375 -1.125q-2.546875 -1.125 -3.78125 -2.828125q-1.234375 -1.703125 -1.734375 -4.171875q-0.34375 -1.65625 -0.34375 -5.25l0 -20.5625l5.625 0l0 18.40625q0 4.40625 0.34375 5.9375q0.53125 2.21875 2.25 3.484375q1.71875 1.265625 4.25 1.265625q2.53125 0 4.75 -1.296875q2.21875 -1.296875 3.140625 -3.53125q0.921875 -2.234375 0.921875 -6.484375l0 -17.78125l5.625 0l0 33.1875l-5.03125 0zm35.5 -12.15625l5.53125 0.71875q-0.90625 5.71875 -4.640625 8.953125q-3.734375 3.234375 -9.171875 3.234375q-6.8125 0 -10.953125 -4.453125q-4.140625 -4.453125 -4.140625 -12.765625q0 -5.375 1.78125 -9.40625q1.78125 -4.03125 5.421875 -6.046875q3.640625 -2.015625 7.921875 -2.015625q5.40625 0 8.84375 2.734375q3.4375 2.734375 4.40625 7.765625l-5.46875 0.84375q-0.78125 -3.34375 -2.765625 -5.03125q-1.984375 -1.6875 -4.796875 -1.6875q-4.25 0 -6.90625 3.046875q-2.65625 3.046875 -2.65625 9.640625q0 6.6875 2.5625 9.71875q2.5625 3.03125 6.6875 3.03125q3.3125 0 5.53125 -2.03125q2.21875 -2.03125 2.8125 -6.25zm22.625 7.125l0.8125 4.96875q-2.375 0.5 -4.25 0.5q-3.0625 0 -4.75 -0.96875q-1.6875 -0.96875 -2.375 -2.546875q-0.6875 -1.578125 -0.6875 -6.640625l0 -19.09375l-4.125 0l0 -4.375l4.125 0l0 -8.21875l5.59375 -3.375l0 11.59375l5.65625 0l0 4.375l-5.65625 0l0 19.40625q0 2.40625 0.296875 3.09375q0.296875 0.6875 0.96875 1.09375q0.671875 0.40625 1.921875 0.40625q0.9375 0 2.46875 -0.21875z" fill-rule="nonzero"></path><path fill="#f3f3f3" d="m633.66125 272.96417l-5.21875 0l0 -45.8125l5.625 0l0 16.34375q3.5625 -4.46875 9.09375 -4.46875q3.0625 0 5.796875 1.234375q2.734375 1.234375 4.5 3.46875q1.765625 2.234375 2.765625 5.390625q1.0 3.15625 1.0 6.75q0 8.53125 -4.21875 13.1875q-4.21875 4.65625 -10.125 4.65625q-5.875 0 -9.21875 -4.90625l0 4.15625zm-0.0625 -16.84375q0 5.96875 1.625 8.625q2.65625 4.34375 7.1875 4.34375q3.6875 0 6.375 -3.203125q2.6875 -3.203125 2.6875 -9.546875q0 -6.5 -2.578125 -9.59375q-2.578125 -3.09375 -6.234375 -3.09375q-3.6875 0 -6.375 3.203125q-2.6875 3.203125 -2.6875 9.265625zm52.125 12.75q-3.125 2.65625 -6.015625 3.75q-2.890625 1.09375 -6.203125 1.09375q-5.46875 0 -8.40625 -2.671875q-2.9375 -2.671875 -2.9375 -6.828125q0 -2.4375 1.109375 -4.453125q1.109375 -2.015625 2.90625 -3.234375q1.796875 -1.21875 4.046875 -1.84375q1.65625 -0.4375 5.0 -0.84375q6.8125 -0.8125 10.03125 -1.9375q0.03125 -1.15625 0.03125 -1.46875q0 -3.4375 -1.59375 -4.84375q-2.15625 -1.90625 -6.40625 -1.90625q-3.96875 0 -5.859375 1.390625q-1.890625 1.390625 -2.796875 4.921875l-5.5 -0.75q0.75 -3.53125 2.46875 -5.703125q1.71875 -2.171875 4.96875 -3.34375q3.25 -1.171875 7.53125 -1.171875q4.25 0 6.90625 1.0q2.65625 1.0 3.90625 2.515625q1.25 1.515625 1.75 3.828125q0.28125 1.4375 0.28125 5.1875l0 7.5q0 7.84375 0.359375 9.921875q0.359375 2.078125 1.421875 3.984375l-5.875 0q-0.875 -1.75 -1.125 -4.09375zm-0.46875 -12.5625q-3.0625 1.25 -9.1875 2.125q-3.46875 0.5 -4.90625 1.125q-1.4375 0.625 -2.21875 1.828125q-0.78125 1.203125 -0.78125 2.671875q0 2.25 1.703125 3.75q1.703125 1.5 4.984375 1.5q3.25 0 5.78125 -1.421875q2.53125 -1.421875 3.71875 -3.890625q0.90625 -1.90625 0.90625 -5.625l0 -2.0625zm12.15625 6.75l5.5625 -0.875q0.46875 3.34375 2.609375 5.125q2.140625 1.78125 5.984375 1.78125q3.875 0 5.75 -1.578125q1.875 -1.578125 1.875 -3.703125q0 -1.90625 -1.65625 -3.0q-1.15625 -0.75 -5.75 -1.90625q-6.1875 -1.5625 -8.578125 -2.703125q-2.390625 -1.140625 -3.625 -3.15625q-1.234375 -2.015625 -1.234375 -4.453125q0 -2.21875 1.015625 -4.109375q1.015625 -1.890625 2.765625 -3.140625q1.3125 -0.96875 3.578125 -1.640625q2.265625 -0.671875 4.859375 -0.671875q3.90625 0 6.859375 1.125q2.953125 1.125 4.359375 3.046875q1.40625 1.921875 1.9375 5.140625l-5.5 0.75q-0.375 -2.5625 -2.171875 -4.0q-1.796875 -1.4375 -5.078125 -1.4375q-3.875 0 -5.53125 1.28125q-1.65625 1.28125 -1.65625 3.0q0 1.09375 0.6875 1.96875q0.6875 0.90625 2.15625 1.5q0.84375 0.3125 4.96875 1.4375q5.96875 1.59375 8.328125 2.609375q2.359375 1.015625 3.703125 2.953125q1.34375 1.9375 1.34375 4.8125q0 2.8125 -1.640625 5.296875q-1.640625 2.484375 -4.734375 3.84375q-3.09375 1.359375 -7.0 1.359375q-6.46875 0 -9.859375 -2.6875q-3.390625 -2.6875 -4.328125 -7.96875zm56.96875 -0.78125l5.8125 0.71875q-1.375 5.09375 -5.09375 7.90625q-3.71875 2.8125 -9.5 2.8125q-7.28125 0 -11.546875 -4.484375q-4.265625 -4.484375 -4.265625 -12.578125q0 -8.375 4.3125 -13.0q4.3125 -4.625 11.1875 -4.625q6.65625 0 10.875 4.53125q4.21875 4.53125 4.21875 12.75q0 0.5 -0.03125 1.5l-24.75 0q0.3125 5.46875 3.09375 8.375q2.78125 2.90625 6.9375 2.90625q3.09375 0 5.28125 -1.625q2.1875 -1.625 3.46875 -5.1875zm-18.46875 -9.09375l18.53125 0q-0.375 -4.1875 -2.125 -6.28125q-2.6875 -3.25 -6.96875 -3.25q-3.875 0 -6.515625 2.59375q-2.640625 2.59375 -2.921875 6.9375z" fill-rule="nonzero"></path><path fill="#000000" fill-opacity="0.0" d="m0 0l150.67717 0l0 70.362206l-150.67717 0z" fill-rule="nonzero"></path><path fill="#6fa8dc" d="m42.04171 53.08985l0.8125 4.96875q-2.375 0.5 -4.25 0.5q-3.0625 0 -4.75 -0.96875q-1.6875 -0.96875 -2.375 -2.546875q-0.6875 -1.578125 -0.6875 -6.640625l0 -19.09375l-4.125 0l0 -4.375l4.125 0l0 -8.21875l5.59375 -3.375l0 11.59375l5.65625 0l0 4.375l-5.65625 0l0 19.40625q0 2.40625 0.296875 3.09375q0.296875 0.6875 0.96875 1.09375q0.671875 0.40625 1.921875 0.40625q0.9375 0 2.46875 -0.21875zm5.5 5.03125l0 -45.8125l5.625 0l0 16.4375q3.9375 -4.5625 9.9375 -4.5625q3.6875 0 6.40625 1.453125q2.71875 1.453125 3.890625 4.015625q1.171875 2.5625 1.171875 7.4375l0 21.03125l-5.625 0l0 -21.03125q0 -4.21875 -1.828125 -6.140625q-1.828125 -1.921875 -5.171875 -1.921875q-2.5 0 -4.703125 1.296875q-2.203125 1.296875 -3.140625 3.515625q-0.9375 2.21875 -0.9375 6.125l0 18.15625l-5.625 0zm35.625 -39.34375l0 -6.46875l5.625 0l0 6.46875l-5.625 0zm0 39.34375l0 -33.1875l5.625 0l0 33.1875l-5.625 0zm11.9375 -9.90625l5.5625 -0.875q0.46875 3.34375 2.609375 5.125q2.140625 1.78125 5.984375 1.78125q3.875 0 5.75 -1.578125q1.875 -1.578125 1.875 -3.703125q0 -1.90625 -1.65625 -3.0q-1.15625 -0.75 -5.75 -1.90625q-6.1875 -1.5625 -8.578125 -2.703125q-2.390625 -1.140625 -3.625 -3.15625q-1.234375 -2.015625 -1.234375 -4.453125q0 -2.21875 1.015625 -4.109375q1.015625 -1.890625 2.765625 -3.140625q1.3125 -0.96875 3.578125 -1.640625q2.265625 -0.671875 4.859375 -0.671875q3.90625 0 6.859375 1.125q2.953125 1.125 4.359375 3.046875q1.40625 1.921875 1.9375 5.140625l-5.5 0.75q-0.375 -2.5625 -2.171875 -4.0q-1.796875 -1.4375 -5.078125 -1.4375q-3.875 0 -5.53125 1.28125q-1.65625 1.28125 -1.65625 3.0q0 1.09375 0.6875 1.96875q0.6875 0.90625 2.15625 1.5q0.84375 0.3125 4.96875 1.4375q5.96875 1.59375 8.328125 2.609375q2.359375 1.015625 3.703125 2.953125q1.34375 1.9375 1.34375 4.8125q0 2.8125 -1.640625 5.296875q-1.640625 2.484375 -4.734375 3.84375q-3.09375 1.359375 -7.0 1.359375q-6.46875 0 -9.859375 -2.6875q-3.390625 -2.6875 -4.328125 -7.96875z" fill-rule="nonzero"></path><path fill="#000000" fill-opacity="0.0" d="m150.67717 35.181103c52.89763 0 105.79527 93.30708 105.79527 186.61417" fill-rule="nonzero"></path><path stroke="#d9d9d9" stroke-width="12.0" stroke-linejoin="round" stroke-linecap="butt" d="m150.67717 35.181103c26.448822 0 52.89763 23.32677 72.73425 58.31693c9.918304 17.495079 18.183563 37.906006 23.969238 59.774857c1.4464111 5.467209 2.737854 11.025543 3.8614197 16.652222c0.56178284 2.813324 1.0815887 5.643753 1.5578156 8.488403c0.11904907 0.7111511 0.23536682 1.4232178 0.3489685 2.1361237l0.039627075 0.25193787" fill-rule="evenodd"></path><path fill="#d9d9d9" stroke="#d9d9d9" stroke-width="12.0" stroke-linecap="butt" d="m253.18849 180.80156l-14.529526 -12.374283l16.412628 35.881195l10.49118 -38.036438z" fill-rule="evenodd"></path><path fill="#b45f06" d="m253.03937 470.27036l706.96063 0l0 246.61417l-706.96063 0z" fill-rule="nonzero"></path><path stroke="#f3f3f3" stroke-width="1.0" stroke-linejoin="round" stroke-linecap="butt" d="m253.03937 470.27036l706.96063 0l0 246.61417l-706.96063 0z" fill-rule="nonzero"></path><path fill="#000000" d="m456.05093 670.37744l0 -36.6875l-11.640625 0l0 -5.578125l11.640625 0l0 -2.96875q0 -4.0625 1.1875 -7.125q1.203125 -3.078125 3.359375 -5.140625q2.171875 -2.078125 5.21875 -3.125q3.046875 -1.0625 6.796875 -1.0625q2.578125 0 5.015625 0.4375q2.453125 0.421875 5.03125 1.09375l-0.859375 5.96875q-1.609375 -0.546875 -3.734375 -0.953125q-2.125 -0.40625 -4.546875 -0.40625q-5.078125 0.03125 -7.640625 2.578125q-2.5625 2.53125 -2.5625 7.734375l0 2.96875l16.296875 0l0 5.578125l-16.296875 0l0 36.6875l-7.265625 0zm38.40625 -42.265625l21.59378 0l0 36.015625l13.796875 0l0 6.25l-35.390656 0l0 -6.25l14.375 0l0 -29.734375l-14.375 0l0 -6.28125zm13.4375 -11.09375q0 -1.796875 1.0625 -3.03125q1.078125 -1.234375 3.2656555 -1.234375q2.15625 0 3.25 1.234375q1.09375 1.234375 1.09375 3.03125q0 1.75 -1.09375 2.921875q-1.09375 1.171875 -3.25 1.171875q-2.1875305 0 -3.2656555 -1.171875q-1.0625 -1.171875 -1.0625 -2.921875zm52.101593 54.140625q-4.453125 0 -8.1875 -1.515625q-3.71875 -1.53125 -6.375 -4.265625q-2.65625 -2.734375 -4.140625 -6.484375q-1.484375 -3.75 -1.484375 -8.171875l0 -1.640625q0 -5.109375 1.640625 -9.15625q1.640625 -4.046875 4.34375 -6.828125q2.71875 -2.796875 6.171875 -4.28125q3.46875 -1.484375 7.09375 -1.484375q4.578125 0 7.984375 1.578125q3.421875 1.578125 5.6875 4.375q2.265625 2.796875 3.375 6.59375q1.125 3.78125 1.125 8.1875l0 3.25l-30.203125 0q0.125 2.890625 1.109375 5.4375q1.0 2.53125 2.734375 4.421875q1.75 1.890625 4.171875 2.984375q2.421875 1.09375 5.34375 1.09375q3.875 0 6.875 -1.5625q3.015625 -1.5625 5.0 -4.140625l4.421875 3.4375q-1.0625 1.609375 -2.640625 3.078125q-1.578125 1.453125 -3.65625 2.59375q-2.0625 1.125 -4.6875 1.8125q-2.609375 0.6875 -5.703125 0.6875zm-0.9375 -37.890625q-2.1875 0 -4.140625 0.796875q-1.953125 0.796875 -3.515625 2.34375q-1.5625 1.546875 -2.640625 3.796875q-1.0625 2.234375 -1.5 5.171875l22.734375 0l0 -0.546875q-0.109375 -2.109375 -0.796875 -4.171875q-0.6875 -2.078125 -2.015625 -3.71875q-1.328125 -1.640625 -3.34375 -2.65625q-2.0 -1.015625 -4.78125 -1.015625zm31.414062 -22.890625l21.59375 0l0 53.75l13.796875 0l0 6.25l-35.390625 0l0 -6.25l14.375 0l0 -47.46875l-14.375 0l0 -6.28125zm45.507812 38.515625q0 -4.734375 1.1875 -8.6875q1.1875 -3.96875 3.390625 -6.8125q2.21875 -2.859375 5.34375 -4.453125q3.125 -1.609375 6.984375 -1.609375q3.796875 0 6.625 1.265625q2.828125 1.265625 4.90625 3.6875l0 -21.90625l7.21875 0l0 60.0l-6.640625 0l-0.3125 -4.453125q-2.109375 2.578125 -5.046875 3.90625q-2.921875 1.328125 -6.828125 1.328125q-3.828125 0 -6.9375 -1.640625q-3.09375 -1.640625 -5.28125 -4.53125q-2.1875 -2.890625 -3.40625 -6.8125q-1.203125 -3.9375 -1.203125 -8.46875l0 -0.8125zm7.21875 0.8125q0 3.09375 0.65625 5.875q0.671875 2.765625 2.0625 4.875q1.390625 2.109375 3.53125 3.34375q2.15625 1.21875 5.15625 1.21875q1.84375 0 3.328125 -0.421875q1.484375 -0.4375 2.6875 -1.234375q1.21875 -0.796875 2.15625 -1.90625q0.9375 -1.125 1.640625 -2.484375l0 -19.609375q-1.40625 -2.578125 -3.796875 -4.234375q-2.375 -1.671875 -5.9375 -1.671875q-3.046875 0 -5.21875 1.25q-2.15625 1.25 -3.546875 3.390625q-1.390625 2.125 -2.0625 4.921875q-0.65625 2.78125 -0.65625 5.875l0 0.8125zm77.03906 20.671875l-37.265625 0l0 -5.203125l18.625 -20.703125q2.5 -2.765625 4.171875 -4.90625q1.6875 -2.15625 2.703125 -3.96875q1.015625 -1.828125 1.4375 -3.4375q0.4375 -1.625 0.4375 -3.34375q0 -2.109375 -0.6875 -3.96875q-0.671875 -1.859375 -1.984375 -3.21875q-1.3125 -1.375 -3.171875 -2.171875q-1.84375 -0.796875 -4.1875 -0.796875q-2.859375 0 -4.953125 0.828125q-2.078125 0.8125 -3.46875 2.3125q-1.390625 1.5 -2.078125 3.65625q-0.671875 2.140625 -0.671875 4.796875l-7.265625 0q0 -3.59375 1.25 -6.765625q1.25 -3.1875 3.609375 -5.5625q2.359375 -2.390625 5.78125 -3.796875q3.421875 -1.40625 7.796875 -1.40625q4.015625 0 7.234375 1.1875q3.234375 1.1875 5.453125 3.296875q2.234375 2.109375 3.421875 5.0q1.1875 2.890625 1.1875 6.296875q0 2.53125 -0.859375 5.015625q-0.859375 2.484375 -2.328125 4.90625q-1.453125 2.421875 -3.390625 4.78125q-1.9375 2.359375 -4.078125 4.703125l-15.28125 16.5625l28.5625 0l0 5.90625zm48.195312 5.90625l-35.8125 0l0 -5.90625l35.8125 0l0 5.90625z" fill-rule="nonzero"></path><path fill="#000000" fill-opacity="0.0" d="m253.04028 127.53073l706.96063 0l0 96.12598l-706.96063 0z" fill-rule="nonzero"></path><path fill="#6fa8dc" d="m416.41122 188.62747l5.5625 -0.875q0.46875 3.34375 2.609375 5.125q2.140625 1.78125 5.984375 1.78125q3.875 0 5.75 -1.578125q1.875 -1.578125 1.875 -3.703125q0 -1.90625 -1.65625 -3.0q-1.15625 -0.75 -5.75 -1.90625q-6.1875 -1.5625 -8.578125 -2.703125q-2.390625 -1.140625 -3.625 -3.15625q-1.234375 -2.015625 -1.234375 -4.453125q0 -2.21875 1.015625 -4.109375q1.015625 -1.890625 2.765625 -3.140625q1.3125 -0.96875 3.578125 -1.640625q2.265625 -0.671875 4.859375 -0.671875q3.90625 0 6.859375 1.125q2.953125 1.125 4.359375 3.046875q1.40625 1.921875 1.9375 5.140625l-5.5 0.75q-0.375 -2.5625 -2.171875 -4.0q-1.796875 -1.4375 -5.078125 -1.4375q-3.875 0 -5.53125 1.28125q-1.65625 1.28125 -1.65625 3.0q0 1.09375 0.6875 1.96875q0.6875 0.90625 2.15625 1.5q0.84375 0.3125 4.96875 1.4375q5.96875 1.59375 8.328125 2.609375q2.359375 1.015625 3.703125 2.953125q1.34375 1.9375 1.34375 4.8125q0 2.8125 -1.640625 5.296875q-1.640625 2.484375 -4.734375 3.84375q-3.09375 1.359375 -7.0 1.359375q-6.46875 0 -9.859375 -2.6875q-3.390625 -2.6875 -4.328125 -7.96875zm46.53125 4.875l0.8125 4.96875q-2.375 0.5 -4.25 0.5q-3.0625 0 -4.75 -0.96875q-1.6875 -0.96875 -2.375 -2.546875q-0.6875 -1.578125 -0.6875 -6.640625l0 -19.09375l-4.125 0l0 -4.375l4.125 0l0 -8.21875l5.59375 -3.375l0 11.59375l5.65625 0l0 4.375l-5.65625 0l0 19.40625q0 2.40625 0.296875 3.09375q0.296875 0.6875 0.96875 1.09375q0.671875 0.40625 1.921875 0.40625q0.9375 0 2.46875 -0.21875zm5.4375 5.03125l0 -33.1875l5.0625 0l0 5.03125q1.9375 -3.53125 3.578125 -4.65625q1.640625 -1.125 3.609375 -1.125q2.84375 0 5.78125 1.8125l-1.9375 5.21875q-2.0625 -1.21875 -4.125 -1.21875q-1.84375 0 -3.3125 1.109375q-1.46875 1.109375 -2.09375 3.078125q-0.9375 3.0 -0.9375 6.5625l0 17.375l-5.625 0zm43.125 0l0 -4.875q-3.875 5.625 -10.53125 5.625q-2.9375 0 -5.484375 -1.125q-2.546875 -1.125 -3.78125 -2.828125q-1.234375 -1.703125 -1.734375 -4.171875q-0.34375 -1.65625 -0.34375 -5.25l0 -20.5625l5.625 0l0 18.40625q0 4.40625 0.34375 5.9375q0.53125 2.21875 2.25 3.484375q1.71875 1.265625 4.25 1.265625q2.53125 0 4.75 -1.296875q2.21875 -1.296875 3.140625 -3.53125q0.921875 -2.234375 0.921875 -6.484375l0 -17.78125l5.6250305 0l0 33.1875l-5.0312805 0zm35.50003 -12.15625l5.53125 0.71875q-0.90625 5.71875 -4.640625 8.953125q-3.734375 3.234375 -9.171875 3.234375q-6.8125 0 -10.953125 -4.453125q-4.140625 -4.453125 -4.140625 -12.765625q0 -5.375 1.78125 -9.40625q1.78125 -4.03125 5.421875 -6.046875q3.640625 -2.015625 7.921875 -2.015625q5.40625 0 8.84375 2.734375q3.4375 2.734375 4.40625 7.765625l-5.46875 0.84375q-0.78125 -3.34375 -2.765625 -5.03125q-1.984375 -1.6875 -4.796875 -1.6875q-4.25 0 -6.90625 3.046875q-2.65625 3.046875 -2.65625 9.640625q0 6.6875 2.5625 9.71875q2.5625 3.03125 6.6875 3.03125q3.3125 0 5.53125 -2.03125q2.21875 -2.03125 2.8125 -6.25zm22.625 7.125l0.8125 4.96875q-2.375 0.5 -4.25 0.5q-3.0625 0 -4.75 -0.96875q-1.6875 -0.96875 -2.375 -2.546875q-0.6875 -1.578125 -0.6875 -6.640625l0 -19.09375l-4.125 0l0 -4.375l4.125 0l0 -8.21875l5.59375 -3.375l0 11.59375l5.65625 0l0 4.375l-5.65625 0l0 19.40625q0 2.40625 0.296875 3.09375q0.296875 0.6875 0.96875 1.09375q0.671875 0.40625 1.921875 0.40625q0.9375 0 2.46875 -0.21875z" fill-rule="nonzero"></path><path fill="#f3f3f3" d="m614.4425 198.53372l0 -4.1875q-3.15625 4.9375 -9.28125 4.9375q-3.96875 0 -7.296875 -2.1875q-3.328125 -2.1875 -5.15625 -6.109375q-1.828125 -3.921875 -1.828125 -9.015625q0 -4.96875 1.65625 -9.015625q1.65625 -4.046875 4.96875 -6.203125q3.3125 -2.15625 7.40625 -2.15625q3.0 0 5.34375 1.265625q2.34375 1.265625 3.8125 3.296875l0 -16.4375l5.59375 0l0 45.8125l-5.21875 0zm-17.78125 -16.5625q0 6.375 2.6875 9.53125q2.6875 3.15625 6.34375 3.15625q3.6875 0 6.265625 -3.015625q2.578125 -3.015625 2.578125 -9.203125q0 -6.8125 -2.625 -10.0q-2.625 -3.1875 -6.46875 -3.1875q-3.75 0 -6.265625 3.0625q-2.515625 3.0625 -2.515625 9.65625zm54.5625 5.875l5.8125 0.71875q-1.375 5.09375 -5.09375 7.90625q-3.71875 2.8125 -9.5 2.8125q-7.28125 0 -11.546875 -4.484375q-4.265625 -4.484375 -4.265625 -12.578125q0 -8.375 4.3125 -13.0q4.3125 -4.625 11.1875 -4.625q6.65625 0 10.875 4.53125q4.21875 4.53125 4.21875 12.75q0 0.5 -0.03125 1.5l-24.75 0q0.3125 5.46875 3.09375 8.375q2.78125 2.90625 6.9375 2.90625q3.09375 0 5.28125 -1.625q2.1875 -1.625 3.46875 -5.1875zm-18.46875 -9.09375l18.53125 0q-0.375 -4.1875 -2.125 -6.28125q-2.6875 -3.25 -6.96875 -3.25q-3.875 0 -6.515625 2.59375q-2.640625 2.59375 -2.921875 6.9375zm31.28125 19.78125l0 -33.1875l5.0625 0l0 5.03125q1.9375 -3.53125 3.578125 -4.65625q1.640625 -1.125 3.609375 -1.125q2.84375 0 5.78125 1.8125l-1.9375 5.21875q-2.0625 -1.21875 -4.125 -1.21875q-1.84375 0 -3.3125 1.109375q-1.46875 1.109375 -2.09375 3.078125q-0.9375 3.0 -0.9375 6.5625l0 17.375l-5.625 0zm21.40625 -39.34375l0 -6.46875l5.625 0l0 6.46875l-5.625 0zm0 39.34375l0 -33.1875l5.625 0l0 33.1875l-5.625 0zm23.40625 0l-12.625 -33.1875l5.9375 0l7.125 19.875q1.15625 3.21875 2.125 6.6875q0.75 -2.625 2.09375 -6.3125l7.375 -20.25l5.78125 0l-12.5625 33.1875l-5.25 0zm45.5 -10.6875l5.8125 0.71875q-1.375 5.09375 -5.09375 7.90625q-3.71875 2.8125 -9.5 2.8125q-7.28125 0 -11.546875 -4.484375q-4.265625 -4.484375 -4.265625 -12.578125q0 -8.375 4.3125 -13.0q4.3125 -4.625 11.1875 -4.625q6.65625 0 10.875 4.53125q4.21875 4.53125 4.21875 12.75q0 0.5 -0.03125 1.5l-24.75 0q0.3125 5.46875 3.09375 8.375q2.78125 2.90625 6.9375 2.90625q3.09375 0 5.28125 -1.625q2.1875 -1.625 3.46875 -5.1875zm-18.46875 -9.09375l18.53125 0q-0.375 -4.1875 -2.125 -6.28125q-2.6875 -3.25 -6.96875 -3.25q-3.875 0 -6.515625 2.59375q-2.640625 2.59375 -2.921875 6.9375zm52.875 19.78125l0 -4.1875q-3.15625 4.9375 -9.28125 4.9375q-3.96875 0 -7.296875 -2.1875q-3.328125 -2.1875 -5.15625 -6.109375q-1.828125 -3.921875 -1.828125 -9.015625q0 -4.96875 1.65625 -9.015625q1.65625 -4.046875 4.96875 -6.203125q3.3125 -2.15625 7.40625 -2.15625q3.0 0 5.34375 1.265625q2.34375 1.265625 3.8125 3.296875l0 -16.4375l5.59375 0l0 45.8125l-5.21875 0zm-17.78125 -16.5625q0 6.375 2.6875 9.53125q2.6875 3.15625 6.34375 3.15625q3.6875 0 6.265625 -3.015625q2.578125 -3.015625 2.578125 -9.203125q0 -6.8125 -2.625 -10.0q-2.625 -3.1875 -6.46875 -3.1875q-3.75 0 -6.265625 3.0625q-2.515625 3.0625 -2.515625 9.65625z" fill-rule="nonzero"></path><path fill="#666666" d="m253.03937 223.65617l706.96063 0l0 246.61418l-706.96063 0z" fill-rule="nonzero"></path><path stroke="#f3f3f3" stroke-width="1.0" stroke-linejoin="round" stroke-linecap="butt" d="m253.03937 223.65617l706.96063 0l0 246.61418l-706.96063 0z" fill-rule="nonzero"></path><path fill="#000000" d="m456.05093 423.76324l0 -36.6875l-11.640625 0l0 -5.578125l11.640625 0l0 -2.96875q0 -4.0625 1.1875 -7.125q1.203125 -3.078125 3.359375 -5.140625q2.171875 -2.078125 5.21875 -3.125q3.046875 -1.0625 6.796875 -1.0625q2.578125 0 5.015625 0.4375q2.453125 0.421875 5.03125 1.09375l-0.859375 5.96875q-1.609375 -0.546875 -3.734375 -0.953125q-2.125 -0.40625 -4.546875 -0.40625q-5.078125 0.03125 -7.640625 2.578125q-2.5625 2.53125 -2.5625 7.734375l0 2.96875l16.296875 0l0 5.578125l-16.296875 0l0 36.6875l-7.265625 0zm38.40625 -42.265625l21.59378 0l0 36.015625l13.796875 0l0 6.25l-35.390656 0l0 -6.25l14.375 0l0 -29.734375l-14.375 0l0 -6.28125zm13.4375 -11.09375q0 -1.796875 1.0625 -3.03125q1.078125 -1.234375 3.2656555 -1.234375q2.15625 0 3.25 1.234375q1.09375 1.234375 1.09375 3.03125q0 1.75 -1.09375 2.921875q-1.09375 1.171875 -3.25 1.171875q-2.1875305 0 -3.2656555 -1.171875q-1.0625 -1.171875 -1.0625 -2.921875zm52.101593 54.140625q-4.453125 0 -8.1875 -1.515625q-3.71875 -1.53125 -6.375 -4.265625q-2.65625 -2.734375 -4.140625 -6.484375q-1.484375 -3.75 -1.484375 -8.171875l0 -1.640625q0 -5.109375 1.640625 -9.15625q1.640625 -4.046875 4.34375 -6.828125q2.71875 -2.796875 6.171875 -4.28125q3.46875 -1.484375 7.09375 -1.484375q4.578125 0 7.984375 1.578125q3.421875 1.578125 5.6875 4.375q2.265625 2.796875 3.375 6.59375q1.125 3.78125 1.125 8.1875l0 3.25l-30.203125 0q0.125 2.890625 1.109375 5.4375q1.0 2.53125 2.734375 4.421875q1.75 1.890625 4.171875 2.984375q2.421875 1.09375 5.34375 1.09375q3.875 0 6.875 -1.5625q3.015625 -1.5625 5.0 -4.140625l4.421875 3.4375q-1.0625 1.609375 -2.640625 3.078125q-1.578125 1.453125 -3.65625 2.59375q-2.0625 1.125 -4.6875 1.8125q-2.609375 0.6875 -5.703125 0.6875zm-0.9375 -37.890625q-2.1875 0 -4.140625 0.796875q-1.953125 0.796875 -3.515625 2.34375q-1.5625 1.546875 -2.640625 3.796875q-1.0625 2.234375 -1.5 5.171875l22.734375 0l0 -0.546875q-0.109375 -2.109375 -0.796875 -4.171875q-0.6875 -2.078125 -2.015625 -3.71875q-1.328125 -1.640625 -3.34375 -2.65625q-2.0 -1.015625 -4.78125 -1.015625zm31.414062 -22.890625l21.59375 0l0 53.75l13.796875 0l0 6.25l-35.390625 0l0 -6.25l14.375 0l0 -47.46875l-14.375 0l0 -6.28125zm45.507812 38.515625q0 -4.734375 1.1875 -8.6875q1.1875 -3.96875 3.390625 -6.8125q2.21875 -2.859375 5.34375 -4.453125q3.125 -1.609375 6.984375 -1.609375q3.796875 0 6.625 1.265625q2.828125 1.265625 4.90625 3.6875l0 -21.90625l7.21875 0l0 60.0l-6.640625 0l-0.3125 -4.453125q-2.109375 2.578125 -5.046875 3.90625q-2.921875 1.328125 -6.828125 1.328125q-3.828125 0 -6.9375 -1.640625q-3.09375 -1.640625 -5.28125 -4.53125q-2.1875 -2.890625 -3.40625 -6.8125q-1.203125 -3.9375 -1.203125 -8.46875l0 -0.8125zm7.21875 0.8125q0 3.09375 0.65625 5.875q0.671875 2.765625 2.0625 4.875q1.390625 2.109375 3.53125 3.34375q2.15625 1.21875 5.15625 1.21875q1.84375 0 3.328125 -0.421875q1.484375 -0.4375 2.6875 -1.234375q1.21875 -0.796875 2.15625 -1.90625q0.9375 -1.125 1.640625 -2.484375l0 -19.609375q-1.40625 -2.578125 -3.796875 -4.234375q-2.375 -1.671875 -5.9375 -1.671875q-3.046875 0 -5.21875 1.25q-2.15625 1.25 -3.546875 3.390625q-1.390625 2.125 -2.0625 4.921875q-0.65625 2.78125 -0.65625 5.875l0 0.8125zm65.58594 20.671875l-7.21875 0l0 -47.65625l-14.890625 5.65625l0 -6.59375l21.53125 -8.28125l0.578125 0l0 56.875zm59.648438 5.90625l-35.8125 0l0 -5.90625l35.8125 0l0 5.90625z" fill-rule="nonzero"></path><path fill="#000000" fill-opacity="0.0" d="m253.04028 223.65671l706.96063 0l0 96.12598l-706.96063 0z" fill-rule="nonzero"></path><path fill="#000000" d="m434.17685 284.75345l5.5625 -0.875q0.46875 3.34375 2.609375 5.125q2.140625 1.78125 5.984375 1.78125q3.875 0 5.75 -1.578125q1.875 -1.578125 1.875 -3.703125q0 -1.90625 -1.65625 -3.0q-1.15625 -0.75 -5.75 -1.90625q-6.1875 -1.5625 -8.578125 -2.703125q-2.390625 -1.140625 -3.625 -3.15625q-1.234375 -2.015625 -1.234375 -4.453125q0 -2.21875 1.015625 -4.109375q1.015625 -1.890625 2.765625 -3.140625q1.3125 -0.96875 3.578125 -1.640625q2.265625 -0.671875 4.859375 -0.671875q3.90625 0 6.859375 1.125q2.953125 1.125 4.359375 3.046875q1.40625 1.921875 1.9375 5.140625l-5.5 0.75q-0.375 -2.5625 -2.171875 -4.0q-1.796875 -1.4375 -5.078125 -1.4375q-3.875 0 -5.53125 1.28125q-1.65625 1.28125 -1.65625 3.0q0 1.09375 0.6875 1.96875q0.6875 0.90625 2.15625 1.5q0.84375 0.3125 4.96875 1.4375q5.96875 1.59375 8.328125 2.609375q2.359375 1.015625 3.703125 2.953125q1.34375 1.9375 1.34375 4.8125q0 2.8125 -1.640625 5.296875q-1.640625 2.484375 -4.734375 3.84375q-3.09375 1.359375 -7.0 1.359375q-6.46875 0 -9.859375 -2.6875q-3.390625 -2.6875 -4.328125 -7.96875zm46.53125 4.875l0.8125 4.96875q-2.375 0.5 -4.25 0.5q-3.0625 0 -4.75 -0.96875q-1.6875 -0.96875 -2.375 -2.546875q-0.6875 -1.578125 -0.6875 -6.640625l0 -19.09375l-4.125 0l0 -4.375l4.125 0l0 -8.21875l5.59375 -3.375l0 11.59375l5.65625 0l0 4.375l-5.65625 0l0 19.40625q0 2.40625 0.296875 3.09375q0.296875 0.6875 0.96875 1.09375q0.671875 0.40625 1.921875 0.40625q0.9375 0 2.46875 -0.21875zm5.4375 5.03125l0 -33.1875l5.0625 0l0 5.03125q1.9375 -3.53125 3.578125 -4.65625q1.640625 -1.125 3.609375 -1.125q2.84375 0 5.78125 1.8125l-1.9375 5.21875q-2.0625 -1.21875 -4.125 -1.21875q-1.84375 0 -3.3125 1.109375q-1.46875 1.109375 -2.09375 3.078125q-0.9375 3.0 -0.9375 6.5625l0 17.375l-5.625 0zm43.12503 0l0 -4.875q-3.875 5.625 -10.53125 5.625q-2.9375 0 -5.484375 -1.125q-2.5469055 -1.125 -3.7812805 -2.828125q-1.234375 -1.703125 -1.734375 -4.171875q-0.34375 -1.65625 -0.34375 -5.25l0 -20.5625l5.6250305 0l0 18.40625q0 4.40625 0.34375 5.9375q0.53125 2.21875 2.25 3.484375q1.71875 1.265625 4.25 1.265625q2.53125 0 4.75 -1.296875q2.21875 -1.296875 3.140625 -3.53125q0.921875 -2.234375 0.921875 -6.484375l0 -17.78125l5.625 0l0 33.1875l-5.03125 0zm35.5 -12.15625l5.53125 0.71875q-0.90625 5.71875 -4.640625 8.953125q-3.734375 3.234375 -9.171875 3.234375q-6.8125 0 -10.953125 -4.453125q-4.140625 -4.453125 -4.140625 -12.765625q0 -5.375 1.78125 -9.40625q1.78125 -4.03125 5.421875 -6.046875q3.640625 -2.015625 7.921875 -2.015625q5.40625 0 8.84375 2.734375q3.4375 2.734375 4.40625 7.765625l-5.46875 0.84375q-0.78125 -3.34375 -2.765625 -5.03125q-1.984375 -1.6875 -4.796875 -1.6875q-4.25 0 -6.90625 3.046875q-2.65625 3.046875 -2.65625 9.640625q0 6.6875 2.5625 9.71875q2.5625 3.03125 6.6875 3.03125q3.3125 0 5.53125 -2.03125q2.21875 -2.03125 2.8125 -6.25zm22.625 7.125l0.8125 4.96875q-2.375 0.5 -4.25 0.5q-3.0625 0 -4.75 -0.96875q-1.6875 -0.96875 -2.375 -2.546875q-0.6875 -1.578125 -0.6875 -6.640625l0 -19.09375l-4.125 0l0 -4.375l4.125 0l0 -8.21875l5.59375 -3.375l0 11.59375l5.65625 0l0 4.375l-5.65625 0l0 19.40625q0 2.40625 0.296875 3.09375q0.296875 0.6875 0.96875 1.09375q0.671875 0.40625 1.921875 0.40625q0.9375 0 2.46875 -0.21875z" fill-rule="nonzero"></path><path fill="#f3f3f3" d="m615.8644 294.6597l-5.21875 0l0 -45.8125l5.625 0l0 16.34375q3.5625 -4.46875 9.09375 -4.46875q3.0625 0 5.796875 1.234375q2.734375 1.234375 4.5 3.46875q1.765625 2.234375 2.765625 5.390625q1.0 3.15625 1.0 6.75q0 8.53125 -4.21875 13.1875q-4.21875 4.65625 -10.125 4.65625q-5.875 0 -9.21875 -4.90625l0 4.15625zm-0.0625 -16.84375q0 5.96875 1.625 8.625q2.65625 4.34375 7.1875 4.34375q3.6875 0 6.375 -3.203125q2.6875 -3.203125 2.6875 -9.546875q0 -6.5 -2.578125 -9.59375q-2.578125 -3.09375 -6.234375 -3.09375q-3.6875 0 -6.375 3.203125q-2.6875 3.203125 -2.6875 9.265625zm52.125 12.75q-3.125 2.65625 -6.015625 3.75q-2.890625 1.09375 -6.203125 1.09375q-5.46875 0 -8.40625 -2.671875q-2.9375 -2.671875 -2.9375 -6.828125q0 -2.4375 1.109375 -4.453125q1.109375 -2.015625 2.90625 -3.234375q1.796875 -1.21875 4.046875 -1.84375q1.65625 -0.4375 5.0 -0.84375q6.8125 -0.8125 10.03125 -1.9375q0.03125 -1.15625 0.03125 -1.46875q0 -3.4375 -1.59375 -4.84375q-2.15625 -1.90625 -6.40625 -1.90625q-3.96875 0 -5.859375 1.390625q-1.890625 1.390625 -2.796875 4.921875l-5.5 -0.75q0.75 -3.53125 2.46875 -5.703125q1.71875 -2.171875 4.96875 -3.34375q3.25 -1.171875 7.53125 -1.171875q4.25 0 6.90625 1.0q2.65625 1.0 3.90625 2.515625q1.25 1.515625 1.75 3.828125q0.28125 1.4375 0.28125 5.1875l0 7.5q0 7.84375 0.359375 9.921875q0.359375 2.078125 1.421875 3.984375l-5.875 0q-0.875 -1.75 -1.125 -4.09375zm-0.46875 -12.5625q-3.0625 1.25 -9.1875 2.125q-3.46875 0.5 -4.90625 1.125q-1.4375 0.625 -2.21875 1.828125q-0.78125 1.203125 -0.78125 2.671875q0 2.25 1.703125 3.75q1.703125 1.5 4.984375 1.5q3.25 0 5.78125 -1.421875q2.53125 -1.421875 3.71875 -3.890625q0.90625 -1.90625 0.90625 -5.625l0 -2.0625zm12.15625 6.75l5.5625 -0.875q0.46875 3.34375 2.609375 5.125q2.140625 1.78125 5.984375 1.78125q3.875 0 5.75 -1.578125q1.875 -1.578125 1.875 -3.703125q0 -1.90625 -1.65625 -3.0q-1.15625 -0.75 -5.75 -1.90625q-6.1875 -1.5625 -8.578125 -2.703125q-2.390625 -1.140625 -3.625 -3.15625q-1.234375 -2.015625 -1.234375 -4.453125q0 -2.21875 1.015625 -4.109375q1.015625 -1.890625 2.765625 -3.140625q1.3125 -0.96875 3.578125 -1.640625q2.265625 -0.671875 4.859375 -0.671875q3.90625 0 6.859375 1.125q2.953125 1.125 4.359375 3.046875q1.40625 1.921875 1.9375 5.140625l-5.5 0.75q-0.375 -2.5625 -2.171875 -4.0q-1.796875 -1.4375 -5.078125 -1.4375q-3.875 0 -5.53125 1.28125q-1.65625 1.28125 -1.65625 3.0q0 1.09375 0.6875 1.96875q0.6875 0.90625 2.15625 1.5q0.84375 0.3125 4.96875 1.4375q5.96875 1.59375 8.328125 2.609375q2.359375 1.015625 3.703125 2.953125q1.34375 1.9375 1.34375 4.8125q0 2.8125 -1.640625 5.296875q-1.640625 2.484375 -4.734375 3.84375q-3.09375 1.359375 -7.0 1.359375q-6.46875 0 -9.859375 -2.6875q-3.390625 -2.6875 -4.328125 -7.96875zm56.96875 -0.78125l5.8125 0.71875q-1.375 5.09375 -5.09375 7.90625q-3.71875 2.8125 -9.5 2.8125q-7.28125 0 -11.546875 -4.484375q-4.265625 -4.484375 -4.265625 -12.578125q0 -8.375 4.3125 -13.0q4.3125 -4.625 11.1875 -4.625q6.65625 0 10.875 4.53125q4.21875 4.53125 4.21875 12.75q0 0.5 -0.03125 1.5l-24.75 0q0.3125 5.46875 3.09375 8.375q2.78125 2.90625 6.9375 2.90625q3.09375 0 5.28125 -1.625q2.1875 -1.625 3.46875 -5.1875zm-18.46875 -9.09375l18.53125 0q-0.375 -4.1875 -2.125 -6.28125q-2.6875 -3.25 -6.96875 -3.25q-3.875 0 -6.515625 2.59375q-2.640625 2.59375 -2.921875 6.9375zm50.96875 19.78125l-5.625 0l0 -35.84375q-2.03125 1.9375 -5.328125 3.875q-3.296875 1.9375 -5.921875 2.90625l0 -5.4375q4.71875 -2.21875 8.25 -5.375q3.53125 -3.15625 5.0 -6.125l3.625 0l0 46.0z" fill-rule="nonzero"></path><path fill="#7f9984" d="m253.03937 716.8834l706.96063 0l0 246.6142l-706.96063 0z" fill-rule="nonzero"></path><path stroke="#f3f3f3" stroke-width="1.0" stroke-linejoin="round" stroke-linecap="butt" d="m253.03937 716.8834l706.96063 0l0 246.6142l-706.96063 0z" fill-rule="nonzero"></path><path fill="#000000" d="m456.05093 868.99054l0 -36.6875l-11.640625 0l0 -5.578125l11.640625 0l0 -2.96875q0 -4.0625 1.1875 -7.125q1.203125 -3.078125 3.359375 -5.140625q2.171875 -2.078125 5.21875 -3.125q3.046875 -1.0625 6.796875 -1.0625q2.578125 0 5.015625 0.4375q2.453125 0.421875 5.03125 1.09375l-0.859375 5.96875q-1.609375 -0.546875 -3.734375 -0.953125q-2.125 -0.40625 -4.546875 -0.40625q-5.078125 0.03125 -7.640625 2.578125q-2.5625 2.53125 -2.5625 7.734375l0 2.96875l16.296875 0l0 5.578125l-16.296875 0l0 36.6875l-7.265625 0zm38.40625 -42.265625l21.59378 0l0 36.015625l13.796875 0l0 6.25l-35.390656 0l0 -6.25l14.375 0l0 -29.734375l-14.375 0l0 -6.28125zm13.4375 -11.09375q0 -1.796875 1.0625 -3.03125q1.078125 -1.234375 3.2656555 -1.234375q2.15625 0 3.25 1.234375q1.09375 1.234375 1.09375 3.03125q0 1.75 -1.09375 2.921875q-1.09375 1.171875 -3.25 1.171875q-2.1875305 0 -3.2656555 -1.171875q-1.0625 -1.171875 -1.0625 -2.921875zm52.101593 54.140625q-4.453125 0 -8.1875 -1.515625q-3.71875 -1.53125 -6.375 -4.265625q-2.65625 -2.734375 -4.140625 -6.484375q-1.484375 -3.75 -1.484375 -8.171875l0 -1.640625q0 -5.109375 1.640625 -9.15625q1.640625 -4.046875 4.34375 -6.828125q2.71875 -2.796875 6.171875 -4.28125q3.46875 -1.484375 7.09375 -1.484375q4.578125 0 7.984375 1.578125q3.421875 1.578125 5.6875 4.375q2.265625 2.796875 3.375 6.59375q1.125 3.78125 1.125 8.1875l0 3.25l-30.203125 0q0.125 2.890625 1.109375 5.4375q1.0 2.53125 2.734375 4.421875q1.75 1.890625 4.171875 2.984375q2.421875 1.09375 5.34375 1.09375q3.875 0 6.875 -1.5625q3.015625 -1.5625 5.0 -4.140625l4.421875 3.4375q-1.0625 1.609375 -2.640625 3.078125q-1.578125 1.453125 -3.65625 2.59375q-2.0625 1.125 -4.6875 1.8125q-2.609375 0.6875 -5.703125 0.6875zm-0.9375 -37.890625q-2.1875 0 -4.140625 0.796875q-1.953125 0.796875 -3.515625 2.34375q-1.5625 1.546875 -2.640625 3.796875q-1.0625 2.234375 -1.5 5.171875l22.734375 0l0 -0.546875q-0.109375 -2.109375 -0.796875 -4.171875q-0.6875 -2.078125 -2.015625 -3.71875q-1.328125 -1.640625 -3.34375 -2.65625q-2.0 -1.015625 -4.78125 -1.015625zm31.414062 -22.890625l21.59375 0l0 53.75l13.796875 0l0 6.25l-35.390625 0l0 -6.25l14.375 0l0 -47.46875l-14.375 0l0 -6.28125zm45.507812 38.515625q0 -4.734375 1.1875 -8.6875q1.1875 -3.96875 3.390625 -6.8125q2.21875 -2.859375 5.34375 -4.453125q3.125 -1.609375 6.984375 -1.609375q3.796875 0 6.625 1.265625q2.828125 1.265625 4.90625 3.6875l0 -21.90625l7.21875 0l0 60.0l-6.640625 0l-0.3125 -4.453125q-2.109375 2.578125 -5.046875 3.90625q-2.921875 1.328125 -6.828125 1.328125q-3.828125 0 -6.9375 -1.640625q-3.09375 -1.640625 -5.28125 -4.53125q-2.1875 -2.890625 -3.40625 -6.8125q-1.203125 -3.9375 -1.203125 -8.46875l0 -0.8125zm7.21875 0.8125q0 3.09375 0.65625 5.875q0.671875 2.765625 2.0625 4.875q1.390625 2.109375 3.53125 3.34375q2.15625 1.21875 5.15625 1.21875q1.84375 0 3.328125 -0.421875q1.484375 -0.4375 2.6875 -1.234375q1.21875 -0.796875 2.15625 -1.90625q0.9375 -1.125 1.640625 -2.484375l0 -19.609375q-1.40625 -2.578125 -3.796875 -4.234375q-2.375 -1.671875 -5.9375 -1.671875q-3.046875 0 -5.21875 1.25q-2.15625 1.25 -3.546875 3.390625q-1.390625 2.125 -2.0625 4.921875q-0.65625 2.78125 -0.65625 5.875l0 0.8125zm50.585938 -11.25l5.15625 0q2.734375 0 4.828125 -0.734375q2.09375 -0.75 3.515625 -2.03125q1.421875 -1.296875 2.15625 -3.09375q0.75 -1.796875 0.75 -3.9375q0 -4.96875 -2.546875 -7.484375q-2.53125 -2.515625 -7.40625 -2.515625q-2.3125 0 -4.203125 0.6875q-1.890625 0.671875 -3.25 1.96875q-1.34375 1.28125 -2.09375 3.078125q-0.734375 1.796875 -0.734375 4.03125l-7.265625 0q0 -3.25 1.265625 -6.109375q1.28125 -2.875 3.578125 -5.0q2.3125 -2.140625 5.53125 -3.359375q3.21875 -1.234375 7.171875 -1.234375q3.828125 0 6.984375 1.03125q3.171875 1.03125 5.4375 3.0625q2.265625 2.03125 3.515625 5.046875q1.25 3.0 1.25 6.953125q0 1.640625 -0.515625 3.40625q-0.5 1.75 -1.5625 3.40625q-1.046875 1.65625 -2.71875 3.125q-1.65625 1.46875 -3.953125 2.4375q2.765625 0.90625 4.625 2.359375q1.859375 1.4375 2.96875 3.234375q1.109375 1.796875 1.5625 3.796875q0.453125 1.984375 0.453125 3.9375q0 3.984375 -1.375 7.078125q-1.359375 3.078125 -3.78125 5.203125q-2.421875 2.125 -5.734375 3.25q-3.296875 1.109375 -7.125 1.109375q-3.75 0 -7.046875 -1.046875q-3.296875 -1.0625 -5.71875 -3.09375q-2.421875 -2.03125 -3.859375 -4.953125q-1.421875 -2.9375 -1.421875 -6.6875l7.234375 0q0 2.21875 0.75 4.0625q0.765625 1.828125 2.171875 3.125q1.40625 1.28125 3.421875 1.984375q2.015625 0.703125 4.46875 0.703125q2.46875 0 4.453125 -0.640625q2.0 -0.640625 3.40625 -1.96875q1.40625 -1.328125 2.15625 -3.296875q0.765625 -1.984375 0.765625 -4.671875q0 -2.65625 -0.875 -4.59375q-0.875 -1.9375 -2.46875 -3.21875q-1.578125 -1.296875 -3.828125 -1.921875q-2.234375 -0.625 -4.9375 -0.625l-5.15625 0l0 -5.859375zm74.64844 37.828125l-35.8125 0l0 -5.90625l35.8125 0l0 5.90625z" fill-rule="nonzero"></path><path fill="#000000" fill-opacity="0.0" d="m253.04028 470.27087l706.96063 0l0 96.12598l-706.96063 0z" fill-rule="nonzero"></path><path fill="#000000" d="m434.17685 531.3676l5.5625 -0.875q0.46875 3.34375 2.609375 5.125q2.140625 1.78125 5.984375 1.78125q3.875 0 5.75 -1.578125q1.875 -1.578125 1.875 -3.703125q0 -1.90625 -1.65625 -3.0q-1.15625 -0.75 -5.75 -1.90625q-6.1875 -1.5625 -8.578125 -2.703125q-2.390625 -1.140625 -3.625 -3.15625q-1.234375 -2.015625 -1.234375 -4.453125q0 -2.21875 1.015625 -4.109375q1.015625 -1.890625 2.765625 -3.140625q1.3125 -0.96875 3.578125 -1.640625q2.265625 -0.671875 4.859375 -0.671875q3.90625 0 6.859375 1.125q2.953125 1.125 4.359375 3.046875q1.40625 1.921875 1.9375 5.140625l-5.5 0.75q-0.375 -2.5625 -2.171875 -4.0q-1.796875 -1.4375 -5.078125 -1.4375q-3.875 0 -5.53125 1.28125q-1.65625 1.28125 -1.65625 3.0q0 1.09375 0.6875 1.96875q0.6875 0.90625 2.15625 1.5q0.84375 0.3125 4.96875 1.4375q5.96875 1.59375 8.328125 2.609375q2.359375 1.015625 3.703125 2.953125q1.34375 1.9375 1.34375 4.8125q0 2.8125 -1.640625 5.296875q-1.640625 2.484375 -4.734375 3.84375q-3.09375 1.359375 -7.0 1.359375q-6.46875 0 -9.859375 -2.6875q-3.390625 -2.6875 -4.328125 -7.96875zm46.53125 4.875l0.8125 4.96875q-2.375 0.5 -4.25 0.5q-3.0625 0 -4.75 -0.96875q-1.6875 -0.96875 -2.375 -2.546875q-0.6875 -1.578125 -0.6875 -6.640625l0 -19.09375l-4.125 0l0 -4.375l4.125 0l0 -8.21875l5.59375 -3.375l0 11.59375l5.65625 0l0 4.375l-5.65625 0l0 19.40625q0 2.40625 0.296875 3.09375q0.296875 0.6875 0.96875 1.09375q0.671875 0.40625 1.921875 0.40625q0.9375 0 2.46875 -0.21875zm5.4375 5.03125l0 -33.1875l5.0625 0l0 5.03125q1.9375 -3.53125 3.578125 -4.65625q1.640625 -1.125 3.609375 -1.125q2.84375 0 5.78125 1.8125l-1.9375 5.21875q-2.0625 -1.21875 -4.125 -1.21875q-1.84375 0 -3.3125 1.109375q-1.46875 1.109375 -2.09375 3.078125q-0.9375 3.0 -0.9375 6.5625l0 17.375l-5.625 0zm43.12503 0l0 -4.875q-3.875 5.625 -10.53125 5.625q-2.9375 0 -5.484375 -1.125q-2.5469055 -1.125 -3.7812805 -2.828125q-1.234375 -1.703125 -1.734375 -4.171875q-0.34375 -1.65625 -0.34375 -5.25l0 -20.5625l5.6250305 0l0 18.40625q0 4.40625 0.34375 5.9375q0.53125 2.21875 2.25 3.484375q1.71875 1.265625 4.25 1.265625q2.53125 0 4.75 -1.296875q2.21875 -1.296875 3.140625 -3.53125q0.921875 -2.234375 0.921875 -6.484375l0 -17.78125l5.625 0l0 33.1875l-5.03125 0zm35.5 -12.15625l5.53125 0.71875q-0.90625 5.71875 -4.640625 8.953125q-3.734375 3.234375 -9.171875 3.234375q-6.8125 0 -10.953125 -4.453125q-4.140625 -4.453125 -4.140625 -12.765625q0 -5.375 1.78125 -9.40625q1.78125 -4.03125 5.421875 -6.046875q3.640625 -2.015625 7.921875 -2.015625q5.40625 0 8.84375 2.734375q3.4375 2.734375 4.40625 7.765625l-5.46875 0.84375q-0.78125 -3.34375 -2.765625 -5.03125q-1.984375 -1.6875 -4.796875 -1.6875q-4.25 0 -6.90625 3.046875q-2.65625 3.046875 -2.65625 9.640625q0 6.6875 2.5625 9.71875q2.5625 3.03125 6.6875 3.03125q3.3125 0 5.53125 -2.03125q2.21875 -2.03125 2.8125 -6.25zm22.625 7.125l0.8125 4.96875q-2.375 0.5 -4.25 0.5q-3.0625 0 -4.75 -0.96875q-1.6875 -0.96875 -2.375 -2.546875q-0.6875 -1.578125 -0.6875 -6.640625l0 -19.09375l-4.125 0l0 -4.375l4.125 0l0 -8.21875l5.59375 -3.375l0 11.59375l5.65625 0l0 4.375l-5.65625 0l0 19.40625q0 2.40625 0.296875 3.09375q0.296875 0.6875 0.96875 1.09375q0.671875 0.40625 1.921875 0.40625q0.9375 0 2.46875 -0.21875z" fill-rule="nonzero"></path><path fill="#f3f3f3" d="m615.8644 541.27386l-5.21875 0l0 -45.8125l5.625 0l0 16.34375q3.5625 -4.46875 9.09375 -4.46875q3.0625 0 5.796875 1.234375q2.734375 1.234375 4.5 3.46875q1.765625 2.234375 2.765625 5.390625q1.0 3.15625 1.0 6.75q0 8.53125 -4.21875 13.1875q-4.21875 4.65625 -10.125 4.65625q-5.875 0 -9.21875 -4.90625l0 4.15625zm-0.0625 -16.84375q0 5.96875 1.625 8.625q2.65625 4.34375 7.1875 4.34375q3.6875 0 6.375 -3.203125q2.6875 -3.203125 2.6875 -9.546875q0 -6.5 -2.578125 -9.59375q-2.578125 -3.09375 -6.234375 -3.09375q-3.6875 0 -6.375 3.203125q-2.6875 3.203125 -2.6875 9.265625zm52.125 12.75q-3.125 2.65625 -6.015625 3.75q-2.890625 1.09375 -6.203125 1.09375q-5.46875 0 -8.40625 -2.671875q-2.9375 -2.671875 -2.9375 -6.828125q0 -2.4375 1.109375 -4.453125q1.109375 -2.015625 2.90625 -3.234375q1.796875 -1.21875 4.046875 -1.84375q1.65625 -0.4375 5.0 -0.84375q6.8125 -0.8125 10.03125 -1.9375q0.03125 -1.15625 0.03125 -1.46875q0 -3.4375 -1.59375 -4.84375q-2.15625 -1.90625 -6.40625 -1.90625q-3.96875 0 -5.859375 1.390625q-1.890625 1.390625 -2.796875 4.921875l-5.5 -0.75q0.75 -3.53125 2.46875 -5.703125q1.71875 -2.171875 4.96875 -3.34375q3.25 -1.171875 7.53125 -1.171875q4.25 0 6.90625 1.0q2.65625 1.0 3.90625 2.515625q1.25 1.515625 1.75 3.828125q0.28125 1.4375 0.28125 5.1875l0 7.5q0 7.84375 0.359375 9.921875q0.359375 2.078125 1.421875 3.984375l-5.875 0q-0.875 -1.75 -1.125 -4.09375zm-0.46875 -12.5625q-3.0625 1.25 -9.1875 2.125q-3.46875 0.5 -4.90625 1.125q-1.4375 0.625 -2.21875 1.828125q-0.78125 1.203125 -0.78125 2.671875q0 2.25 1.703125 3.75q1.703125 1.5 4.984375 1.5q3.25 0 5.78125 -1.421875q2.53125 -1.421875 3.71875 -3.890625q0.90625 -1.90625 0.90625 -5.625l0 -2.0625zm12.15625 6.75l5.5625 -0.875q0.46875 3.34375 2.609375 5.125q2.140625 1.78125 5.984375 1.78125q3.875 0 5.75 -1.578125q1.875 -1.578125 1.875 -3.703125q0 -1.90625 -1.65625 -3.0q-1.15625 -0.75 -5.75 -1.90625q-6.1875 -1.5625 -8.578125 -2.703125q-2.390625 -1.140625 -3.625 -3.15625q-1.234375 -2.015625 -1.234375 -4.453125q0 -2.21875 1.015625 -4.109375q1.015625 -1.890625 2.765625 -3.140625q1.3125 -0.96875 3.578125 -1.640625q2.265625 -0.671875 4.859375 -0.671875q3.90625 0 6.859375 1.125q2.953125 1.125 4.359375 3.046875q1.40625 1.921875 1.9375 5.140625l-5.5 0.75q-0.375 -2.5625 -2.171875 -4.0q-1.796875 -1.4375 -5.078125 -1.4375q-3.875 0 -5.53125 1.28125q-1.65625 1.28125 -1.65625 3.0q0 1.09375 0.6875 1.96875q0.6875 0.90625 2.15625 1.5q0.84375 0.3125 4.96875 1.4375q5.96875 1.59375 8.328125 2.609375q2.359375 1.015625 3.703125 2.953125q1.34375 1.9375 1.34375 4.8125q0 2.8125 -1.640625 5.296875q-1.640625 2.484375 -4.734375 3.84375q-3.09375 1.359375 -7.0 1.359375q-6.46875 0 -9.859375 -2.6875q-3.390625 -2.6875 -4.328125 -7.96875zm56.96875 -0.78125l5.8125 0.71875q-1.375 5.09375 -5.09375 7.90625q-3.71875 2.8125 -9.5 2.8125q-7.28125 0 -11.546875 -4.484375q-4.265625 -4.484375 -4.265625 -12.578125q0 -8.375 4.3125 -13.0q4.3125 -4.625 11.1875 -4.625q6.65625 0 10.875 4.53125q4.21875 4.53125 4.21875 12.75q0 0.5 -0.03125 1.5l-24.75 0q0.3125 5.46875 3.09375 8.375q2.78125 2.90625 6.9375 2.90625q3.09375 0 5.28125 -1.625q2.1875 -1.625 3.46875 -5.1875zm-18.46875 -9.09375l18.53125 0q-0.375 -4.1875 -2.125 -6.28125q-2.6875 -3.25 -6.96875 -3.25q-3.875 0 -6.515625 2.59375q-2.640625 2.59375 -2.921875 6.9375zm59.34375 14.375l0 5.40625l-30.28125 0q-0.0625 -2.03125 0.65625 -3.90625q1.15625 -3.09375 3.703125 -6.09375q2.546875 -3.0 7.359375 -6.9375q7.46875 -6.125 10.09375 -9.703125q2.625 -3.578125 2.625 -6.765625q0 -3.34375 -2.390625 -5.640625q-2.390625 -2.296875 -6.234375 -2.296875q-4.0625 0 -6.5 2.4375q-2.4375 2.4375 -2.46875 6.75l-5.78125 -0.59375q0.59375 -6.46875 4.46875 -9.859375q3.875 -3.390625 10.40625 -3.390625q6.59375 0 10.4375 3.65625q3.84375 3.65625 3.84375 9.0625q0 2.75 -1.125 5.40625q-1.125 2.65625 -3.734375 5.59375q-2.609375 2.9375 -8.671875 8.0625q-5.0625 4.25 -6.5 5.765625q-1.4375 1.515625 -2.375 3.046875l22.46875 0z" fill-rule="nonzero"></path></g></svg>

