<?xml version="1.0" standalone="yes"?>

<svg version="1.1" viewBox="0.0 0.0 1843.257217847769 1431.7795275590552" fill="none" stroke="none" stroke-linecap="square" stroke-miterlimit="10" xmlns="http://www.w3.org/2000/svg" xmlns:xlink="http://www.w3.org/1999/xlink"><clipPath id="p.0"><path d="m0 0l1843.2572 0l0 1431.7795l-1843.2572 0l0 -1431.7795z" clip-rule="nonzero"></path></clipPath><g clip-path="url(#p.0)"><path fill="#000000" fill-opacity="0.0" d="m0 0l1843.2572 0l0 1431.7795l-1843.2572 0z" fill-rule="nonzero"></path><path fill="#000000" fill-opacity="0.0" d="m253.04028 201.96118l706.96063 0l0 96.12598l-706.96063 0z" fill-rule="nonzero"></path><path fill="#6fa8dc" d="m451.97372 263.05792l5.5625 -0.875q0.46875 3.34375 2.609375 5.125q2.140625 1.78125 5.984375 1.78125q3.875 0 5.75 -1.578125q1.875 -1.578125 1.875 -3.703125q0 -1.90625 -1.65625 -3.0q-1.15625 -0.75 -5.75 -1.90625q-6.1875 -1.5625 -8.578125 -2.703125q-2.390625 -1.140625 -3.625 -3.15625q-1.234375 -2.015625 -1.234375 -4.453125q0 -2.21875 1.015625 -4.109375q1.015625 -1.890625 2.765625 -3.140625q1.3125 -0.96875 3.578125 -1.640625q2.265625 -0.671875 4.859375 -0.671875q3.90625 0 6.859375 1.125q2.953125 1.125 4.359375 3.046875q1.40625 1.921875 1.9375 5.140625l-5.5 0.75q-0.375 -2.5625 -2.171875 -4.0q-1.796875 -1.4375 -5.078125 -1.4375q-3.875 0 -5.53125 1.28125q-1.65625 1.28125 -1.65625 3.0q0 1.09375 0.6875 1.96875q0.6875 0.90625 2.15625 1.5q0.84375 0.3125 4.96875 1.4375q5.96875 1.59375 8.328125 2.609375q2.359375 1.015625 3.703125 2.953125q1.34375 1.9375 1.34375 4.8125q0 2.8125 -1.640625 5.296875q-1.640625 2.484375 -4.734375 3.84375q-3.09375 1.359375 -7.0 1.359375q-6.46875 0 -9.859375 -2.6875q-3.390625 -2.6875 -4.328125 -7.96875zm46.53125 4.875l0.8125 4.96875q-2.375 0.5 -4.25 0.5q-3.0625 0 -4.75 -0.96875q-1.6875 -0.96875 -2.375 -2.546875q-0.6875 -1.578125 -0.6875 -6.640625l0 -19.09375l-4.125 0l0 -4.375l4.125 0l0 -8.21875l5.59375 -3.375l0 11.59375l5.65625 0l0 4.375l-5.65625 0l0 19.40625q0 2.40625 0.296875 3.09375q0.296875 0.6875 0.96875 1.09375q0.671875 0.40625 1.921875 0.40625q0.9375 0 2.46875 -0.21875zm5.4375 5.03125l0 -33.1875l5.0625 0l0 5.03125q1.9375 -3.53125 3.5781555 -4.65625q1.640625 -1.125 3.609375 -1.125q2.84375 0 5.78125 1.8125l-1.9375 5.21875q-2.0625 -1.21875 -4.125 -1.21875q-1.84375 0 -3.3125 1.109375q-1.4687805 1.109375 -2.0937805 3.078125q-0.9375 3.0 -0.9375 6.5625l0 17.375l-5.625 0zm43.12503 0l0 -4.875q-3.875 5.625 -10.53125 5.625q-2.9375 0 -5.484375 -1.125q-2.546875 -1.125 -3.78125 -2.828125q-1.234375 -1.703125 -1.734375 -4.171875q-0.34375 -1.65625 -0.34375 -5.25l0 -20.5625l5.625 0l0 18.40625q0 4.40625 0.34375 5.9375q0.53125 2.21875 2.25 3.484375q1.71875 1.265625 4.25 1.265625q2.53125 0 4.75 -1.296875q2.21875 -1.296875 3.140625 -3.53125q0.921875 -2.234375 0.921875 -6.484375l0 -17.78125l5.625 0l0 33.1875l-5.03125 0zm35.5 -12.15625l5.53125 0.71875q-0.90625 5.71875 -4.640625 8.953125q-3.734375 3.234375 -9.171875 3.234375q-6.8125 0 -10.953125 -4.453125q-4.140625 -4.453125 -4.140625 -12.765625q0 -5.375 1.78125 -9.40625q1.78125 -4.03125 5.421875 -6.046875q3.640625 -2.015625 7.921875 -2.015625q5.40625 0 8.84375 2.734375q3.4375 2.734375 4.40625 7.765625l-5.46875 0.84375q-0.78125 -3.34375 -2.765625 -5.03125q-1.984375 -1.6875 -4.796875 -1.6875q-4.25 0 -6.90625 3.046875q-2.65625 3.046875 -2.65625 9.640625q0 6.6875 2.5625 9.71875q2.5625 3.03125 6.6875 3.03125q3.3125 0 5.53125 -2.03125q2.21875 -2.03125 2.8125 -6.25zm22.625 7.125l0.8125 4.96875q-2.375 0.5 -4.25 0.5q-3.0625 0 -4.75 -0.96875q-1.6875 -0.96875 -2.375 -2.546875q-0.6875 -1.578125 -0.6875 -6.640625l0 -19.09375l-4.125 0l0 -4.375l4.125 0l0 -8.21875l5.59375 -3.375l0 11.59375l5.65625 0l0 4.375l-5.65625 0l0 19.40625q0 2.40625 0.296875 3.09375q0.296875 0.6875 0.96875 1.09375q0.671875 0.40625 1.921875 0.40625q0.9375 0 2.46875 -0.21875z" fill-rule="nonzero"></path><path fill="#f3f3f3" d="m633.66125 272.96417l-5.21875 0l0 -45.8125l5.625 0l0 16.34375q3.5625 -4.46875 9.09375 -4.46875q3.0625 0 5.796875 1.234375q2.734375 1.234375 4.5 3.46875q1.765625 2.234375 2.765625 5.390625q1.0 3.15625 1.0 6.75q0 8.53125 -4.21875 13.1875q-4.21875 4.65625 -10.125 4.65625q-5.875 0 -9.21875 -4.90625l0 4.15625zm-0.0625 -16.84375q0 5.96875 1.625 8.625q2.65625 4.34375 7.1875 4.34375q3.6875 0 6.375 -3.203125q2.6875 -3.203125 2.6875 -9.546875q0 -6.5 -2.578125 -9.59375q-2.578125 -3.09375 -6.234375 -3.09375q-3.6875 0 -6.375 3.203125q-2.6875 3.203125 -2.6875 9.265625zm52.125 12.75q-3.125 2.65625 -6.015625 3.75q-2.890625 1.09375 -6.203125 1.09375q-5.46875 0 -8.40625 -2.671875q-2.9375 -2.671875 -2.9375 -6.828125q0 -2.4375 1.109375 -4.453125q1.109375 -2.015625 2.90625 -3.234375q1.796875 -1.21875 4.046875 -1.84375q1.65625 -0.4375 5.0 -0.84375q6.8125 -0.8125 10.03125 -1.9375q0.03125 -1.15625 0.03125 -1.46875q0 -3.4375 -1.59375 -4.84375q-2.15625 -1.90625 -6.40625 -1.90625q-3.96875 0 -5.859375 1.390625q-1.890625 1.390625 -2.796875 4.921875l-5.5 -0.75q0.75 -3.53125 2.46875 -5.703125q1.71875 -2.171875 4.96875 -3.34375q3.25 -1.171875 7.53125 -1.171875q4.25 0 6.90625 1.0q2.65625 1.0 3.90625 2.515625q1.25 1.515625 1.75 3.828125q0.28125 1.4375 0.28125 5.1875l0 7.5q0 7.84375 0.359375 9.921875q0.359375 2.078125 1.421875 3.984375l-5.875 0q-0.875 -1.75 -1.125 -4.09375zm-0.46875 -12.5625q-3.0625 1.25 -9.1875 2.125q-3.46875 0.5 -4.90625 1.125q-1.4375 0.625 -2.21875 1.828125q-0.78125 1.203125 -0.78125 2.671875q0 2.25 1.703125 3.75q1.703125 1.5 4.984375 1.5q3.25 0 5.78125 -1.421875q2.53125 -1.421875 3.71875 -3.890625q0.90625 -1.90625 0.90625 -5.625l0 -2.0625zm12.15625 6.75l5.5625 -0.875q0.46875 3.34375 2.609375 5.125q2.140625 1.78125 5.984375 1.78125q3.875 0 5.75 -1.578125q1.875 -1.578125 1.875 -3.703125q0 -1.90625 -1.65625 -3.0q-1.15625 -0.75 -5.75 -1.90625q-6.1875 -1.5625 -8.578125 -2.703125q-2.390625 -1.140625 -3.625 -3.15625q-1.234375 -2.015625 -1.234375 -4.453125q0 -2.21875 1.015625 -4.109375q1.015625 -1.890625 2.765625 -3.140625q1.3125 -0.96875 3.578125 -1.640625q2.265625 -0.671875 4.859375 -0.671875q3.90625 0 6.859375 1.125q2.953125 1.125 4.359375 3.046875q1.40625 1.921875 1.9375 5.140625l-5.5 0.75q-0.375 -2.5625 -2.171875 -4.0q-1.796875 -1.4375 -5.078125 -1.4375q-3.875 0 -5.53125 1.28125q-1.65625 1.28125 -1.65625 3.0q0 1.09375 0.6875 1.96875q0.6875 0.90625 2.15625 1.5q0.84375 0.3125 4.96875 1.4375q5.96875 1.59375 8.328125 2.609375q2.359375 1.015625 3.703125 2.953125q1.34375 1.9375 1.34375 4.8125q0 2.8125 -1.640625 5.296875q-1.640625 2.484375 -4.734375 3.84375q-3.09375 1.359375 -7.0 1.359375q-6.46875 0 -9.859375 -2.6875q-3.390625 -2.6875 -4.328125 -7.96875zm56.96875 -0.78125l5.8125 0.71875q-1.375 5.09375 -5.09375 7.90625q-3.71875 2.8125 -9.5 2.8125q-7.28125 0 -11.546875 -4.484375q-4.265625 -4.484375 -4.265625 -12.578125q0 -8.375 4.3125 -13.0q4.3125 -4.625 11.1875 -4.625q6.65625 0 10.875 4.53125q4.21875 4.53125 4.21875 12.75q0 0.5 -0.03125 1.5l-24.75 0q0.3125 5.46875 3.09375 8.375q2.78125 2.90625 6.9375 2.90625q3.09375 0 5.28125 -1.625q2.1875 -1.625 3.46875 -5.1875zm-18.46875 -9.09375l18.53125 0q-0.375 -4.1875 -2.125 -6.28125q-2.6875 -3.25 -6.96875 -3.25q-3.875 0 -6.515625 2.59375q-2.640625 2.59375 -2.921875 6.9375z" fill-rule="nonzero"></path><path fill="#000000" fill-opacity="0.0" d="m0 0l150.67717 0l0 70.362206l-150.67717 0z" fill-rule="nonzero"></path><path fill="#6fa8dc" d="m42.04171 53.08985l0.8125 4.96875q-2.375 0.5 -4.25 0.5q-3.0625 0 -4.75 -0.96875q-1.6875 -0.96875 -2.375 -2.546875q-0.6875 -1.578125 -0.6875 -6.640625l0 -19.09375l-4.125 0l0 -4.375l4.125 0l0 -8.21875l5.59375 -3.375l0 11.59375l5.65625 0l0 4.375l-5.65625 0l0 19.40625q0 2.40625 0.296875 3.09375q0.296875 0.6875 0.96875 1.09375q0.671875 0.40625 1.921875 0.40625q0.9375 0 2.46875 -0.21875zm5.5 5.03125l0 -45.8125l5.625 0l0 16.4375q3.9375 -4.5625 9.9375 -4.5625q3.6875 0 6.40625 1.453125q2.71875 1.453125 3.890625 4.015625q1.171875 2.5625 1.171875 7.4375l0 21.03125l-5.625 0l0 -21.03125q0 -4.21875 -1.828125 -6.140625q-1.828125 -1.921875 -5.171875 -1.921875q-2.5 0 -4.703125 1.296875q-2.203125 1.296875 -3.140625 3.515625q-0.9375 2.21875 -0.9375 6.125l0 18.15625l-5.625 0zm35.625 -39.34375l0 -6.46875l5.625 0l0 6.46875l-5.625 0zm0 39.34375l0 -33.1875l5.625 0l0 33.1875l-5.625 0zm11.9375 -9.90625l5.5625 -0.875q0.46875 3.34375 2.609375 5.125q2.140625 1.78125 5.984375 1.78125q3.875 0 5.75 -1.578125q1.875 -1.578125 1.875 -3.703125q0 -1.90625 -1.65625 -3.0q-1.15625 -0.75 -5.75 -1.90625q-6.1875 -1.5625 -8.578125 -2.703125q-2.390625 -1.140625 -3.625 -3.15625q-1.234375 -2.015625 -1.234375 -4.453125q0 -2.21875 1.015625 -4.109375q1.015625 -1.890625 2.765625 -3.140625q1.3125 -0.96875 3.578125 -1.640625q2.265625 -0.671875 4.859375 -0.671875q3.90625 0 6.859375 1.125q2.953125 1.125 4.359375 3.046875q1.40625 1.921875 1.9375 5.140625l-5.5 0.75q-0.375 -2.5625 -2.171875 -4.0q-1.796875 -1.4375 -5.078125 -1.4375q-3.875 0 -5.53125 1.28125q-1.65625 1.28125 -1.65625 3.0q0 1.09375 0.6875 1.96875q0.6875 0.90625 2.15625 1.5q0.84375 0.3125 4.96875 1.4375q5.96875 1.59375 8.328125 2.609375q2.359375 1.015625 3.703125 2.953125q1.34375 1.9375 1.34375 4.8125q0 2.8125 -1.640625 5.296875q-1.640625 2.484375 -4.734375 3.84375q-3.09375 1.359375 -7.0 1.359375q-6.46875 0 -9.859375 -2.6875q-3.390625 -2.6875 -4.328125 -7.96875z" fill-rule="nonzero"></path><path fill="#000000" fill-opacity="0.0" d="m150.67717 35.181103c52.89763 0 105.79527 93.30708 105.79527 186.61417" fill-rule="nonzero"></path><path stroke="#d9d9d9" stroke-width="12.0" stroke-linejoin="round" stroke-linecap="butt" d="m150.67717 35.181103c26.448822 0 52.89763 23.32677 72.73425 58.31693c9.918304 17.495079 18.183563 37.906006 23.969238 59.774857c1.4464111 5.467209 2.737854 11.025543 3.8614197 16.652222c0.56178284 2.813324 1.0815887 5.643753 1.5578156 8.488403c0.11904907 0.7111511 0.23536682 1.4232178 0.3489685 2.1361237l0.039627075 0.25193787" fill-rule="evenodd"></path><path fill="#d9d9d9" stroke="#d9d9d9" stroke-width="12.0" stroke-linecap="butt" d="m253.18849 180.80156l-14.529526 -12.374283l16.412628 35.881195l10.49118 -38.036438z" fill-rule="evenodd"></path><path fill="#000000" fill-opacity="0.0" d="m253.04028 127.53073l706.96063 0l0 96.12598l-706.96063 0z" fill-rule="nonzero"></path><path fill="#6fa8dc" d="m416.41122 188.62747l5.5625 -0.875q0.46875 3.34375 2.609375 5.125q2.140625 1.78125 5.984375 1.78125q3.875 0 5.75 -1.578125q1.875 -1.578125 1.875 -3.703125q0 -1.90625 -1.65625 -3.0q-1.15625 -0.75 -5.75 -1.90625q-6.1875 -1.5625 -8.578125 -2.703125q-2.390625 -1.140625 -3.625 -3.15625q-1.234375 -2.015625 -1.234375 -4.453125q0 -2.21875 1.015625 -4.109375q1.015625 -1.890625 2.765625 -3.140625q1.3125 -0.96875 3.578125 -1.640625q2.265625 -0.671875 4.859375 -0.671875q3.90625 0 6.859375 1.125q2.953125 1.125 4.359375 3.046875q1.40625 1.921875 1.9375 5.140625l-5.5 0.75q-0.375 -2.5625 -2.171875 -4.0q-1.796875 -1.4375 -5.078125 -1.4375q-3.875 0 -5.53125 1.28125q-1.65625 1.28125 -1.65625 3.0q0 1.09375 0.6875 1.96875q0.6875 0.90625 2.15625 1.5q0.84375 0.3125 4.96875 1.4375q5.96875 1.59375 8.328125 2.609375q2.359375 1.015625 3.703125 2.953125q1.34375 1.9375 1.34375 4.8125q0 2.8125 -1.640625 5.296875q-1.640625 2.484375 -4.734375 3.84375q-3.09375 1.359375 -7.0 1.359375q-6.46875 0 -9.859375 -2.6875q-3.390625 -2.6875 -4.328125 -7.96875zm46.53125 4.875l0.8125 4.96875q-2.375 0.5 -4.25 0.5q-3.0625 0 -4.75 -0.96875q-1.6875 -0.96875 -2.375 -2.546875q-0.6875 -1.578125 -0.6875 -6.640625l0 -19.09375l-4.125 0l0 -4.375l4.125 0l0 -8.21875l5.59375 -3.375l0 11.59375l5.65625 0l0 4.375l-5.65625 0l0 19.40625q0 2.40625 0.296875 3.09375q0.296875 0.6875 0.96875 1.09375q0.671875 0.40625 1.921875 0.40625q0.9375 0 2.46875 -0.21875zm5.4375 5.03125l0 -33.1875l5.0625 0l0 5.03125q1.9375 -3.53125 3.578125 -4.65625q1.640625 -1.125 3.609375 -1.125q2.84375 0 5.78125 1.8125l-1.9375 5.21875q-2.0625 -1.21875 -4.125 -1.21875q-1.84375 0 -3.3125 1.109375q-1.46875 1.109375 -2.09375 3.078125q-0.9375 3.0 -0.9375 6.5625l0 17.375l-5.625 0zm43.125 0l0 -4.875q-3.875 5.625 -10.53125 5.625q-2.9375 0 -5.484375 -1.125q-2.546875 -1.125 -3.78125 -2.828125q-1.234375 -1.703125 -1.734375 -4.171875q-0.34375 -1.65625 -0.34375 -5.25l0 -20.5625l5.625 0l0 18.40625q0 4.40625 0.34375 5.9375q0.53125 2.21875 2.25 3.484375q1.71875 1.265625 4.25 1.265625q2.53125 0 4.75 -1.296875q2.21875 -1.296875 3.140625 -3.53125q0.921875 -2.234375 0.921875 -6.484375l0 -17.78125l5.6250305 0l0 33.1875l-5.0312805 0zm35.50003 -12.15625l5.53125 0.71875q-0.90625 5.71875 -4.640625 8.953125q-3.734375 3.234375 -9.171875 3.234375q-6.8125 0 -10.953125 -4.453125q-4.140625 -4.453125 -4.140625 -12.765625q0 -5.375 1.78125 -9.40625q1.78125 -4.03125 5.421875 -6.046875q3.640625 -2.015625 7.921875 -2.015625q5.40625 0 8.84375 2.734375q3.4375 2.734375 4.40625 7.765625l-5.46875 0.84375q-0.78125 -3.34375 -2.765625 -5.03125q-1.984375 -1.6875 -4.796875 -1.6875q-4.25 0 -6.90625 3.046875q-2.65625 3.046875 -2.65625 9.640625q0 6.6875 2.5625 9.71875q2.5625 3.03125 6.6875 3.03125q3.3125 0 5.53125 -2.03125q2.21875 -2.03125 2.8125 -6.25zm22.625 7.125l0.8125 4.96875q-2.375 0.5 -4.25 0.5q-3.0625 0 -4.75 -0.96875q-1.6875 -0.96875 -2.375 -2.546875q-0.6875 -1.578125 -0.6875 -6.640625l0 -19.09375l-4.125 0l0 -4.375l4.125 0l0 -8.21875l5.59375 -3.375l0 11.59375l5.65625 0l0 4.375l-5.65625 0l0 19.40625q0 2.40625 0.296875 3.09375q0.296875 0.6875 0.96875 1.09375q0.671875 0.40625 1.921875 0.40625q0.9375 0 2.46875 -0.21875z" fill-rule="nonzero"></path><path fill="#f3f3f3" d="m614.4425 198.53372l0 -4.1875q-3.15625 4.9375 -9.28125 4.9375q-3.96875 0 -7.296875 -2.1875q-3.328125 -2.1875 -5.15625 -6.109375q-1.828125 -3.921875 -1.828125 -9.015625q0 -4.96875 1.65625 -9.015625q1.65625 -4.046875 4.96875 -6.203125q3.3125 -2.15625 7.40625 -2.15625q3.0 0 5.34375 1.265625q2.34375 1.265625 3.8125 3.296875l0 -16.4375l5.59375 0l0 45.8125l-5.21875 0zm-17.78125 -16.5625q0 6.375 2.6875 9.53125q2.6875 3.15625 6.34375 3.15625q3.6875 0 6.265625 -3.015625q2.578125 -3.015625 2.578125 -9.203125q0 -6.8125 -2.625 -10.0q-2.625 -3.1875 -6.46875 -3.1875q-3.75 0 -6.265625 3.0625q-2.515625 3.0625 -2.515625 9.65625zm54.5625 5.875l5.8125 0.71875q-1.375 5.09375 -5.09375 7.90625q-3.71875 2.8125 -9.5 2.8125q-7.28125 0 -11.546875 -4.484375q-4.265625 -4.484375 -4.265625 -12.578125q0 -8.375 4.3125 -13.0q4.3125 -4.625 11.1875 -4.625q6.65625 0 10.875 4.53125q4.21875 4.53125 4.21875 12.75q0 0.5 -0.03125 1.5l-24.75 0q0.3125 5.46875 3.09375 8.375q2.78125 2.90625 6.9375 2.90625q3.09375 0 5.28125 -1.625q2.1875 -1.625 3.46875 -5.1875zm-18.46875 -9.09375l18.53125 0q-0.375 -4.1875 -2.125 -6.28125q-2.6875 -3.25 -6.96875 -3.25q-3.875 0 -6.515625 2.59375q-2.640625 2.59375 -2.921875 6.9375zm31.28125 19.78125l0 -33.1875l5.0625 0l0 5.03125q1.9375 -3.53125 3.578125 -4.65625q1.640625 -1.125 3.609375 -1.125q2.84375 0 5.78125 1.8125l-1.9375 5.21875q-2.0625 -1.21875 -4.125 -1.21875q-1.84375 0 -3.3125 1.109375q-1.46875 1.109375 -2.09375 3.078125q-0.9375 3.0 -0.9375 6.5625l0 17.375l-5.625 0zm21.40625 -39.34375l0 -6.46875l5.625 0l0 6.46875l-5.625 0zm0 39.34375l0 -33.1875l5.625 0l0 33.1875l-5.625 0zm23.40625 0l-12.625 -33.1875l5.9375 0l7.125 19.875q1.15625 3.21875 2.125 6.6875q0.75 -2.625 2.09375 -6.3125l7.375 -20.25l5.78125 0l-12.5625 33.1875l-5.25 0zm45.5 -10.6875l5.8125 0.71875q-1.375 5.09375 -5.09375 7.90625q-3.71875 2.8125 -9.5 2.8125q-7.28125 0 -11.546875 -4.484375q-4.265625 -4.484375 -4.265625 -12.578125q0 -8.375 4.3125 -13.0q4.3125 -4.625 11.1875 -4.625q6.65625 0 10.875 4.53125q4.21875 4.53125 4.21875 12.75q0 0.5 -0.03125 1.5l-24.75 0q0.3125 5.46875 3.09375 8.375q2.78125 2.90625 6.9375 2.90625q3.09375 0 5.28125 -1.625q2.1875 -1.625 3.46875 -5.1875zm-18.46875 -9.09375l18.53125 0q-0.375 -4.1875 -2.125 -6.28125q-2.6875 -3.25 -6.96875 -3.25q-3.875 0 -6.515625 2.59375q-2.640625 2.59375 -2.921875 6.9375zm52.875 19.78125l0 -4.1875q-3.15625 4.9375 -9.28125 4.9375q-3.96875 0 -7.296875 -2.1875q-3.328125 -2.1875 -5.15625 -6.109375q-1.828125 -3.921875 -1.828125 -9.015625q0 -4.96875 1.65625 -9.015625q1.65625 -4.046875 4.96875 -6.203125q3.3125 -2.15625 7.40625 -2.15625q3.0 0 5.34375 1.265625q2.34375 1.265625 3.8125 3.296875l0 -16.4375l5.59375 0l0 45.8125l-5.21875 0zm-17.78125 -16.5625q0 6.375 2.6875 9.53125q2.6875 3.15625 6.34375 3.15625q3.6875 0 6.265625 -3.015625q2.578125 -3.015625 2.578125 -9.203125q0 -6.8125 -2.625 -10.0q-2.625 -3.1875 -6.46875 -3.1875q-3.75 0 -6.265625 3.0625q-2.515625 3.0625 -2.515625 9.65625z" fill-rule="nonzero"></path><path fill="#cc4125" d="m253.03937 223.65617l706.96063 0l0 246.61418l-706.96063 0z" fill-rule="nonzero"></path><path stroke="#f3f3f3" stroke-width="1.0" stroke-linejoin="round" stroke-linecap="butt" d="m253.03937 223.65617l706.96063 0l0 246.61418l-706.96063 0z" fill-rule="nonzero"></path><path fill="#000000" d="m533.86346 365.37262l0.671875 2.609375l0.703125 -2.609375l11.828125 -31.875l7.390625 0l-17.234375 42.265625l-5.5 0l-17.390625 -42.265625l7.421875 0l12.109375 31.875zm67.11719 -10.28125q0 4.53125 -1.09375 8.46875q-1.09375 3.921875 -3.203125 6.8125q-2.109375 2.890625 -5.21875 4.53125q-3.109375 1.640625 -7.09375 1.640625q-3.859375 0 -6.8125 -1.25q-2.953125 -1.25 -5.0625 -3.59375l0 20.3125l-7.21875 0l0 -58.515625l6.59375 0l0.359375 4.609375q2.109375 -2.625 5.09375 -4.0q2.984375 -1.390625 6.9375 -1.390625q4.0625 0 7.1875 1.609375q3.125 1.59375 5.234375 4.453125q2.109375 2.84375 3.203125 6.8125q1.09375 3.953125 1.09375 8.6875l0 0.8125zm-7.234375 -0.8125q0 -3.09375 -0.6875 -5.875q-0.671875 -2.796875 -2.109375 -4.921875q-1.421875 -2.140625 -3.609375 -3.390625q-2.1875 -1.25 -5.234375 -1.25q-3.46875 0 -5.84375 1.625q-2.359375 1.625 -3.765625 4.15625l0 20.359375q1.40625 2.5 3.75 4.078125q2.34375 1.578125 5.9375 1.578125q3.015625 0 5.203125 -1.265625q2.1875 -1.265625 3.59375 -3.40625q1.40625 -2.15625 2.078125 -4.96875q0.6875 -2.8125 0.6875 -5.90625l0 -0.8125zm36.679688 -31.015625l0 10.234375l16.09375 0l0 5.578125l-16.09375 0l0 22.96875q0 2.46875 0.625 4.078125q0.625 1.59375 1.71875 2.546875q1.09375 0.953125 2.515625 1.34375q1.4375 0.390625 3.03125 0.390625q1.171875 0 2.421875 -0.125q1.25 -0.140625 2.4375 -0.328125q1.203125 -0.203125 2.234375 -0.421875q1.03125 -0.21875 1.703125 -0.375l1.015625 5.125q-0.90625 0.546875 -2.203125 0.953125q-1.28125 0.40625 -2.8125 0.703125q-1.515625 0.296875 -3.21875 0.453125q-1.6875 0.15625 -3.375 0.15625q-2.8125 0 -5.25 -0.796875q-2.4375 -0.8125 -4.234375 -2.546875q-1.796875 -1.734375 -2.84375 -4.484375q-1.03125 -2.765625 -1.03125 -6.671875l0 -22.96875l-11.09375 0l0 -5.578125l11.09375 0l0 -10.234375l7.265625 0zm58.601562 9.453125q1.015625 0 2.109375 0.0625q1.09375 0.046875 2.078125 0.1875q1.0 0.140625 1.84375 0.34375q0.84375 0.1875 1.390625 0.421875l-0.984375 7.0625q-2.109375 -0.46875 -4.0 -0.671875q-1.890625 -0.21875 -3.96875 -0.21875q-5.078125 0 -8.21875 2.3125q-3.140625 2.296875 -4.625 6.4375l0 27.109375l-7.265625 0l0 -42.265625l6.875 0l0.34375 6.71875q2.578125 -3.484375 6.1875 -5.484375q3.625 -2.015625 8.234375 -2.015625z" fill-rule="nonzero"></path><path fill="#666666" d="m253.03937 470.27036l706.96063 0l0 246.61417l-706.96063 0z" fill-rule="nonzero"></path><path stroke="#f3f3f3" stroke-width="1.0" stroke-linejoin="round" stroke-linecap="butt" d="m253.03937 470.27036l706.96063 0l0 246.61417l-706.96063 0z" fill-rule="nonzero"></path><path fill="#000000" d="m480.05484 670.37744l0 -36.6875l-11.640625 0l0 -5.578125l11.640625 0l0 -2.96875q0 -4.0625 1.1875 -7.125q1.203125 -3.078125 3.359375 -5.140625q2.171875 -2.078125 5.21875 -3.125q3.046875 -1.0625 6.796875 -1.0625q2.578125 0 5.015625 0.4375q2.453125 0.421875 5.03125 1.09375l-0.859375 5.96875q-1.609375 -0.546875 -3.734375 -0.953125q-2.125 -0.40625 -4.546875 -0.40625q-5.078125 0.03125 -7.640625 2.578125q-2.5625 2.53125 -2.5625 7.734375l0 2.96875l16.296875 0l0 5.578125l-16.296875 0l0 36.6875l-7.265625 0zm38.40628 -42.265625l21.59375 0l0 36.015625l13.796875 0l0 6.25l-35.390625 0l0 -6.25l14.375 0l0 -29.734375l-14.375 0l0 -6.28125zm13.4375 -11.09375q0 -1.796875 1.0625 -3.03125q1.078125 -1.234375 3.265625 -1.234375q2.15625 0 3.25 1.234375q1.09375 1.234375 1.09375 3.03125q0 1.75 -1.09375 2.921875q-1.09375 1.171875 -3.25 1.171875q-2.1875 0 -3.265625 -1.171875q-1.0625 -1.171875 -1.0625 -2.921875zm52.101562 54.140625q-4.453125 0 -8.1875 -1.515625q-3.71875 -1.53125 -6.375 -4.265625q-2.65625 -2.734375 -4.140625 -6.484375q-1.484375 -3.75 -1.484375 -8.171875l0 -1.640625q0 -5.109375 1.640625 -9.15625q1.640625 -4.046875 4.34375 -6.828125q2.71875 -2.796875 6.171875 -4.28125q3.46875 -1.484375 7.09375 -1.484375q4.578125 0 7.984375 1.578125q3.421875 1.578125 5.6875 4.375q2.265625 2.796875 3.375 6.59375q1.125 3.78125 1.125 8.1875l0 3.25l-30.203125 0q0.125 2.890625 1.109375 5.4375q1.0 2.53125 2.734375 4.421875q1.75 1.890625 4.171875 2.984375q2.421875 1.09375 5.34375 1.09375q3.875 0 6.875 -1.5625q3.015625 -1.5625 5.0 -4.140625l4.421875 3.4375q-1.0625 1.609375 -2.640625 3.078125q-1.578125 1.453125 -3.65625 2.59375q-2.0625 1.125 -4.6875 1.8125q-2.609375 0.6875 -5.703125 0.6875zm-0.9375 -37.890625q-2.1875 0 -4.140625 0.796875q-1.953125 0.796875 -3.515625 2.34375q-1.5625 1.546875 -2.640625 3.796875q-1.0625 2.234375 -1.5 5.171875l22.734375 0l0 -0.546875q-0.109375 -2.109375 -0.796875 -4.171875q-0.6875 -2.078125 -2.015625 -3.71875q-1.328125 -1.640625 -3.34375 -2.65625q-2.0 -1.015625 -4.78125 -1.015625zm31.414062 -22.890625l21.59375 0l0 53.75l13.796875 0l0 6.25l-35.390625 0l0 -6.25l14.375 0l0 -47.46875l-14.375 0l0 -6.28125zm45.507812 38.515625q0 -4.734375 1.1875 -8.6875q1.1875 -3.96875 3.390625 -6.8125q2.21875 -2.859375 5.34375 -4.453125q3.125 -1.609375 6.984375 -1.609375q3.796875 0 6.625 1.265625q2.828125 1.265625 4.90625 3.6875l0 -21.90625l7.21875 0l0 60.0l-6.640625 0l-0.3125 -4.453125q-2.109375 2.578125 -5.046875 3.90625q-2.921875 1.328125 -6.828125 1.328125q-3.828125 0 -6.9375 -1.640625q-3.09375 -1.640625 -5.28125 -4.53125q-2.1875 -2.890625 -3.40625 -6.8125q-1.203125 -3.9375 -1.203125 -8.46875l0 -0.8125zm7.21875 0.8125q0 3.09375 0.65625 5.875q0.671875 2.765625 2.0625 4.875q1.390625 2.109375 3.53125 3.34375q2.15625 1.21875 5.15625 1.21875q1.84375 0 3.328125 -0.421875q1.484375 -0.4375 2.6875 -1.234375q1.21875 -0.796875 2.15625 -1.90625q0.9375 -1.125 1.640625 -2.484375l0 -19.609375q-1.40625 -2.578125 -3.796875 -4.234375q-2.375 -1.671875 -5.9375 -1.671875q-3.046875 0 -5.21875 1.25q-2.15625 1.25 -3.546875 3.390625q-1.390625 2.125 -2.0625 4.921875q-0.65625 2.78125 -0.65625 5.875l0 0.8125zm77.22656 26.578125l-35.8125 0l0 -5.90625l35.8125 0l0 5.90625z" fill-rule="nonzero"></path><path fill="#45818e" d="m1128.6561 135.65617l706.9607 0l0 246.61418l-706.9607 0z" fill-rule="nonzero"></path><path stroke="#000000" stroke-width="1.0" stroke-linejoin="round" stroke-linecap="butt" d="m1128.6561 135.65617l706.9607 0l0 246.61418l-706.9607 0z" fill-rule="nonzero"></path><path fill="#000000" d="m1217.9763 235.26326l0 10.234375l16.09375 0l0 5.578125l-16.09375 0l0 22.968735q0 2.46875 0.625 4.078125q0.625 1.59375 1.71875 2.546875q1.09375 0.953125 2.515625 1.34375q1.4375 0.390625 3.03125 0.390625q1.171875 0 2.421875 -0.125q1.25 -0.140625 2.4375 -0.328125q1.203125 -0.203125 2.234375 -0.421875q1.03125 -0.21875 1.703125 -0.375l1.015625 5.125q-0.90625 0.546875 -2.203125 0.953125q-1.28125 0.40625 -2.8125 0.703125q-1.515625 0.296875 -3.21875 0.453125q-1.6875 0.15625 -3.375 0.15625q-2.8125 0 -5.25 -0.796875q-2.4375 -0.8125 -4.234375 -2.546875q-1.796875 -1.734375 -2.84375 -4.484375q-1.03125 -2.765625 -1.03125 -6.671875l0 -22.968735l-11.09375 0l0 -5.578125l11.09375 0l0 -10.234375l7.265625 0zm46.445312 37.499985l1.875 5.109375l12.890625 -32.374985l8.09375 0l-21.453125 48.79686q-0.734375 1.640625 -1.890625 3.46875q-1.15625 1.84375 -2.796875 3.40625q-1.640625 1.5625 -3.828125 2.609375q-2.1875 1.0625 -5.03125 1.0625q-0.515625 0 -1.140625 -0.0625q-0.625 -0.0625 -1.25 -0.15625q-0.625 -0.09375 -1.171875 -0.21875q-0.546875 -0.109375 -0.890625 -0.1875l1.171875 -5.90625q0.265625 0 0.734375 0.03125q0.46875 0.046875 0.96875 0.078125q0.515625 0.046875 0.984375 0.0625q0.46875 0.03125 0.75 0.03125q1.484375 0 2.703125 -0.828125q1.234375 -0.8125 2.1875 -1.953125q0.96875 -1.125 1.640625 -2.34375q0.6875 -1.203125 1.078125 -1.984375l2.890625 -5.640625l-18.203125 -40.26561l8.09375 0l11.59375 27.26561zm68.13281 -5.671875q0 4.53125 -1.09375 8.46875q-1.09375 3.921875 -3.203125 6.8125q-2.109375 2.890625 -5.21875 4.53125q-3.109375 1.640625 -7.09375 1.640625q-3.859375 0 -6.8125 -1.25q-2.953125 -1.25 -5.0625 -3.59375l0 20.3125l-7.21875 0l0 -58.51561l6.59375 0l0.359375 4.609375q2.109375 -2.625 5.09375 -4.0q2.984375 -1.390625 6.9375 -1.390625q4.0625 0 7.1875 1.609375q3.125 1.59375 5.234375 4.453125q2.109375 2.84375 3.203125 6.8124847q1.09375 3.953125 1.09375 8.6875l0 0.8125zm-7.234375 -0.8125q0 -3.09375 -0.6875 -5.875q-0.671875 -2.796875 -2.109375 -4.9218597q-1.421875 -2.140625 -3.609375 -3.390625q-2.1875 -1.25 -5.234375 -1.25q-3.46875 0 -5.84375 1.625q-2.359375 1.625 -3.765625 4.1562347l0 20.359375q1.40625 2.5 3.75 4.078125q2.34375 1.578125 5.9375 1.578125q3.015625 0 5.203125 -1.265625q2.1875 -1.265625 3.59375 -3.40625q1.40625 -2.15625 2.078125 -4.96875q0.6875 -2.8125 0.6875 -5.90625l0 -0.8125zm38.242188 22.265625q-4.453125 0 -8.1875 -1.515625q-3.71875 -1.53125 -6.375 -4.265625q-2.65625 -2.734375 -4.140625 -6.484375q-1.484375 -3.75 -1.484375 -8.171875l0 -1.640625q0 -5.109375 1.640625 -9.15625q1.640625 -4.0468597 4.34375 -6.8281097q2.71875 -2.796875 6.171875 -4.28125q3.46875 -1.484375 7.09375 -1.484375q4.578125 0 7.984375 1.578125q3.421875 1.578125 5.6875 4.375q2.265625 2.796875 3.375 6.5937347q1.125 3.78125 1.125 8.1875l0 3.25l-30.203125 0q0.125 2.890625 1.109375 5.4375q1.0 2.53125 2.734375 4.421875q1.75 1.890625 4.171875 2.984375q2.421875 1.09375 5.34375 1.09375q3.875 0 6.875 -1.5625q3.015625 -1.5625 5.0 -4.140625l4.421875 3.4375q-1.0625 1.609375 -2.640625 3.078125q-1.578125 1.453125 -3.65625 2.59375q-2.0625 1.125 -4.6875 1.8125q-2.609375 0.6875 -5.703125 0.6875zm-0.9375 -37.89061q-2.1875 0 -4.140625 0.796875q-1.953125 0.796875 -3.515625 2.34375q-1.5625 1.546875 -2.640625 3.7968597q-1.0625 2.234375 -1.5 5.171875l22.734375 0l0 -0.546875q-0.109375 -2.109375 -0.796875 -4.171875q-0.6875 -2.0781097 -2.015625 -3.7187347q-1.328125 -1.640625 -3.34375 -2.65625q-2.0 -1.015625 -4.78125 -1.015625zm31.414062 -5.15625l21.59375 0l0 36.01561l13.796875 0l0 6.25l-35.390625 0l0 -6.25l14.375 0l0 -29.73436l-14.375 0l0 -6.28125zm13.4375 -11.09375q0 -1.796875 1.0625 -3.03125q1.078125 -1.234375 3.265625 -1.234375q2.15625 0 3.25 1.234375q1.09375 1.234375 1.09375 3.03125q0 1.75 -1.09375 2.921875q-1.09375 1.171875 -3.25 1.171875q-2.1875 0 -3.265625 -1.171875q-1.0625 -1.171875 -1.0625 -2.921875zm39.914062 11.09375l0.515625 6.25q2.296875 -3.28125 5.65625 -5.140625q3.359375 -1.859375 7.5 -1.890625q3.328125 0 6.03125 0.9375q2.71875 0.9375 4.625 2.9375q1.921875 1.984375 2.953125 5.046875q1.046875 3.0624847 1.046875 7.2812347l0 26.84375l-7.234375 0l0 -26.6875q0 -2.8125 -0.625 -4.765625q-0.625 -1.9531097 -1.859375 -3.1562347q-1.21875 -1.21875 -3.0 -1.765625q-1.78125 -0.546875 -4.078125 -0.546875q-3.640625 0 -6.390625 1.828125q-2.75 1.8125 -4.390625 4.7812347l0 30.3125l-7.234375 0l0 -42.26561l6.484375 0zm52.304688 42.26561l0 -36.687485l-11.640625 0l0 -5.578125l11.640625 0l0 -2.96875q0 -4.0625 1.1875 -7.125q1.203125 -3.078125 3.359375 -5.140625q2.171875 -2.078125 5.21875 -3.125q3.046875 -1.0625 6.796875 -1.0625q2.578125 0 5.015625 0.4375q2.453125 0.421875 5.03125 1.09375l-0.859375 5.96875q-1.609375 -0.546875 -3.734375 -0.953125q-2.125 -0.40625 -4.546875 -0.40625q-5.078125 0.03125 -7.640625 2.578125q-2.5625 2.53125 -2.5625 7.734375l0 2.96875l16.296875 0l0 5.578125l-16.296875 0l0 36.687485l-7.265625 0zm35.234375 -21.53125q0 -4.5625 1.328125 -8.484375q1.328125 -3.9374847 3.8125 -6.8281097q2.484375 -2.890625 6.03125 -4.546875q3.5625 -1.65625 8.015625 -1.65625q4.484375 0 8.0625 1.65625q3.578125 1.65625 6.046875 4.546875q2.484375 2.890625 3.8125 6.8281097q1.328125 3.921875 1.328125 8.484375l0 0.859375q0 4.578125 -1.328125 8.484375q-1.328125 3.90625 -3.8125 6.796875q-2.46875 2.890625 -6.03125 4.53125q-3.546875 1.640625 -8.0 1.640625q-4.5 0 -8.078125 -1.640625q-3.5625 -1.640625 -6.046875 -4.53125q-2.484375 -2.890625 -3.8125 -6.796875q-1.328125 -3.90625 -1.328125 -8.484375l0 -0.859375zm7.234375 0.859375q0 3.125 0.734375 5.96875q0.75 2.828125 2.25 4.984375q1.5 2.140625 3.765625 3.390625q2.265625 1.25 5.28125 1.25q2.96875 0 5.203125 -1.25q2.25 -1.25 3.75 -3.390625q1.515625 -2.15625 2.25 -4.984375q0.75 -2.84375 0.75 -5.96875l0 -0.859375q0 -3.078125 -0.765625 -5.90625q-0.765625 -2.84375 -2.265625 -4.9843597q-1.5 -2.15625 -3.75 -3.421875q-2.25 -1.265625 -5.25 -1.265625q-3.015625 0 -5.25 1.265625q-2.21875 1.265625 -3.71875 3.421875q-1.5 2.1406097 -2.25 4.9843597q-0.734375 2.828125 -0.734375 5.90625l0 0.859375zm126.484375 0q0 4.53125 -1.09375 8.46875q-1.09375 3.921875 -3.203125 6.8125q-2.109375 2.890625 -5.21875 4.53125q-3.109375 1.640625 -7.09375 1.640625q-3.859375 0 -6.8125 -1.25q-2.953125 -1.25 -5.0625 -3.59375l0 20.3125l-7.21875 0l0 -58.51561l6.59375 0l0.359375 4.609375q2.109375 -2.625 5.09375 -4.0q2.984375 -1.390625 6.9375 -1.390625q4.0625 0 7.1875 1.609375q3.125 1.59375 5.234375 4.453125q2.109375 2.84375 3.203125 6.8124847q1.09375 3.953125 1.09375 8.6875l0 0.8125zm-7.234375 -0.8125q0 -3.09375 -0.6875 -5.875q-0.671875 -2.796875 -2.109375 -4.9218597q-1.421875 -2.140625 -3.609375 -3.390625q-2.1875 -1.25 -5.234375 -1.25q-3.46875 0 -5.84375 1.625q-2.359375 1.625 -3.765625 4.1562347l0 20.359375q1.40625 2.5 3.75 4.078125q2.34375 1.578125 5.9375 1.578125q3.015625 0 5.203125 -1.265625q2.1875 -1.265625 3.59375 -3.40625q1.40625 -2.15625 2.078125 -4.96875q0.6875 -2.8125 0.6875 -5.90625l0 -0.8125zm36.679688 -31.01561l0 10.234375l16.09375 0l0 5.578125l-16.09375 0l0 22.968735q0 2.46875 0.625 4.078125q0.625 1.59375 1.71875 2.546875q1.09375 0.953125 2.515625 1.34375q1.4375 0.390625 3.03125 0.390625q1.171875 0 2.421875 -0.125q1.25 -0.140625 2.4375 -0.328125q1.203125 -0.203125 2.234375 -0.421875q1.03125 -0.21875 1.703125 -0.375l1.015625 5.125q-0.90625 0.546875 -2.203125 0.953125q-1.28125 0.40625 -2.8125 0.703125q-1.515625 0.296875 -3.21875 0.453125q-1.6875 0.15625 -3.375 0.15625q-2.8125 0 -5.25 -0.796875q-2.4375 -0.8125 -4.234375 -2.546875q-1.796875 -1.734375 -2.84375 -4.484375q-1.03125 -2.765625 -1.03125 -6.671875l0 -22.968735l-11.09375 0l0 -5.578125l11.09375 0l0 -10.234375l7.265625 0zm58.601562 9.453125q1.015625 0 2.109375 0.0625q1.09375 0.046875 2.078125 0.1875q1.0 0.140625 1.84375 0.34375q0.84375 0.1875 1.390625 0.421875l-0.984375 7.0625q-2.109375 -0.46875 -4.0 -0.671875q-1.890625 -0.21875 -3.96875 -0.21875q-5.078125 0 -8.21875 2.3125q-3.140625 2.2968597 -4.625 6.4374847l0 27.109375l-7.265625 0l0 -42.26561l6.875 0l0.34375 6.71875q2.578125 -3.484375 6.1875 -5.484375q3.625 -2.015625 8.234375 -2.015625z" fill-rule="nonzero"></path><path fill="#134f5c" d="m1128.6561 382.27036l706.9607 0l0 246.61417l-706.9607 0z" fill-rule="nonzero"></path><path stroke="#000000" stroke-width="1.0" stroke-linejoin="round" stroke-linecap="butt" d="m1128.6561 382.27036l706.9607 0l0 246.61417l-706.9607 0z" fill-rule="nonzero"></path><path fill="#000000" d="m1174.2537 519.7993q0 -2.609375 0.78125 -4.828125q0.78125 -2.234375 2.1875 -4.171875q1.40625 -1.9375 3.359375 -3.671875q1.953125 -1.734375 4.328125 -3.421875q-2.609375 -3.546875 -4.15625 -6.703125q-1.546875 -3.171875 -1.546875 -6.609375q0 -3.328125 1.0 -5.875q1.0 -2.5625 2.828125 -4.296875q1.84375 -1.75 4.421875 -2.640625q2.578125 -0.90625 5.78125 -0.90625q2.765625 0 5.03125 0.984375q2.265625 0.96875 3.84375 2.640625q1.59375 1.65625 2.453125 3.84375q0.859375 2.1875 0.859375 4.609375q0 2.0625 -0.609375 3.765625q-0.609375 1.703125 -1.6875 3.1875q-1.0625 1.484375 -2.546875 2.8125q-1.484375 1.328125 -3.203125 2.609375l-3.671875 3.125l11.984375 15.75q1.375 -2.5 2.15625 -5.46875q0.78125 -2.96875 0.8125 -6.40625l6.53125 0q0 5.0 -1.4375 9.28125q-1.421875 4.265625 -4.15625 7.703125l7.078125 9.265625l-8.640625 0l-3.234375 -4.296875q-2.890625 2.453125 -6.375 3.765625q-3.46875 1.3125 -7.296875 1.3125q-3.875 0 -7.0 -1.125q-3.125 -1.140625 -5.3125 -3.171875q-2.1875 -2.03125 -3.375 -4.859375q-1.1875 -2.84375 -1.1875 -6.203125zm16.875 9.5q2.765625 0 5.34375 -1.015625q2.578125 -1.015625 4.8125 -2.890625l-12.625 -16.84375l-1.09375 0.9375q-1.953125 1.609375 -3.171875 3.140625q-1.203125 1.515625 -1.84375 2.859375q-0.640625 1.34375 -0.859375 2.46875q-0.21875 1.109375 -0.21875 1.84375q0 2.0 0.625 3.71875q0.625 1.71875 1.828125 3.015625q1.21875 1.28125 3.015625 2.03125q1.796875 0.734375 4.1875 0.734375zm-4.65625 -38.984375q0 2.1875 0.96875 4.46875q0.984375 2.28125 2.75 4.828125l4.5625 -3.640625q1.21875 -0.8125 2.0 -1.703125q0.78125 -0.90625 1.203125 -1.828125q0.4375 -0.921875 0.609375 -1.859375q0.171875 -0.9375 0.171875 -1.828125q0 -1.171875 -0.375 -2.28125q-0.359375 -1.125 -1.09375 -1.953125q-0.71875 -0.84375 -1.734375 -1.375q-1.015625 -0.53125 -2.296875 -0.53125q-1.6875 0 -2.953125 0.625q-1.265625 0.625 -2.109375 1.6875q-0.84375 1.046875 -1.28125 2.4375q-0.421875 1.390625 -0.421875 2.953125zm74.22656 23.390625q0 4.53125 -1.09375 8.46875q-1.09375 3.921875 -3.203125 6.8125q-2.109375 2.890625 -5.21875 4.53125q-3.109375 1.640625 -7.125 1.640625q-4.0625 0 -7.0625 -1.4375q-2.984375 -1.453125 -5.09375 -4.15625l-0.34375 4.8125l-6.640625 0l0 -60.0l7.21875 0l0 22.265625q2.078125 -2.578125 5.0 -3.9375q2.9375 -1.375 6.84375 -1.375q4.0625 0 7.1875 1.609375q3.125 1.59375 5.234375 4.453125q2.109375 2.84375 3.203125 6.8125q1.09375 3.953125 1.09375 8.6875l0 0.8125zm-7.234375 -0.8125q0 -3.09375 -0.609375 -5.875q-0.59375 -2.796875 -1.921875 -4.921875q-1.328125 -2.140625 -3.484375 -3.390625q-2.140625 -1.25 -5.265625 -1.25q-1.875 0 -3.4375 0.5q-1.5625 0.484375 -2.796875 1.359375q-1.234375 0.875 -2.1875 2.078125q-0.953125 1.1875 -1.625 2.59375l0 18.46875q0.703125 1.40625 1.65625 2.609375q0.96875 1.1875 2.21875 2.09375q1.25 0.890625 2.8125 1.375q1.5625 0.484375 3.4375 0.484375q2.96875 0 5.09375 -1.21875q2.125 -1.234375 3.46875 -3.34375q1.359375 -2.109375 2.0 -4.875q0.640625 -2.78125 0.640625 -5.875l0 -0.8125zm47.195312 21.484375q-0.4375 -0.828125 -0.6875 -2.046875q-0.25 -1.234375 -0.375 -2.5625q-1.09375 1.09375 -2.4375 2.078125q-1.34375 0.96875 -2.96875 1.71875q-1.625 0.734375 -3.46875 1.15625q-1.828125 0.4375 -3.890625 0.4375q-3.359375 0 -6.078125 -0.96875q-2.71875 -0.984375 -4.609375 -2.640625q-1.890625 -1.671875 -2.9375 -3.953125q-1.03125 -2.28125 -1.03125 -4.9375q0 -3.484375 1.390625 -6.09375q1.390625 -2.625 3.921875 -4.359375q2.546875 -1.734375 6.109375 -2.59375q3.578125 -0.859375 8.0 -0.859375l7.890625 0l0 -3.328125q0 -1.90625 -0.703125 -3.421875q-0.703125 -1.53125 -2.0 -2.609375q-1.28125 -1.078125 -3.140625 -1.65625q-1.859375 -0.59375 -4.15625 -0.59375q-2.15625 0 -3.859375 0.546875q-1.6875 0.546875 -2.859375 1.453125q-1.171875 0.890625 -1.828125 2.125q-0.640625 1.234375 -0.640625 2.5625l-7.265625 0q0.046875 -2.3125 1.1875 -4.53125q1.15625 -2.234375 3.328125 -4.0q2.171875 -1.78125 5.265625 -2.875q3.109375 -1.09375 7.0625 -1.09375q3.59375 0 6.671875 0.875q3.09375 0.875 5.328125 2.65625q2.25 1.78125 3.53125 4.4375q1.296875 2.65625 1.296875 6.203125l0 19.65625q0 2.109375 0.390625 4.46875q0.390625 2.359375 1.09375 4.125l0 0.625l-7.53125 0zm-12.78125 -5.515625q2.109375 0 3.9375 -0.546875q1.84375 -0.546875 3.34375 -1.4375q1.515625 -0.90625 2.609375 -2.046875q1.09375 -1.15625 1.71875 -2.40625l0 -8.5625l-6.71875 0q-6.328125 0 -9.84375 1.875q-3.515625 1.875 -3.515625 5.90625q0 1.5625 0.515625 2.890625q0.53125 1.328125 1.578125 2.28125q1.0625 0.953125 2.65625 1.5q1.609375 0.546875 3.71875 0.546875zm61.101562 -5.703125q0 -1.28125 -0.515625 -2.3125q-0.5 -1.046875 -1.71875 -1.90625q-1.203125 -0.859375 -3.203125 -1.578125q-1.984375 -0.71875 -4.953125 -1.3125q-3.640625 -0.734375 -6.625 -1.78125q-2.984375 -1.0625 -5.125 -2.53125q-2.125 -1.46875 -3.296875 -3.4375q-1.171875 -1.96875 -1.171875 -4.59375q0 -2.578125 1.203125 -4.8125q1.21875 -2.25 3.40625 -3.921875q2.1875 -1.6875 5.21875 -2.65625q3.03125 -0.984375 6.65625 -0.984375q3.90625 0 7.03125 1.015625q3.125 1.015625 5.3125 2.8125q2.1875 1.796875 3.375 4.203125q1.203125 2.390625 1.203125 5.171875l-7.234375 0q0 -1.375 -0.703125 -2.671875q-0.703125 -1.3125 -1.953125 -2.328125q-1.25 -1.015625 -3.03125 -1.640625q-1.765625 -0.625 -4.0 -0.625q-2.296875 0 -4.046875 0.515625q-1.734375 0.5 -2.890625 1.359375q-1.140625 0.859375 -1.734375 2.0q-0.578125 1.125 -0.578125 2.328125q0 1.25 0.46875 2.234375q0.46875 0.96875 1.609375 1.75q1.15625 0.78125 3.09375 1.40625q1.9375 0.625 4.90625 1.21875q3.90625 0.8125 6.984375 1.890625q3.09375 1.078125 5.203125 2.578125q2.109375 1.5 3.21875 3.5q1.109375 1.984375 1.109375 4.609375q0 2.8125 -1.265625 5.125q-1.265625 2.296875 -3.53125 3.9375q-2.265625 1.640625 -5.4375 2.546875q-3.15625 0.890625 -6.90625 0.890625q-4.296875 0 -7.65625 -1.15625q-3.359375 -1.15625 -5.6875 -3.046875q-2.328125 -1.890625 -3.5625 -4.390625q-1.21875 -2.5 -1.21875 -5.203125l7.21875 0q0.15625 2.234375 1.1875 3.765625q1.046875 1.515625 2.578125 2.453125q1.546875 0.9375 3.421875 1.328125q1.875 0.390625 3.71875 0.390625q4.5625 0 7.21875 -1.671875q2.65625 -1.6875 2.703125 -4.46875zm38.585938 12.0q-4.453125 0 -8.1875 -1.515625q-3.71875 -1.53125 -6.375 -4.265625q-2.65625 -2.734375 -4.140625 -6.484375q-1.484375 -3.75 -1.484375 -8.171875l0 -1.640625q0 -5.109375 1.640625 -9.15625q1.640625 -4.046875 4.34375 -6.828125q2.71875 -2.796875 6.171875 -4.28125q3.46875 -1.484375 7.09375 -1.484375q4.578125 0 7.984375 1.578125q3.421875 1.578125 5.6875 4.375q2.265625 2.796875 3.375 6.59375q1.125 3.78125 1.125 8.1875l0 3.25l-30.203125 0q0.125 2.890625 1.109375 5.4375q1.0 2.53125 2.734375 4.421875q1.75 1.890625 4.171875 2.984375q2.421875 1.09375 5.34375 1.09375q3.875 0 6.875 -1.5625q3.015625 -1.5625 5.0 -4.140625l4.421875 3.4375q-1.0625 1.609375 -2.640625 3.078125q-1.578125 1.453125 -3.65625 2.59375q-2.0625 1.125 -4.6875 1.8125q-2.609375 0.6875 -5.703125 0.6875zm-0.9375 -37.890625q-2.1875 0 -4.140625 0.796875q-1.953125 0.796875 -3.515625 2.34375q-1.5625 1.546875 -2.640625 3.796875q-1.0625 2.234375 -1.5 5.171875l22.734375 0l0 -0.546875q-0.109375 -2.109375 -0.796875 -4.171875q-0.6875 -2.078125 -2.015625 -3.71875q-1.328125 -1.640625 -3.34375 -2.65625q-2.0 -1.015625 -4.78125 -1.015625zm53.710938 37.109375l-7.21875 0l0 -47.65625l-14.890625 5.65625l0 -6.59375l21.53125 -8.28125l0.578125 0l0 56.875zm39.148438 -4.6875q0 -1.171875 0.375 -2.1875q0.375 -1.015625 1.078125 -1.78125q0.703125 -0.765625 1.75 -1.1875q1.0625 -0.4375 2.46875 -0.4375q1.40625 0 2.46875 0.4375q1.078125 0.421875 1.796875 1.1875q0.734375 0.765625 1.09375 1.78125q0.375 1.015625 0.375 2.1875q0 1.125 -0.375 2.125q-0.359375 1.0 -1.09375 1.75q-0.71875 0.734375 -1.796875 1.140625q-1.0625 0.421875 -2.46875 0.421875q-1.40625 0 -2.46875 -0.421875q-1.046875 -0.40625 -1.75 -1.140625q-0.703125 -0.75 -1.078125 -1.75q-0.375 -1.0 -0.375 -2.125zm0 -34.0q0 -1.171875 0.375 -2.1875q0.375 -1.015625 1.078125 -1.78125q0.703125 -0.765625 1.75 -1.1875q1.0625 -0.4375 2.46875 -0.4375q1.40625 0 2.46875 0.4375q1.078125 0.421875 1.796875 1.1875q0.734375 0.765625 1.09375 1.78125q0.375 1.015625 0.375 2.1875q0 1.125 -0.375 2.125q-0.359375 1.0 -1.09375 1.75q-0.71875 0.734375 -1.796875 1.15625q-1.0625 0.40625 -2.46875 0.40625q-1.40625 0 -2.46875 -0.40625q-1.046875 -0.421875 -1.75 -1.15625q-0.703125 -0.75 -1.078125 -1.75q-0.375 -1.0 -0.375 -2.125zm48.007812 34.0q0 -1.171875 0.375 -2.1875q0.375 -1.015625 1.078125 -1.78125q0.703125 -0.765625 1.75 -1.1875q1.0625 -0.4375 2.46875 -0.4375q1.40625 0 2.46875 0.4375q1.078125 0.421875 1.796875 1.1875q0.734375 0.765625 1.09375 1.78125q0.375 1.015625 0.375 2.1875q0 1.125 -0.375 2.125q-0.359375 1.0 -1.09375 1.75q-0.71875 0.734375 -1.796875 1.140625q-1.0625 0.421875 -2.46875 0.421875q-1.40625 0 -2.46875 -0.421875q-1.046875 -0.40625 -1.75 -1.140625q-0.703125 -0.75 -1.078125 -1.75q-0.375 -1.0 -0.375 -2.125zm0 -34.0q0 -1.171875 0.375 -2.1875q0.375 -1.015625 1.078125 -1.78125q0.703125 -0.765625 1.75 -1.1875q1.0625 -0.4375 2.46875 -0.4375q1.40625 0 2.46875 0.4375q1.078125 0.421875 1.796875 1.1875q0.734375 0.765625 1.09375 1.78125q0.375 1.015625 0.375 2.1875q0 1.125 -0.375 2.125q-0.359375 1.0 -1.09375 1.75q-0.71875 0.734375 -1.796875 1.15625q-1.0625 0.40625 -2.46875 0.40625q-1.40625 0 -2.46875 -0.40625q-1.046875 -0.421875 -1.75 -1.15625q-0.703125 -0.75 -1.078125 -1.75q-0.375 -1.0 -0.375 -2.125zm44.210938 38.6875l0 -36.6875l-11.640625 0l0 -5.578125l11.640625 0l0 -2.96875q0 -4.0625 1.1875 -7.125q1.203125 -3.078125 3.359375 -5.140625q2.171875 -2.078125 5.21875 -3.125q3.046875 -1.0625 6.796875 -1.0625q2.578125 0 5.015625 0.4375q2.453125 0.421875 5.03125 1.09375l-0.859375 5.96875q-1.609375 -0.546875 -3.734375 -0.953125q-2.125 -0.40625 -4.546875 -0.40625q-5.078125 0.03125 -7.640625 2.578125q-2.5625 2.53125 -2.5625 7.734375l0 2.96875l16.296875 0l0 5.578125l-16.296875 0l0 36.6875l-7.265625 0zm35.234375 -21.53125q0 -4.5625 1.328125 -8.484375q1.328125 -3.9375 3.8125 -6.828125q2.484375 -2.890625 6.03125 -4.546875q3.5625 -1.65625 8.015625 -1.65625q4.484375 0 8.0625 1.65625q3.578125 1.65625 6.046875 4.546875q2.484375 2.890625 3.8125 6.828125q1.328125 3.921875 1.328125 8.484375l0 0.859375q0 4.578125 -1.328125 8.484375q-1.328125 3.90625 -3.8125 6.796875q-2.46875 2.890625 -6.03125 4.53125q-3.546875 1.640625 -8.0 1.640625q-4.5 0 -8.078125 -1.640625q-3.5625 -1.640625 -6.046875 -4.53125q-2.484375 -2.890625 -3.8125 -6.796875q-1.328125 -3.90625 -1.328125 -8.484375l0 -0.859375zm7.234375 0.859375q0 3.125 0.734375 5.96875q0.75 2.828125 2.25 4.984375q1.5 2.140625 3.765625 3.390625q2.265625 1.25 5.28125 1.25q2.96875 0 5.203125 -1.25q2.25 -1.25 3.75 -3.390625q1.515625 -2.15625 2.25 -4.984375q0.75 -2.84375 0.75 -5.96875l0 -0.859375q0 -3.078125 -0.765625 -5.90625q-0.765625 -2.84375 -2.265625 -4.984375q-1.5 -2.15625 -3.75 -3.421875q-2.25 -1.265625 -5.25 -1.265625q-3.015625 0 -5.25 1.265625q-2.21875 1.265625 -3.71875 3.421875q-1.5 2.140625 -2.25 4.984375q-0.734375 2.828125 -0.734375 5.90625l0 0.859375zm40.773438 -0.859375q0 -4.5625 1.328125 -8.484375q1.328125 -3.9375 3.8125 -6.828125q2.484375 -2.890625 6.03125 -4.546875q3.5625 -1.65625 8.015625 -1.65625q4.484375 0 8.0625 1.65625q3.578125 1.65625 6.046875 4.546875q2.484375 2.890625 3.8125 6.828125q1.328125 3.921875 1.328125 8.484375l0 0.859375q0 4.578125 -1.328125 8.484375q-1.328125 3.90625 -3.8125 6.796875q-2.46875 2.890625 -6.03125 4.53125q-3.546875 1.640625 -8.0 1.640625q-4.5 0 -8.078125 -1.640625q-3.5625 -1.640625 -6.046875 -4.53125q-2.484375 -2.890625 -3.8125 -6.796875q-1.328125 -3.90625 -1.328125 -8.484375l0 -0.859375zm7.234375 0.859375q0 3.125 0.734375 5.96875q0.75 2.828125 2.25 4.984375q1.5 2.140625 3.765625 3.390625q2.265625 1.25 5.28125 1.25q2.96875 0 5.203125 -1.25q2.25 -1.25 3.75 -3.390625q1.515625 -2.15625 2.25 -4.984375q0.75 -2.84375 0.75 -5.96875l0 -0.859375q0 -3.078125 -0.765625 -5.90625q-0.765625 -2.84375 -2.265625 -4.984375q-1.5 -2.15625 -3.75 -3.421875q-2.25 -1.265625 -5.25 -1.265625q-3.015625 0 -5.25 1.265625q-2.21875 1.265625 -3.71875 3.421875q-1.5 2.140625 -2.25 4.984375q-0.734375 2.828125 -0.734375 5.90625l0 0.859375zm49.960938 -2.421875q0 -5.578125 0.875 -10.5q0.875 -4.921875 2.359375 -9.125q1.484375 -4.203125 3.421875 -7.671875q1.9375 -3.484375 4.0625 -6.171875q2.125 -2.703125 4.265625 -4.609375q2.15625 -1.921875 4.109375 -3.015625l1.53125 4.765625q-2.421875 1.84375 -4.828125 5.015625q-2.40625 3.15625 -4.296875 7.671875q-1.890625 4.5 -3.09375 10.390625q-1.1875 5.875 -1.1875 13.171875l0 0.546875q0 7.3125 1.1875 13.21875q1.203125 5.890625 3.09375 10.421875q1.890625 4.53125 4.296875 7.75q2.40625 3.234375 4.828125 5.1875l-1.53125 4.40625q-1.953125 -1.09375 -4.125 -2.984375q-2.15625 -1.890625 -4.296875 -4.609375q-2.125 -2.71875 -4.0625 -6.171875q-1.921875 -3.453125 -3.390625 -7.65625q-1.46875 -4.203125 -2.34375 -9.125q-0.875 -4.921875 -0.875 -10.515625l0 -0.390625zm67.22656 0.390625q0 5.59375 -0.890625 10.515625q-0.875 4.921875 -2.359375 9.125q-1.484375 4.203125 -3.421875 7.65625q-1.921875 3.453125 -4.0625 6.171875q-2.125 2.71875 -4.296875 4.609375q-2.15625 1.890625 -4.109375 2.984375l-1.53125 -4.40625q2.421875 -1.796875 4.828125 -5.03125q2.40625 -3.21875 4.296875 -7.796875q1.890625 -4.5625 3.078125 -10.5q1.203125 -5.9375 1.203125 -13.25l0 -0.546875q0 -7.296875 -1.25 -13.25q-1.25 -5.96875 -3.234375 -10.546875q-1.96875 -4.59375 -4.328125 -7.796875q-2.359375 -3.203125 -4.59375 -5.0l1.53125 -4.421875q1.953125 1.09375 4.109375 3.015625q2.171875 1.90625 4.296875 4.609375q2.140625 2.6875 4.0625 6.171875q1.9375 3.46875 3.421875 7.671875q1.484375 4.203125 2.359375 9.125q0.890625 4.921875 0.890625 10.5l0 0.390625z" fill-rule="nonzero"></path><path fill="#000000" fill-opacity="0.0" d="m1128.6571 39.530727l706.9606 0l0 96.12598l-706.9606 0z" fill-rule="nonzero"></path><path fill="#f3f3f3" d="m1310.075 110.53372l-5.21875 0l0 -45.8125l5.625 0l0 16.34375q3.5625 -4.46875 9.09375 -4.46875q3.0625 0 5.796875 1.234375q2.734375 1.234375 4.5 3.46875q1.765625 2.234375 2.765625 5.390625q1.0 3.15625 1.0 6.75q0 8.53125 -4.21875 13.1875q-4.21875 4.65625 -10.125 4.65625q-5.875 0 -9.21875 -4.90625l0 4.15625zm-0.0625 -16.84375q0 5.96875 1.625 8.625q2.65625 4.34375 7.1875 4.34375q3.6875 0 6.375 -3.203125q2.6875 -3.203125 2.6875 -9.546875q0 -6.5 -2.578125 -9.59375q-2.578125 -3.09375 -6.234375 -3.09375q-3.6875 0 -6.375 3.203125q-2.6875 3.203125 -2.6875 9.265625zm52.125 12.75q-3.125 2.65625 -6.015625 3.75q-2.890625 1.09375 -6.203125 1.09375q-5.46875 0 -8.40625 -2.671875q-2.9375 -2.671875 -2.9375 -6.828125q0 -2.4375 1.109375 -4.453125q1.109375 -2.015625 2.90625 -3.234375q1.796875 -1.21875 4.046875 -1.84375q1.65625 -0.4375 5.0 -0.84375q6.8125 -0.8125 10.03125 -1.9375q0.03125 -1.15625 0.03125 -1.46875q0 -3.4375 -1.59375 -4.84375q-2.15625 -1.90625 -6.40625 -1.90625q-3.96875 0 -5.859375 1.390625q-1.890625 1.390625 -2.796875 4.921875l-5.5 -0.75q0.75 -3.53125 2.46875 -5.703125q1.71875 -2.171875 4.96875 -3.34375q3.25 -1.171875 7.53125 -1.171875q4.25 0 6.90625 1.0q2.65625 1.0 3.90625 2.515625q1.25 1.515625 1.75 3.828125q0.28125 1.4375 0.28125 5.1875l0 7.5q0 7.84375 0.359375 9.921875q0.359375 2.078125 1.421875 3.984375l-5.875 0q-0.875 -1.75 -1.125 -4.09375zm-0.46875 -12.5625q-3.0625 1.25 -9.1875 2.125q-3.46875 0.5 -4.90625 1.125q-1.4375 0.625 -2.21875 1.828125q-0.78125 1.203125 -0.78125 2.671875q0 2.25 1.703125 3.75q1.703125 1.5 4.984375 1.5q3.25 0 5.78125 -1.421875q2.53125 -1.421875 3.71875 -3.890625q0.90625 -1.90625 0.90625 -5.625l0 -2.0625zm12.15625 6.75l5.5625 -0.875q0.46875 3.34375 2.609375 5.125q2.140625 1.78125 5.984375 1.78125q3.875 0 5.75 -1.578125q1.875 -1.578125 1.875 -3.703125q0 -1.90625 -1.65625 -3.0q-1.15625 -0.75 -5.75 -1.90625q-6.1875 -1.5625 -8.578125 -2.703125q-2.390625 -1.140625 -3.625 -3.15625q-1.234375 -2.015625 -1.234375 -4.453125q0 -2.21875 1.015625 -4.109375q1.015625 -1.890625 2.765625 -3.140625q1.3125 -0.96875 3.578125 -1.640625q2.265625 -0.671875 4.859375 -0.671875q3.90625 0 6.859375 1.125q2.953125 1.125 4.359375 3.046875q1.40625 1.921875 1.9375 5.140625l-5.5 0.75q-0.375 -2.5625 -2.171875 -4.0q-1.796875 -1.4375 -5.078125 -1.4375q-3.875 0 -5.53125 1.28125q-1.65625 1.28125 -1.65625 3.0q0 1.09375 0.6875 1.96875q0.6875 0.90625 2.15625 1.5q0.84375 0.3125 4.96875 1.4375q5.96875 1.59375 8.328125 2.609375q2.359375 1.015625 3.703125 2.953125q1.34375 1.9375 1.34375 4.8125q0 2.8125 -1.640625 5.296875q-1.640625 2.484375 -4.734375 3.84375q-3.09375 1.359375 -7.0 1.359375q-6.46875 0 -9.859375 -2.6875q-3.390625 -2.6875 -4.328125 -7.96875zm56.96875 -0.78125l5.8125 0.71875q-1.375 5.09375 -5.09375 7.90625q-3.71875 2.8125 -9.5 2.8125q-7.28125 0 -11.546875 -4.484375q-4.265625 -4.484375 -4.265625 -12.578125q0 -8.375 4.3125 -13.0q4.3125 -4.625 11.1875 -4.625q6.65625 0 10.875 4.53125q4.21875 4.53125 4.21875 12.75q0 0.5 -0.03125 1.5l-24.75 0q0.3125 5.46875 3.09375 8.375q2.78125 2.90625 6.9375 2.90625q3.09375 0 5.28125 -1.625q2.1875 -1.625 3.46875 -5.1875zm-18.46875 -9.09375l18.53125 0q-0.375 -4.1875 -2.125 -6.28125q-2.6875 -3.25 -6.96875 -3.25q-3.875 0 -6.515625 2.59375q-2.640625 2.59375 -2.921875 6.9375zm50.96875 19.78125l-5.625 0l0 -35.84375q-2.03125 1.9375 -5.328125 3.875q-3.296875 1.9375 -5.921875 2.90625l0 -5.4375q4.71875 -2.21875 8.25 -5.375q3.53125 -3.15625 5.0 -6.125l3.625 0l0 46.0z" fill-rule="nonzero"></path><path fill="#6fa8dc" d="m1506.2625 110.53372l-12.625 -33.1875l5.9375 0l7.125 19.875q1.15625 3.21875 2.125 6.6875q0.75 -2.625 2.09375 -6.3125l7.375 -20.25l5.78125 0l-12.5625 33.1875l-5.25 0zm35.0625 -5.03125l0.8125 4.96875q-2.375 0.5 -4.25 0.5q-3.0625 0 -4.75 -0.96875q-1.6875 -0.96875 -2.375 -2.546875q-0.6875 -1.578125 -0.6875 -6.640625l0 -19.09375l-4.125 0l0 -4.375l4.125 0l0 -8.21875l5.59375 -3.375l0 11.59375l5.65625 0l0 4.375l-5.65625 0l0 19.40625q0 2.40625 0.296875 3.09375q0.296875 0.6875 0.96875 1.09375q0.671875 0.40625 1.921875 0.40625q0.9375 0 2.46875 -0.21875zm27.15625 0.9375q-3.125 2.65625 -6.015625 3.75q-2.890625 1.09375 -6.203125 1.09375q-5.46875 0 -8.40625 -2.671875q-2.9375 -2.671875 -2.9375 -6.828125q0 -2.4375 1.109375 -4.453125q1.109375 -2.015625 2.90625 -3.234375q1.796875 -1.21875 4.046875 -1.84375q1.65625 -0.4375 5.0 -0.84375q6.8125 -0.8125 10.03125 -1.9375q0.03125 -1.15625 0.03125 -1.46875q0 -3.4375 -1.59375 -4.84375q-2.15625 -1.90625 -6.40625 -1.90625q-3.96875 0 -5.859375 1.390625q-1.890625 1.390625 -2.796875 4.921875l-5.5 -0.75q0.75 -3.53125 2.46875 -5.703125q1.71875 -2.171875 4.96875 -3.34375q3.25 -1.171875 7.53125 -1.171875q4.25 0 6.90625 1.0q2.65625 1.0 3.90625 2.515625q1.25 1.515625 1.75 3.828125q0.28125 1.4375 0.28125 5.1875l0 7.5q0 7.84375 0.359375 9.921875q0.359375 2.078125 1.421875 3.984375l-5.875 0q-0.875 -1.75 -1.125 -4.09375zm-0.46875 -12.5625q-3.0625 1.25 -9.1875 2.125q-3.46875 0.5 -4.90625 1.125q-1.4375 0.625 -2.21875 1.828125q-0.78125 1.203125 -0.78125 2.671875q0 2.25 1.703125 3.75q1.703125 1.5 4.984375 1.5q3.25 0 5.78125 -1.421875q2.53125 -1.421875 3.71875 -3.890625q0.90625 -1.90625 0.90625 -5.625l0 -2.0625zm19.59375 16.65625l-5.21875 0l0 -45.8125l5.625 0l0 16.34375q3.5625 -4.46875 9.09375 -4.46875q3.0625 0 5.796875 1.234375q2.734375 1.234375 4.5 3.46875q1.765625 2.234375 2.765625 5.390625q1.0 3.15625 1.0 6.75q0 8.53125 -4.21875 13.1875q-4.21875 4.65625 -10.125 4.65625q-5.875 0 -9.21875 -4.90625l0 4.15625zm-0.0625 -16.84375q0 5.96875 1.625 8.625q2.65625 4.34375 7.1875 4.34375q3.6875 0 6.375 -3.203125q2.6875 -3.203125 2.6875 -9.546875q0 -6.5 -2.578125 -9.59375q-2.578125 -3.09375 -6.234375 -3.09375q-3.6875 0 -6.375 3.203125q-2.6875 3.203125 -2.6875 9.265625zm30.34375 16.84375l0 -45.8125l5.625 0l0 45.8125l-5.625 0zm37.0625 -10.6875l5.8125 0.71875q-1.375 5.09375 -5.09375 7.90625q-3.71875 2.8125 -9.5 2.8125q-7.28125 0 -11.546875 -4.484375q-4.265625 -4.484375 -4.265625 -12.578125q0 -8.375 4.3125 -13.0q4.3125 -4.625 11.1875 -4.625q6.65625 0 10.875 4.53125q4.21875 4.53125 4.21875 12.75q0 0.5 -0.03125 1.5l-24.75 0q0.3125 5.46875 3.09375 8.375q2.78125 2.90625 6.9375 2.90625q3.09375 0 5.28125 -1.625q2.1875 -1.625 3.46875 -5.1875zm-18.46875 -9.09375l18.53125 0q-0.375 -4.1875 -2.125 -6.28125q-2.6875 -3.25 -6.96875 -3.25q-3.875 0 -6.515625 2.59375q-2.640625 2.59375 -2.921875 6.9375z" fill-rule="nonzero"></path><path fill="#cc4125" d="m253.03937 706.5482l706.96063 0l0 246.6142l-706.96063 0z" fill-rule="nonzero"></path><path stroke="#f3f3f3" stroke-width="1.0" stroke-linejoin="round" stroke-linecap="butt" d="m253.03937 706.5482l706.96063 0l0 246.6142l-706.96063 0z" fill-rule="nonzero"></path><path fill="#000000" d="m509.85953 848.2647l0.671875 2.609375l0.703125 -2.609375l11.8281555 -31.875l7.390625 0l-17.234375 42.265625l-5.5000305 0l-17.390625 -42.265625l7.421875 0l12.109375 31.875zm67.11722 -10.28125q0 4.53125 -1.09375 8.46875q-1.09375 3.921875 -3.203125 6.8125q-2.109375 2.890625 -5.21875 4.53125q-3.109375 1.640625 -7.09375 1.640625q-3.859375 0 -6.8125 -1.25q-2.953125 -1.25 -5.0625 -3.59375l0 20.3125l-7.21875 0l0 -58.515625l6.59375 0l0.359375 4.609375q2.109375 -2.625 5.09375 -4.0q2.984375 -1.390625 6.9375 -1.390625q4.0625 0 7.1875 1.609375q3.125 1.59375 5.234375 4.453125q2.109375 2.84375 3.203125 6.8125q1.09375 3.953125 1.09375 8.6875l0 0.8125zm-7.234375 -0.8125q0 -3.09375 -0.6875 -5.875q-0.671875 -2.796875 -2.109375 -4.921875q-1.421875 -2.140625 -3.609375 -3.390625q-2.1875 -1.25 -5.234375 -1.25q-3.46875 0 -5.84375 1.625q-2.359375 1.625 -3.765625 4.15625l0 20.359375q1.40625 2.5 3.75 4.078125q2.34375 1.578125 5.9375 1.578125q3.015625 0 5.203125 -1.265625q2.1875 -1.265625 3.59375 -3.40625q1.40625 -2.15625 2.078125 -4.96875q0.6875 -2.8125 0.6875 -5.90625l0 -0.8125zm36.679688 -31.015625l0 10.234375l16.09375 0l0 5.578125l-16.09375 0l0 22.96875q0 2.46875 0.625 4.078125q0.625 1.59375 1.71875 2.546875q1.09375 0.953125 2.515625 1.34375q1.4375 0.390625 3.03125 0.390625q1.171875 0 2.421875 -0.125q1.25 -0.140625 2.4375 -0.328125q1.203125 -0.203125 2.234375 -0.421875q1.03125 -0.21875 1.703125 -0.375l1.015625 5.125q-0.90625 0.546875 -2.203125 0.953125q-1.28125 0.40625 -2.8125 0.703125q-1.515625 0.296875 -3.21875 0.453125q-1.6875 0.15625 -3.375 0.15625q-2.8125 0 -5.25 -0.796875q-2.4375 -0.8125 -4.234375 -2.546875q-1.796875 -1.734375 -2.84375 -4.484375q-1.03125 -2.765625 -1.03125 -6.671875l0 -22.96875l-11.09375 0l0 -5.578125l11.09375 0l0 -10.234375l7.265625 0zm58.601562 9.453125q1.015625 0 2.109375 0.0625q1.09375 0.046875 2.078125 0.1875q1.0 0.140625 1.84375 0.34375q0.84375 0.1875 1.390625 0.421875l-0.984375 7.0625q-2.109375 -0.46875 -4.0 -0.671875q-1.890625 -0.21875 -3.96875 -0.21875q-5.078125 0 -8.21875 2.3125q-3.140625 2.296875 -4.625 6.4375l0 27.109375l-7.265625 0l0 -42.265625l6.875 0l0.34375 6.71875q2.578125 -3.484375 6.1875 -5.484375q3.625 -2.015625 8.234375 -2.015625zm55.195312 43.046875l-37.265625 0l0 -5.203125l18.625 -20.703125q2.5 -2.765625 4.171875 -4.90625q1.6875 -2.15625 2.703125 -3.96875q1.015625 -1.828125 1.4375 -3.4375q0.4375 -1.625 0.4375 -3.34375q0 -2.109375 -0.6875 -3.96875q-0.671875 -1.859375 -1.984375 -3.21875q-1.3125 -1.375 -3.171875 -2.171875q-1.84375 -0.796875 -4.1875 -0.796875q-2.859375 0 -4.953125 0.828125q-2.078125 0.8125 -3.46875 2.3125q-1.390625 1.5 -2.078125 3.65625q-0.671875 2.140625 -0.671875 4.796875l-7.265625 0q0 -3.59375 1.25 -6.765625q1.25 -3.1875 3.609375 -5.5625q2.359375 -2.390625 5.78125 -3.796875q3.421875 -1.40625 7.796875 -1.40625q4.015625 0 7.234375 1.1875q3.234375 1.1875 5.453125 3.296875q2.234375 2.109375 3.421875 5.0q1.1875 2.890625 1.1875 6.296875q0 2.53125 -0.859375 5.015625q-0.859375 2.484375 -2.328125 4.90625q-1.453125 2.421875 -3.390625 4.78125q-1.9375 2.359375 -4.078125 4.703125l-15.28125 16.5625l28.5625 0l0 5.90625z" fill-rule="nonzero"></path><path fill="#000000" fill-opacity="0.0" d="m771.9869 353.28085c86.14172 0 129.21259 7.637787 172.28345 15.275574c43.07086 7.637787 86.141785 15.275604 172.28351 15.275604" fill-rule="nonzero"></path><path stroke="#d9d9d9" stroke-width="12.0" stroke-linejoin="round" stroke-linecap="butt" d="m771.9869 353.28085c86.14172 0 129.21259 7.637787 172.28345 15.275574c21.535461 3.8189087 43.07086 7.637787 69.99017 10.501984c13.459595 1.4320679 28.265259 2.6254883 45.089844 3.4608765c4.2060547 0.20880127 8.538452 0.3952942 13.007446 0.55752563l3.0760498 0.106658936" fill-rule="evenodd"></path><path fill="#d9d9d9" stroke="#d9d9d9" stroke-width="12.0" stroke-linecap="butt" d="m1075.4338 383.18347l-13.706055 13.280487l37.2854 -12.9086l-36.859863 -14.078033z" fill-rule="evenodd"></path><path fill="#000000" fill-opacity="0.0" d="m253.04028 480.13177l706.96063 0l0 96.12598l-706.96063 0z" fill-rule="nonzero"></path><path fill="#000000" d="m434.17685 541.2285l5.5625 -0.875q0.46875 3.34375 2.609375 5.125q2.140625 1.78125 5.984375 1.78125q3.875 0 5.75 -1.578125q1.875 -1.578125 1.875 -3.703125q0 -1.90625 -1.65625 -3.0q-1.15625 -0.75 -5.75 -1.90625q-6.1875 -1.5625 -8.578125 -2.703125q-2.390625 -1.140625 -3.625 -3.15625q-1.234375 -2.015625 -1.234375 -4.453125q0 -2.21875 1.015625 -4.109375q1.015625 -1.890625 2.765625 -3.140625q1.3125 -0.96875 3.578125 -1.640625q2.265625 -0.671875 4.859375 -0.671875q3.90625 0 6.859375 1.125q2.953125 1.125 4.359375 3.046875q1.40625 1.921875 1.9375 5.140625l-5.5 0.75q-0.375 -2.5625 -2.171875 -4.0q-1.796875 -1.4375 -5.078125 -1.4375q-3.875 0 -5.53125 1.28125q-1.65625 1.28125 -1.65625 3.0q0 1.09375 0.6875 1.96875q0.6875 0.90625 2.15625 1.5q0.84375 0.3125 4.96875 1.4375q5.96875 1.59375 8.328125 2.609375q2.359375 1.015625 3.703125 2.953125q1.34375 1.9375 1.34375 4.8125q0 2.8125 -1.640625 5.296875q-1.640625 2.484375 -4.734375 3.84375q-3.09375 1.359375 -7.0 1.359375q-6.46875 0 -9.859375 -2.6875q-3.390625 -2.6875 -4.328125 -7.96875zm46.53125 4.875l0.8125 4.96875q-2.375 0.5 -4.25 0.5q-3.0625 0 -4.75 -0.96875q-1.6875 -0.96875 -2.375 -2.546875q-0.6875 -1.578125 -0.6875 -6.640625l0 -19.09375l-4.125 0l0 -4.375l4.125 0l0 -8.21875l5.59375 -3.375l0 11.59375l5.65625 0l0 4.375l-5.65625 0l0 19.40625q0 2.40625 0.296875 3.09375q0.296875 0.6875 0.96875 1.09375q0.671875 0.40625 1.921875 0.40625q0.9375 0 2.46875 -0.21875zm5.4375 5.03125l0 -33.1875l5.0625 0l0 5.03125q1.9375 -3.53125 3.578125 -4.65625q1.640625 -1.125 3.609375 -1.125q2.84375 0 5.78125 1.8125l-1.9375 5.21875q-2.0625 -1.21875 -4.125 -1.21875q-1.84375 0 -3.3125 1.109375q-1.46875 1.109375 -2.09375 3.078125q-0.9375 3.0 -0.9375 6.5625l0 17.375l-5.625 0zm43.12503 0l0 -4.875q-3.875 5.625 -10.53125 5.625q-2.9375 0 -5.484375 -1.125q-2.5469055 -1.125 -3.7812805 -2.828125q-1.234375 -1.703125 -1.734375 -4.171875q-0.34375 -1.65625 -0.34375 -5.25l0 -20.5625l5.6250305 0l0 18.40625q0 4.40625 0.34375 5.9375q0.53125 2.21875 2.25 3.484375q1.71875 1.265625 4.25 1.265625q2.53125 0 4.75 -1.296875q2.21875 -1.296875 3.140625 -3.53125q0.921875 -2.234375 0.921875 -6.484375l0 -17.78125l5.625 0l0 33.1875l-5.03125 0zm35.5 -12.15625l5.53125 0.71875q-0.90625 5.71875 -4.640625 8.953125q-3.734375 3.234375 -9.171875 3.234375q-6.8125 0 -10.953125 -4.453125q-4.140625 -4.453125 -4.140625 -12.765625q0 -5.375 1.78125 -9.40625q1.78125 -4.03125 5.421875 -6.046875q3.640625 -2.015625 7.921875 -2.015625q5.40625 0 8.84375 2.734375q3.4375 2.734375 4.40625 7.765625l-5.46875 0.84375q-0.78125 -3.34375 -2.765625 -5.03125q-1.984375 -1.6875 -4.796875 -1.6875q-4.25 0 -6.90625 3.046875q-2.65625 3.046875 -2.65625 9.640625q0 6.6875 2.5625 9.71875q2.5625 3.03125 6.6875 3.03125q3.3125 0 5.53125 -2.03125q2.21875 -2.03125 2.8125 -6.25zm22.625 7.125l0.8125 4.96875q-2.375 0.5 -4.25 0.5q-3.0625 0 -4.75 -0.96875q-1.6875 -0.96875 -2.375 -2.546875q-0.6875 -1.578125 -0.6875 -6.640625l0 -19.09375l-4.125 0l0 -4.375l4.125 0l0 -8.21875l5.59375 -3.375l0 11.59375l5.65625 0l0 4.375l-5.65625 0l0 19.40625q0 2.40625 0.296875 3.09375q0.296875 0.6875 0.96875 1.09375q0.671875 0.40625 1.921875 0.40625q0.9375 0 2.46875 -0.21875z" fill-rule="nonzero"></path><path fill="#f3f3f3" d="m615.8644 551.13477l-5.21875 0l0 -45.8125l5.625 0l0 16.34375q3.5625 -4.46875 9.09375 -4.46875q3.0625 0 5.796875 1.234375q2.734375 1.234375 4.5 3.46875q1.765625 2.234375 2.765625 5.390625q1.0 3.15625 1.0 6.75q0 8.53125 -4.21875 13.1875q-4.21875 4.65625 -10.125 4.65625q-5.875 0 -9.21875 -4.90625l0 4.15625zm-0.0625 -16.84375q0 5.96875 1.625 8.625q2.65625 4.34375 7.1875 4.34375q3.6875 0 6.375 -3.203125q2.6875 -3.203125 2.6875 -9.546875q0 -6.5 -2.578125 -9.59375q-2.578125 -3.09375 -6.234375 -3.09375q-3.6875 0 -6.375 3.203125q-2.6875 3.203125 -2.6875 9.265625zm52.125 12.75q-3.125 2.65625 -6.015625 3.75q-2.890625 1.09375 -6.203125 1.09375q-5.46875 0 -8.40625 -2.671875q-2.9375 -2.671875 -2.9375 -6.828125q0 -2.4375 1.109375 -4.453125q1.109375 -2.015625 2.90625 -3.234375q1.796875 -1.21875 4.046875 -1.84375q1.65625 -0.4375 5.0 -0.84375q6.8125 -0.8125 10.03125 -1.9375q0.03125 -1.15625 0.03125 -1.46875q0 -3.4375 -1.59375 -4.84375q-2.15625 -1.90625 -6.40625 -1.90625q-3.96875 0 -5.859375 1.390625q-1.890625 1.390625 -2.796875 4.921875l-5.5 -0.75q0.75 -3.53125 2.46875 -5.703125q1.71875 -2.171875 4.96875 -3.34375q3.25 -1.171875 7.53125 -1.171875q4.25 0 6.90625 1.0q2.65625 1.0 3.90625 2.515625q1.25 1.515625 1.75 3.828125q0.28125 1.4375 0.28125 5.1875l0 7.5q0 7.84375 0.359375 9.921875q0.359375 2.078125 1.421875 3.984375l-5.875 0q-0.875 -1.75 -1.125 -4.09375zm-0.46875 -12.5625q-3.0625 1.25 -9.1875 2.125q-3.46875 0.5 -4.90625 1.125q-1.4375 0.625 -2.21875 1.828125q-0.78125 1.203125 -0.78125 2.671875q0 2.25 1.703125 3.75q1.703125 1.5 4.984375 1.5q3.25 0 5.78125 -1.421875q2.53125 -1.421875 3.71875 -3.890625q0.90625 -1.90625 0.90625 -5.625l0 -2.0625zm12.15625 6.75l5.5625 -0.875q0.46875 3.34375 2.609375 5.125q2.140625 1.78125 5.984375 1.78125q3.875 0 5.75 -1.578125q1.875 -1.578125 1.875 -3.703125q0 -1.90625 -1.65625 -3.0q-1.15625 -0.75 -5.75 -1.90625q-6.1875 -1.5625 -8.578125 -2.703125q-2.390625 -1.140625 -3.625 -3.15625q-1.234375 -2.015625 -1.234375 -4.453125q0 -2.21875 1.015625 -4.109375q1.015625 -1.890625 2.765625 -3.140625q1.3125 -0.96875 3.578125 -1.640625q2.265625 -0.671875 4.859375 -0.671875q3.90625 0 6.859375 1.125q2.953125 1.125 4.359375 3.046875q1.40625 1.921875 1.9375 5.140625l-5.5 0.75q-0.375 -2.5625 -2.171875 -4.0q-1.796875 -1.4375 -5.078125 -1.4375q-3.875 0 -5.53125 1.28125q-1.65625 1.28125 -1.65625 3.0q0 1.09375 0.6875 1.96875q0.6875 0.90625 2.15625 1.5q0.84375 0.3125 4.96875 1.4375q5.96875 1.59375 8.328125 2.609375q2.359375 1.015625 3.703125 2.953125q1.34375 1.9375 1.34375 4.8125q0 2.8125 -1.640625 5.296875q-1.640625 2.484375 -4.734375 3.84375q-3.09375 1.359375 -7.0 1.359375q-6.46875 0 -9.859375 -2.6875q-3.390625 -2.6875 -4.328125 -7.96875zm56.96875 -0.78125l5.8125 0.71875q-1.375 5.09375 -5.09375 7.90625q-3.71875 2.8125 -9.5 2.8125q-7.28125 0 -11.546875 -4.484375q-4.265625 -4.484375 -4.265625 -12.578125q0 -8.375 4.3125 -13.0q4.3125 -4.625 11.1875 -4.625q6.65625 0 10.875 4.53125q4.21875 4.53125 4.21875 12.75q0 0.5 -0.03125 1.5l-24.75 0q0.3125 5.46875 3.09375 8.375q2.78125 2.90625 6.9375 2.90625q3.09375 0 5.28125 -1.625q2.1875 -1.625 3.46875 -5.1875zm-18.46875 -9.09375l18.53125 0q-0.375 -4.1875 -2.125 -6.28125q-2.6875 -3.25 -6.96875 -3.25q-3.875 0 -6.515625 2.59375q-2.640625 2.59375 -2.921875 6.9375zm50.96875 19.78125l-5.625 0l0 -35.84375q-2.03125 1.9375 -5.328125 3.875q-3.296875 1.9375 -5.921875 2.90625l0 -5.4375q4.71875 -2.21875 8.25 -5.375q3.53125 -3.15625 5.0 -6.125l3.625 0l0 46.0z" fill-rule="nonzero"></path><path fill="#b6d7a8" d="m253.03937 952.3438l706.96063 0l0 246.6142l-706.96063 0z" fill-rule="nonzero"></path><path stroke="#f3f3f3" stroke-width="1.0" stroke-linejoin="round" stroke-linecap="butt" d="m253.03937 952.3438l706.96063 0l0 246.6142l-706.96063 0z" fill-rule="nonzero"></path><path fill="#000000" d="m456.05093 1152.4509l0 -36.6875l-11.640625 0l0 -5.578125l11.640625 0l0 -2.96875q0 -4.0625 1.1875 -7.125q1.203125 -3.078125 3.359375 -5.140625q2.171875 -2.078125 5.21875 -3.125q3.046875 -1.0625 6.796875 -1.0625q2.578125 0 5.015625 0.4375q2.453125 0.421875 5.03125 1.09375l-0.859375 5.96875q-1.609375 -0.546875 -3.734375 -0.953125q-2.125 -0.40625 -4.546875 -0.40625q-5.078125 0.03125 -7.640625 2.578125q-2.5625 2.53125 -2.5625 7.734375l0 2.96875l16.296875 0l0 5.578125l-16.296875 0l0 36.6875l-7.265625 0zm38.40625 -42.265625l21.59378 0l0 36.015625l13.796875 0l0 6.25l-35.390656 0l0 -6.25l14.375 0l0 -29.734375l-14.375 0l0 -6.28125zm13.4375 -11.09375q0 -1.796875 1.0625 -3.03125q1.078125 -1.234375 3.2656555 -1.234375q2.15625 0 3.25 1.234375q1.09375 1.234375 1.09375 3.03125q0 1.75 -1.09375 2.921875q-1.09375 1.171875 -3.25 1.171875q-2.1875305 0 -3.2656555 -1.171875q-1.0625 -1.171875 -1.0625 -2.921875zm52.101593 54.140625q-4.453125 0 -8.1875 -1.515625q-3.71875 -1.53125 -6.375 -4.265625q-2.65625 -2.734375 -4.140625 -6.484375q-1.484375 -3.75 -1.484375 -8.171875l0 -1.640625q0 -5.109375 1.640625 -9.15625q1.640625 -4.046875 4.34375 -6.828125q2.71875 -2.796875 6.171875 -4.28125q3.46875 -1.484375 7.09375 -1.484375q4.578125 0 7.984375 1.578125q3.421875 1.578125 5.6875 4.375q2.265625 2.796875 3.375 6.59375q1.125 3.78125 1.125 8.1875l0 3.25l-30.203125 0q0.125 2.890625 1.109375 5.4375q1.0 2.53125 2.734375 4.421875q1.75 1.890625 4.171875 2.984375q2.421875 1.09375 5.34375 1.09375q3.875 0 6.875 -1.5625q3.015625 -1.5625 5.0 -4.140625l4.421875 3.4375q-1.0625 1.609375 -2.640625 3.078125q-1.578125 1.453125 -3.65625 2.59375q-2.0625 1.125 -4.6875 1.8125q-2.609375 0.6875 -5.703125 0.6875zm-0.9375 -37.890625q-2.1875 0 -4.140625 0.796875q-1.953125 0.796875 -3.515625 2.34375q-1.5625 1.546875 -2.640625 3.796875q-1.0625 2.234375 -1.5 5.171875l22.734375 0l0 -0.546875q-0.109375 -2.109375 -0.796875 -4.171875q-0.6875 -2.078125 -2.015625 -3.71875q-1.328125 -1.640625 -3.34375 -2.65625q-2.0 -1.015625 -4.78125 -1.015625zm31.414062 -22.890625l21.59375 0l0 53.75l13.796875 0l0 6.25l-35.390625 0l0 -6.25l14.375 0l0 -47.46875l-14.375 0l0 -6.28125zm45.507812 38.515625q0 -4.734375 1.1875 -8.6875q1.1875 -3.96875 3.390625 -6.8125q2.21875 -2.859375 5.34375 -4.453125q3.125 -1.609375 6.984375 -1.609375q3.796875 0 6.625 1.265625q2.828125 1.265625 4.90625 3.6875l0 -21.90625l7.21875 0l0 60.0l-6.640625 0l-0.3125 -4.453125q-2.109375 2.578125 -5.046875 3.90625q-2.921875 1.328125 -6.828125 1.328125q-3.828125 0 -6.9375 -1.640625q-3.09375 -1.640625 -5.28125 -4.53125q-2.1875 -2.890625 -3.40625 -6.8125q-1.203125 -3.9375 -1.203125 -8.46875l0 -0.8125zm7.21875 0.8125q0 3.09375 0.65625 5.875q0.671875 2.765625 2.0625 4.875q1.390625 2.109375 3.53125 3.34375q2.15625 1.21875 5.15625 1.21875q1.84375 0 3.328125 -0.421875q1.484375 -0.4375 2.6875 -1.234375q1.21875 -0.796875 2.15625 -1.90625q0.9375 -1.125 1.640625 -2.484375l0 -19.609375q-1.40625 -2.578125 -3.796875 -4.234375q-2.375 -1.671875 -5.9375 -1.671875q-3.046875 0 -5.21875 1.25q-2.15625 1.25 -3.546875 3.390625q-1.390625 2.125 -2.0625 4.921875q-0.65625 2.78125 -0.65625 5.875l0 0.8125zm77.03906 20.671875l-37.265625 0l0 -5.203125l18.625 -20.703125q2.5 -2.765625 4.171875 -4.90625q1.6875 -2.15625 2.703125 -3.96875q1.015625 -1.828125 1.4375 -3.4375q0.4375 -1.625 0.4375 -3.34375q0 -2.109375 -0.6875 -3.96875q-0.671875 -1.859375 -1.984375 -3.21875q-1.3125 -1.375 -3.171875 -2.171875q-1.84375 -0.796875 -4.1875 -0.796875q-2.859375 0 -4.953125 0.828125q-2.078125 0.8125 -3.46875 2.3125q-1.390625 1.5 -2.078125 3.65625q-0.671875 2.140625 -0.671875 4.796875l-7.265625 0q0 -3.59375 1.25 -6.765625q1.25 -3.1875 3.609375 -5.5625q2.359375 -2.390625 5.78125 -3.796875q3.421875 -1.40625 7.796875 -1.40625q4.015625 0 7.234375 1.1875q3.234375 1.1875 5.453125 3.296875q2.234375 2.109375 3.421875 5.0q1.1875 2.890625 1.1875 6.296875q0 2.53125 -0.859375 5.015625q-0.859375 2.484375 -2.328125 4.90625q-1.453125 2.421875 -3.390625 4.78125q-1.9375 2.359375 -4.078125 4.703125l-15.28125 16.5625l28.5625 0l0 5.90625zm48.195312 5.90625l-35.8125 0l0 -5.90625l35.8125 0l0 5.90625z" fill-rule="nonzero"></path><path fill="#000000" fill-opacity="0.0" d="m253.04028 952.34436l706.96063 0l0 96.12598l-706.96063 0z" fill-rule="nonzero"></path><path fill="#000000" d="m434.17685 1013.4411l5.5625 -0.875q0.46875 3.34375 2.609375 5.125q2.140625 1.78125 5.984375 1.78125q3.875 0 5.75 -1.578125q1.875 -1.578125 1.875 -3.703125q0 -1.90625 -1.65625 -3.0q-1.15625 -0.75 -5.75 -1.90625q-6.1875 -1.5625 -8.578125 -2.703125q-2.390625 -1.140625 -3.625 -3.15625q-1.234375 -2.015625 -1.234375 -4.453125q0 -2.21875 1.015625 -4.109375q1.015625 -1.890625 2.765625 -3.140625q1.3125 -0.96875 3.578125 -1.640625q2.265625 -0.671875 4.859375 -0.671875q3.90625 0 6.859375 1.125q2.953125 1.125 4.359375 3.046875q1.40625 1.921875 1.9375 5.140625l-5.5 0.75q-0.375 -2.5625 -2.171875 -4.0q-1.796875 -1.4375 -5.078125 -1.4375q-3.875 0 -5.53125 1.28125q-1.65625 1.28125 -1.65625 3.0q0 1.09375 0.6875 1.96875q0.6875 0.90625 2.15625 1.5q0.84375 0.3125 4.96875 1.4375q5.96875 1.59375 8.328125 2.609375q2.359375 1.015625 3.703125 2.953125q1.34375 1.9375 1.34375 4.8125q0 2.8125 -1.640625 5.296875q-1.640625 2.484375 -4.734375 3.84375q-3.09375 1.359436 -7.0 1.359436q-6.46875 0 -9.859375 -2.687561q-3.390625 -2.6875 -4.328125 -7.96875zm46.53125 4.875l0.8125 4.96875q-2.375 0.5 -4.25 0.5q-3.0625 0 -4.75 -0.96875q-1.6875 -0.96875 -2.375 -2.546875q-0.6875 -1.578125 -0.6875 -6.640625l0 -19.09375l-4.125 0l0 -4.375l4.125 0l0 -8.21875l5.59375 -3.375l0 11.59375l5.65625 0l0 4.375l-5.65625 0l0 19.40625q0 2.40625 0.296875 3.09375q0.296875 0.6875 0.96875 1.09375q0.671875 0.40625 1.921875 0.40625q0.9375 0 2.46875 -0.21875zm5.4375 5.03125l0 -33.1875l5.0625 0l0 5.03125q1.9375 -3.53125 3.578125 -4.65625q1.640625 -1.125 3.609375 -1.125q2.84375 0 5.78125 1.8125l-1.9375 5.21875q-2.0625 -1.21875 -4.125 -1.21875q-1.84375 0 -3.3125 1.109375q-1.46875 1.109375 -2.09375 3.078125q-0.9375 3.0 -0.9375 6.5625l0 17.375l-5.625 0zm43.12503 0l0 -4.875q-3.875 5.625061 -10.53125 5.625061q-2.9375 0 -5.484375 -1.125061q-2.5469055 -1.125 -3.7812805 -2.828125q-1.234375 -1.703125 -1.734375 -4.171875q-0.34375 -1.65625 -0.34375 -5.25l0 -20.5625l5.6250305 0l0 18.40625q0 4.40625 0.34375 5.9375q0.53125 2.21875 2.25 3.484375q1.71875 1.265625 4.25 1.265625q2.53125 0 4.75 -1.296875q2.21875 -1.296875 3.140625 -3.53125q0.921875 -2.234375 0.921875 -6.484375l0 -17.78125l5.625 0l0 33.1875l-5.03125 0zm35.5 -12.15625l5.53125 0.71875q-0.90625 5.71875 -4.640625 8.953125q-3.734375 3.234436 -9.171875 3.234436q-6.8125 0 -10.953125 -4.453186q-4.140625 -4.453125 -4.140625 -12.765625q0 -5.375 1.78125 -9.40625q1.78125 -4.03125 5.421875 -6.046875q3.640625 -2.015625 7.921875 -2.015625q5.40625 0 8.84375 2.734375q3.4375 2.734375 4.40625 7.765625l-5.46875 0.84375q-0.78125 -3.34375 -2.765625 -5.03125q-1.984375 -1.6875 -4.796875 -1.6875q-4.25 0 -6.90625 3.046875q-2.65625 3.046875 -2.65625 9.640625q0 6.6875 2.5625 9.71875q2.5625 3.03125 6.6875 3.03125q3.3125 0 5.53125 -2.03125q2.21875 -2.03125 2.8125 -6.25zm22.625 7.125l0.8125 4.96875q-2.375 0.5 -4.25 0.5q-3.0625 0 -4.75 -0.96875q-1.6875 -0.96875 -2.375 -2.546875q-0.6875 -1.578125 -0.6875 -6.640625l0 -19.09375l-4.125 0l0 -4.375l4.125 0l0 -8.21875l5.59375 -3.375l0 11.59375l5.65625 0l0 4.375l-5.65625 0l0 19.40625q0 2.40625 0.296875 3.09375q0.296875 0.6875 0.96875 1.09375q0.671875 0.40625 1.921875 0.40625q0.9375 0 2.46875 -0.21875z" fill-rule="nonzero"></path><path fill="#f3f3f3" d="m615.8644 1023.34735l-5.21875 0l0 -45.8125l5.625 0l0 16.34375q3.5625 -4.46875 9.09375 -4.46875q3.0625 0 5.796875 1.234375q2.734375 1.234375 4.5 3.46875q1.765625 2.234375 2.765625 5.390625q1.0 3.15625 1.0 6.75q0 8.53125 -4.21875 13.1875q-4.21875 4.656311 -10.125 4.656311q-5.875 0 -9.21875 -4.906311l0 4.15625zm-0.0625 -16.84375q0 5.96875 1.625 8.625q2.65625 4.34375 7.1875 4.34375q3.6875 0 6.375 -3.203125q2.6875 -3.203125 2.6875 -9.546875q0 -6.5 -2.578125 -9.59375q-2.578125 -3.09375 -6.234375 -3.09375q-3.6875 0 -6.375 3.203125q-2.6875 3.203125 -2.6875 9.265625zm52.125 12.75q-3.125 2.65625 -6.015625 3.75q-2.890625 1.093811 -6.203125 1.093811q-5.46875 0 -8.40625 -2.671936q-2.9375 -2.671875 -2.9375 -6.828125q0 -2.4375 1.109375 -4.453125q1.109375 -2.015625 2.90625 -3.234375q1.796875 -1.21875 4.046875 -1.84375q1.65625 -0.4375 5.0 -0.84375q6.8125 -0.8125 10.03125 -1.9375q0.03125 -1.15625 0.03125 -1.46875q0 -3.4375 -1.59375 -4.84375q-2.15625 -1.90625 -6.40625 -1.90625q-3.96875 0 -5.859375 1.390625q-1.890625 1.390625 -2.796875 4.921875l-5.5 -0.75q0.75 -3.53125 2.46875 -5.703125q1.71875 -2.171875 4.96875 -3.34375q3.25 -1.171875 7.53125 -1.171875q4.25 0 6.90625 1.0q2.65625 1.0 3.90625 2.515625q1.25 1.515625 1.75 3.828125q0.28125 1.4375 0.28125 5.1875l0 7.5q0 7.84375 0.359375 9.921875q0.359375 2.078125 1.421875 3.984375l-5.875 0q-0.875 -1.75 -1.125 -4.09375zm-0.46875 -12.5625q-3.0625 1.25 -9.1875 2.125q-3.46875 0.5 -4.90625 1.125q-1.4375 0.625 -2.21875 1.828125q-0.78125 1.203125 -0.78125 2.671875q0 2.25 1.703125 3.75q1.703125 1.5 4.984375 1.5q3.25 0 5.78125 -1.421875q2.53125 -1.421875 3.71875 -3.890625q0.90625 -1.90625 0.90625 -5.625l0 -2.0625zm12.15625 6.75l5.5625 -0.875q0.46875 3.34375 2.609375 5.125q2.140625 1.78125 5.984375 1.78125q3.875 0 5.75 -1.578125q1.875 -1.578125 1.875 -3.703125q0 -1.90625 -1.65625 -3.0q-1.15625 -0.75 -5.75 -1.90625q-6.1875 -1.5625 -8.578125 -2.703125q-2.390625 -1.140625 -3.625 -3.15625q-1.234375 -2.015625 -1.234375 -4.453125q0 -2.21875 1.015625 -4.109375q1.015625 -1.890625 2.765625 -3.140625q1.3125 -0.96875 3.578125 -1.640625q2.265625 -0.671875 4.859375 -0.671875q3.90625 0 6.859375 1.125q2.953125 1.125 4.359375 3.046875q1.40625 1.921875 1.9375 5.140625l-5.5 0.75q-0.375 -2.5625 -2.171875 -4.0q-1.796875 -1.4375 -5.078125 -1.4375q-3.875 0 -5.53125 1.28125q-1.65625 1.28125 -1.65625 3.0q0 1.09375 0.6875 1.96875q0.6875 0.90625 2.15625 1.5q0.84375 0.3125 4.96875 1.4375q5.96875 1.59375 8.328125 2.609375q2.359375 1.015625 3.703125 2.953125q1.34375 1.9375 1.34375 4.8125q0 2.8125 -1.640625 5.296875q-1.640625 2.484375 -4.734375 3.84375q-3.09375 1.359436 -7.0 1.359436q-6.46875 0 -9.859375 -2.687561q-3.390625 -2.6875 -4.328125 -7.96875zm56.96875 -0.78125l5.8125 0.71875q-1.375 5.09375 -5.09375 7.90625q-3.71875 2.812561 -9.5 2.812561q-7.28125 0 -11.546875 -4.484436q-4.265625 -4.484375 -4.265625 -12.578125q0 -8.375 4.3125 -13.0q4.3125 -4.625 11.1875 -4.625q6.65625 0 10.875 4.53125q4.21875 4.53125 4.21875 12.75q0 0.5 -0.03125 1.5l-24.75 0q0.3125 5.46875 3.09375 8.375q2.78125 2.90625 6.9375 2.90625q3.09375 0 5.28125 -1.625q2.1875 -1.625 3.46875 -5.1875zm-18.46875 -9.09375l18.53125 0q-0.375 -4.1875 -2.125 -6.28125q-2.6875 -3.25 -6.96875 -3.25q-3.875 0 -6.515625 2.59375q-2.640625 2.59375 -2.921875 6.9375zm59.34375 14.375l0 5.40625l-30.28125 0q-0.0625 -2.03125 0.65625 -3.90625q1.15625 -3.09375 3.703125 -6.09375q2.546875 -3.0 7.359375 -6.9375q7.46875 -6.125 10.09375 -9.703125q2.625 -3.578125 2.625 -6.765625q0 -3.34375 -2.390625 -5.640625q-2.390625 -2.296875 -6.234375 -2.296875q-4.0625 0 -6.5 2.4375q-2.4375 2.4375 -2.46875 6.75l-5.78125 -0.59375q0.59375 -6.46875 4.46875 -9.859375q3.875 -3.390625 10.40625 -3.390625q6.59375 0 10.4375 3.65625q3.84375 3.65625 3.84375 9.0625q0 2.75 -1.125 5.40625q-1.125 2.65625 -3.734375 5.59375q-2.609375 2.9375 -8.671875 8.0625q-5.0625 4.25 -6.5 5.765625q-1.4375 1.515625 -2.375 3.046875l22.46875 0z" fill-rule="nonzero"></path><path fill="#a64d79" d="m253.03937 1189.4409l706.96063 0l0 246.61426l-706.96063 0z" fill-rule="nonzero"></path><path stroke="#f3f3f3" stroke-width="1.0" stroke-linejoin="round" stroke-linecap="butt" d="m253.03937 1189.4409l706.96063 0l0 246.61426l-706.96063 0z" fill-rule="nonzero"></path><path fill="#000000" d="m456.05093 1341.548l0 -36.6875l-11.640625 0l0 -5.578125l11.640625 0l0 -2.96875q0 -4.0625 1.1875 -7.125q1.203125 -3.078125 3.359375 -5.140625q2.171875 -2.078125 5.21875 -3.125q3.046875 -1.0625 6.796875 -1.0625q2.578125 0 5.015625 0.4375q2.453125 0.421875 5.03125 1.09375l-0.859375 5.96875q-1.609375 -0.546875 -3.734375 -0.953125q-2.125 -0.40625 -4.546875 -0.40625q-5.078125 0.03125 -7.640625 2.578125q-2.5625 2.53125 -2.5625 7.734375l0 2.96875l16.296875 0l0 5.578125l-16.296875 0l0 36.6875l-7.265625 0zm38.40625 -42.265625l21.59378 0l0 36.015625l13.796875 0l0 6.25l-35.390656 0l0 -6.25l14.375 0l0 -29.734375l-14.375 0l0 -6.28125zm13.4375 -11.09375q0 -1.796875 1.0625 -3.03125q1.078125 -1.234375 3.2656555 -1.234375q2.15625 0 3.25 1.234375q1.09375 1.234375 1.09375 3.03125q0 1.75 -1.09375 2.921875q-1.09375 1.171875 -3.25 1.171875q-2.1875305 0 -3.2656555 -1.171875q-1.0625 -1.171875 -1.0625 -2.921875zm52.101593 54.140625q-4.453125 0 -8.1875 -1.515625q-3.71875 -1.53125 -6.375 -4.265625q-2.65625 -2.734375 -4.140625 -6.484375q-1.484375 -3.75 -1.484375 -8.171875l0 -1.640625q0 -5.109375 1.640625 -9.15625q1.640625 -4.046875 4.34375 -6.828125q2.71875 -2.796875 6.171875 -4.28125q3.46875 -1.484375 7.09375 -1.484375q4.578125 0 7.984375 1.578125q3.421875 1.578125 5.6875 4.375q2.265625 2.796875 3.375 6.59375q1.125 3.78125 1.125 8.1875l0 3.25l-30.203125 0q0.125 2.890625 1.109375 5.4375q1.0 2.53125 2.734375 4.421875q1.75 1.890625 4.171875 2.984375q2.421875 1.09375 5.34375 1.09375q3.875 0 6.875 -1.5625q3.015625 -1.5625 5.0 -4.140625l4.421875 3.4375q-1.0625 1.609375 -2.640625 3.078125q-1.578125 1.453125 -3.65625 2.59375q-2.0625 1.125 -4.6875 1.8125q-2.609375 0.6875 -5.703125 0.6875zm-0.9375 -37.890625q-2.1875 0 -4.140625 0.796875q-1.953125 0.796875 -3.515625 2.34375q-1.5625 1.546875 -2.640625 3.796875q-1.0625 2.234375 -1.5 5.171875l22.734375 0l0 -0.546875q-0.109375 -2.109375 -0.796875 -4.171875q-0.6875 -2.078125 -2.015625 -3.71875q-1.328125 -1.640625 -3.34375 -2.65625q-2.0 -1.015625 -4.78125 -1.015625zm31.414062 -22.890625l21.59375 0l0 53.75l13.796875 0l0 6.25l-35.390625 0l0 -6.25l14.375 0l0 -47.46875l-14.375 0l0 -6.28125zm45.507812 38.515625q0 -4.734375 1.1875 -8.6875q1.1875 -3.96875 3.390625 -6.8125q2.21875 -2.859375 5.34375 -4.453125q3.125 -1.609375 6.984375 -1.609375q3.796875 0 6.625 1.265625q2.828125 1.265625 4.90625 3.6875l0 -21.90625l7.21875 0l0 60.0l-6.640625 0l-0.3125 -4.453125q-2.109375 2.578125 -5.046875 3.90625q-2.921875 1.328125 -6.828125 1.328125q-3.828125 0 -6.9375 -1.640625q-3.09375 -1.640625 -5.28125 -4.53125q-2.1875 -2.890625 -3.40625 -6.8125q-1.203125 -3.9375 -1.203125 -8.46875l0 -0.8125zm7.21875 0.8125q0 3.09375 0.65625 5.875q0.671875 2.765625 2.0625 4.875q1.390625 2.109375 3.53125 3.34375q2.15625 1.21875 5.15625 1.21875q1.84375 0 3.328125 -0.421875q1.484375 -0.4375 2.6875 -1.234375q1.21875 -0.796875 2.15625 -1.90625q0.9375 -1.125 1.640625 -2.484375l0 -19.609375q-1.40625 -2.578125 -3.796875 -4.234375q-2.375 -1.671875 -5.9375 -1.671875q-3.046875 0 -5.21875 1.25q-2.15625 1.25 -3.546875 3.390625q-1.390625 2.125 -2.0625 4.921875q-0.65625 2.78125 -0.65625 5.875l0 0.8125zm50.585938 -11.25l5.15625 0q2.734375 0 4.828125 -0.734375q2.09375 -0.75 3.515625 -2.03125q1.421875 -1.296875 2.15625 -3.09375q0.75 -1.796875 0.75 -3.9375q0 -4.96875 -2.546875 -7.484375q-2.53125 -2.515625 -7.40625 -2.515625q-2.3125 0 -4.203125 0.6875q-1.890625 0.671875 -3.25 1.96875q-1.34375 1.28125 -2.09375 3.078125q-0.734375 1.796875 -0.734375 4.03125l-7.265625 0q0 -3.25 1.265625 -6.109375q1.28125 -2.875 3.578125 -5.0q2.3125 -2.140625 5.53125 -3.359375q3.21875 -1.234375 7.171875 -1.234375q3.828125 0 6.984375 1.03125q3.171875 1.03125 5.4375 3.0625q2.265625 2.03125 3.515625 5.046875q1.25 3.0 1.25 6.953125q0 1.640625 -0.515625 3.40625q-0.5 1.75 -1.5625 3.40625q-1.046875 1.65625 -2.71875 3.125q-1.65625 1.46875 -3.953125 2.4375q2.765625 0.90625 4.625 2.359375q1.859375 1.4375 2.96875 3.234375q1.109375 1.796875 1.5625 3.796875q0.453125 1.984375 0.453125 3.9375q0 3.984375 -1.375 7.078125q-1.359375 3.078125 -3.78125 5.203125q-2.421875 2.125 -5.734375 3.25q-3.296875 1.109375 -7.125 1.109375q-3.75 0 -7.046875 -1.046875q-3.296875 -1.0625 -5.71875 -3.09375q-2.421875 -2.03125 -3.859375 -4.953125q-1.421875 -2.9375 -1.421875 -6.6875l7.234375 0q0 2.21875 0.75 4.0625q0.765625 1.828125 2.171875 3.125q1.40625 1.28125 3.421875 1.984375q2.015625 0.703125 4.46875 0.703125q2.46875 0 4.453125 -0.640625q2.0 -0.640625 3.40625 -1.96875q1.40625 -1.328125 2.15625 -3.296875q0.765625 -1.984375 0.765625 -4.671875q0 -2.65625 -0.875 -4.59375q-0.875 -1.9375 -2.46875 -3.21875q-1.578125 -1.296875 -3.828125 -1.921875q-2.234375 -0.625 -4.9375 -0.625l-5.15625 0l0 -5.859375zm74.64844 37.828125l-35.8125 0l0 -5.90625l35.8125 0l0 5.90625z" fill-rule="nonzero"></path></g></svg>

